<?xml version="1.0" standalone="no"?>
<!DOCTYPE svg PUBLIC "-//W3C//DTD SVG 20010904//EN"
 "http://www.w3.org/TR/2001/REC-SVG-20010904/DTD/svg10.dtd">
<svg version="1.0" xmlns="http://www.w3.org/2000/svg"
 width="1984.000000pt" height="1984.000000pt" viewBox="0 0 1984.000000 1984.000000"
 preserveAspectRatio="xMidYMid meet">
<metadata>
Created by potrace 1.14, written by Peter Selinger 2001-2017
</metadata>
<g transform="translate(0.000000,1984.000000) scale(0.100000,-0.100000)"
fill="#000000" stroke="none">
<path d="M10108 14714 c-2 -1 -313 -5 -693 -8 -379 -3 -719 -8 -755 -10 -36
-2 -110 -7 -165 -10 -167 -11 -228 -15 -271 -21 -49 -6 -173 -16 -226 -18 -21
-1 -38 -4 -38 -7 0 -3 -17 -6 -37 -7 -47 -1 -129 -11 -208 -25 -33 -5 -80 -12
-105 -14 -25 -3 -58 -7 -75 -10 -43 -7 -77 -13 -100 -18 -28 -5 -101 -17 -128
-21 -12 -1 -42 -7 -67 -13 -25 -6 -63 -13 -86 -17 -22 -3 -55 -10 -73 -15 -17
-5 -34 -9 -36 -9 -3 -1 -6 -1 -7 -2 -2 0 -16 -2 -33 -5 -37 -5 -70 -12 -70
-14 0 -1 -8 -3 -19 -5 -10 -2 -40 -9 -66 -15 -26 -6 -54 -13 -61 -14 -8 -1
-32 -8 -54 -14 -22 -6 -51 -13 -65 -16 -14 -2 -61 -14 -105 -26 -44 -12 -84
-23 -90 -24 -5 -1 -14 -4 -20 -7 -5 -4 -35 -12 -65 -19 -30 -7 -59 -15 -65
-19 -5 -3 -16 -6 -22 -7 -13 -2 -283 -89 -313 -101 -8 -3 -19 -7 -25 -9 -5 -1
-23 -8 -40 -15 -16 -7 -32 -13 -35 -13 -6 -1 -67 -25 -95 -36 -11 -5 -49 -20
-85 -34 -36 -14 -78 -30 -95 -37 -16 -7 -33 -12 -37 -11 -5 1 -8 -3 -8 -8 0
-6 -6 -10 -13 -10 -8 0 -27 -6 -43 -14 -16 -8 -51 -24 -79 -36 -109 -48 -340
-164 -343 -172 -2 -4 -10 -8 -18 -8 -8 0 -31 -10 -52 -23 -20 -12 -58 -34 -84
-47 -27 -14 -48 -28 -48 -32 0 -5 -5 -8 -12 -8 -6 0 -34 -14 -62 -32 -91 -56
-155 -97 -212 -135 -31 -21 -63 -42 -72 -48 -8 -5 -23 -15 -31 -22 -9 -7 -45
-33 -81 -60 -36 -26 -70 -52 -76 -58 -7 -5 -24 -19 -39 -29 -14 -11 -35 -27
-45 -35 -10 -9 -39 -34 -66 -56 -98 -82 -270 -249 -349 -337 -94 -105 -208
-248 -250 -313 -10 -16 -25 -36 -32 -43 -7 -7 -13 -20 -13 -28 0 -8 -4 -14 -8
-14 -5 0 -14 -10 -20 -22 -6 -13 -23 -41 -36 -63 -13 -22 -42 -74 -63 -115
-21 -41 -42 -78 -46 -81 -5 -3 -8 -9 -7 -13 0 -3 -29 -67 -65 -141 -36 -75
-65 -140 -65 -145 0 -6 -4 -10 -10 -10 -5 0 -10 -6 -10 -13 0 -7 -18 -49 -40
-92 -22 -43 -40 -85 -40 -92 0 -7 -3 -13 -7 -13 -5 0 -19 -27 -33 -60 -14 -33
-28 -60 -32 -60 -5 0 -8 -7 -8 -14 0 -8 -18 -50 -40 -92 -22 -42 -37 -81 -34
-85 3 -5 0 -9 -5 -9 -6 0 -11 -7 -11 -15 0 -8 -4 -15 -10 -15 -5 0 -10 -7 -10
-14 0 -8 -11 -36 -25 -62 -14 -26 -25 -53 -25 -60 0 -8 -5 -14 -12 -14 -6 0
-8 -3 -5 -7 4 -3 3 -11 -2 -17 -4 -6 -11 -19 -14 -29 -7 -18 11 -18 93 3 19 5
82 18 140 30 58 12 114 24 125 26 11 3 40 9 65 14 25 5 56 12 70 15 14 3 41 8
60 11 19 3 40 10 46 15 6 5 13 7 16 4 4 -5 124 19 233 46 22 5 51 12 65 14 22
4 77 15 150 30 14 3 37 7 52 10 15 2 31 6 35 8 4 3 24 8 43 11 59 10 90 16
225 46 72 16 146 31 165 35 39 6 65 13 65 15 0 2 43 10 75 14 14 2 26 5 28 6
1 1 11 4 22 5 11 1 21 3 23 5 1 1 9 3 17 5 8 1 42 8 75 15 33 7 69 14 80 16
11 1 20 3 20 4 0 2 18 6 70 15 48 8 54 9 80 18 11 3 33 8 49 11 16 3 55 11 85
17 31 6 63 13 71 14 8 2 15 4 15 5 0 3 108 21 138 23 9 1 17 4 17 7 0 4 6 7
13 7 12 1 32 4 121 23 72 15 80 16 191 40 55 12 109 23 120 26 34 7 69 14 95
20 23 5 46 10 90 18 8 1 26 5 40 9 14 4 36 9 50 11 14 3 36 8 50 11 14 3 36 8
50 10 14 2 48 9 75 15 28 6 57 13 65 15 8 2 62 13 120 25 58 12 114 24 125 26
22 4 58 12 95 20 42 9 64 14 90 18 14 2 43 9 65 15 22 6 58 13 80 16 22 4 49
9 60 12 23 8 29 9 75 18 19 3 87 17 150 31 63 14 124 27 135 29 11 2 20 4 20
5 0 1 11 3 25 4 14 2 34 6 45 9 11 3 36 9 55 12 19 3 53 10 75 16 22 5 47 11
56 13 18 5 81 16 114 21 11 2 20 4 20 5 0 1 10 3 23 6 12 2 64 13 115 24 91
20 114 21 3111 20 1660 0 3021 -2 3023 -4 3 -2 -11 -35 -31 -73 -19 -37 -36
-75 -38 -83 -2 -8 -6 -17 -9 -20 -9 -9 -53 -105 -51 -112 1 -5 -3 -8 -9 -8 -5
0 -7 -4 -4 -10 3 -5 2 -10 -3 -10 -5 0 -13 -10 -17 -22 -4 -13 -8 -25 -9 -28
-1 -3 -24 -50 -51 -105 -27 -55 -49 -102 -50 -105 -1 -5 -102 -214 -156 -322
-15 -32 -26 -58 -23 -58 3 0 -2 -7 -10 -16 -9 -8 -16 -24 -16 -35 0 -10 -4
-19 -9 -19 -5 0 -12 -11 -15 -25 l-6 -25 -133 0 c-72 0 -1432 -1 -3020 -1
-1737 0 -2907 -3 -2935 -9 -26 -5 -58 -12 -72 -15 -14 -3 -38 -8 -55 -10 -16
-3 -38 -8 -47 -11 -17 -5 -44 -11 -93 -20 -16 -3 -58 -11 -93 -19 -34 -8 -77
-17 -95 -20 -17 -4 -52 -11 -77 -16 -25 -6 -54 -12 -65 -15 -11 -2 -33 -7 -50
-11 -16 -3 -37 -7 -45 -8 -8 -2 -35 -7 -60 -13 -25 -6 -61 -14 -80 -17 -19 -3
-51 -10 -70 -15 -19 -5 -48 -11 -65 -14 -48 -7 -278 -57 -284 -60 -3 -2 -28
-7 -55 -10 -27 -4 -57 -11 -66 -16 -10 -5 -19 -7 -22 -5 -2 2 -27 -2 -56 -10
-29 -7 -56 -14 -60 -15 -4 0 -16 -3 -27 -5 -36 -8 -80 -16 -105 -20 -14 -2
-25 -4 -25 -5 0 -2 -23 -7 -70 -15 -22 -4 -69 -14 -105 -22 -74 -17 -106 -24
-135 -28 -11 -1 -38 -7 -60 -13 -22 -6 -53 -14 -70 -16 -16 -3 -40 -8 -52 -11
-13 -3 -33 -7 -45 -10 -13 -3 -36 -7 -53 -10 -25 -5 -77 -15 -95 -20 -5 -2
-61 -13 -90 -19 -8 -2 -34 -7 -58 -11 -23 -4 -45 -12 -48 -16 -3 -5 -9 -7 -14
-4 -5 3 -28 1 -52 -4 -24 -6 -54 -12 -68 -15 -48 -10 -225 -48 -245 -52 -11
-3 -31 -7 -45 -10 -14 -2 -36 -7 -50 -10 -38 -9 -73 -16 -90 -19 -27 -3 -175
-36 -190 -42 -8 -3 -24 -7 -35 -8 -41 -4 -110 -17 -117 -21 -4 -3 -18 -7 -30
-9 -13 -3 -57 -12 -98 -20 -88 -18 -116 -23 -150 -30 -14 -3 -36 -7 -50 -11
-14 -3 -34 -7 -45 -9 -11 -2 -20 -4 -20 -5 0 -2 -13 -5 -60 -13 -16 -3 -41 -8
-55 -11 -42 -9 -112 -23 -175 -36 -33 -7 -67 -14 -75 -17 -8 -4 -24 -7 -35 -8
-30 -3 -136 -25 -170 -35 -16 -5 -43 -12 -60 -15 -16 -2 -41 -7 -55 -10 -14
-3 -40 -8 -59 -10 -18 -3 -38 -8 -45 -12 -6 -4 -20 -8 -31 -8 -11 -1 -45 -7
-75 -13 -30 -7 -66 -14 -80 -17 -28 -5 -65 -13 -95 -20 -103 -24 -151 -33
-157 -29 -4 3 -8 1 -8 -5 0 -5 24 -17 53 -27 28 -9 56 -19 62 -22 5 -3 16 -7
25 -8 8 -1 87 -28 175 -59 88 -32 172 -60 188 -63 15 -2 27 -8 27 -11 0 -4 6
-8 13 -8 15 -1 66 -18 232 -77 139 -50 135 -49 180 -61 17 -4 35 -10 40 -14 6
-3 15 -6 20 -8 6 -1 69 -23 140 -48 72 -26 142 -49 157 -52 16 -3 28 -8 28
-12 0 -4 10 -8 22 -8 13 -1 32 -6 43 -12 19 -9 45 -18 55 -19 3 0 19 -6 35
-12 17 -7 89 -32 160 -57 72 -24 137 -47 145 -50 8 -3 116 -40 240 -83 124
-43 232 -80 240 -83 8 -3 44 -15 80 -27 36 -12 74 -25 85 -30 16 -7 116 -41
135 -45 3 -1 14 -5 25 -9 75 -29 93 -34 99 -29 3 4 6 1 6 -5 0 -7 3 -11 8 -10
9 3 165 -48 210 -69 18 -8 43 -16 55 -19 12 -2 54 -15 92 -30 39 -14 79 -28
90 -31 11 -2 29 -9 40 -13 11 -5 67 -25 125 -44 58 -19 137 -47 175 -61 39
-15 77 -28 85 -30 8 -2 16 -4 18 -5 1 -2 5 -3 10 -4 10 -2 83 -26 102 -33 8
-3 69 -24 135 -47 l120 -41 3018 0 c1659 0 3017 -1 3017 -3 0 -2 -14 -34 -32
-71 -18 -36 -33 -68 -33 -71 -1 -3 -43 -90 -94 -195 -51 -104 -94 -194 -95
-200 -1 -5 -28 -61 -59 -122 -32 -62 -54 -113 -50 -113 5 0 3 -4 -3 -8 -12 -7
-44 -74 -50 -102 -2 -8 -8 -16 -13 -18 -6 -2 -11 -8 -11 -14 0 -25 -71 -157
-87 -161 -10 -3 -1377 -4 -3038 -2 -2318 2 -3028 5 -3055 14 -19 7 -46 14 -58
17 -13 3 -49 12 -80 20 -32 8 -68 17 -82 20 -13 3 -29 9 -36 15 -6 5 -13 7
-16 4 -2 -3 -20 0 -39 6 -19 5 -41 12 -50 14 -8 2 -38 10 -65 18 -27 8 -55 12
-61 10 -7 -3 -13 0 -13 5 0 5 -19 13 -42 17 -24 4 -49 9 -55 11 -7 2 -21 6
-30 8 -10 3 -18 5 -18 6 0 1 -9 3 -20 5 -27 5 -107 26 -125 32 -8 4 -21 7 -29
9 -8 1 -25 5 -38 9 -13 3 -25 6 -28 6 -2 0 -19 5 -37 10 -50 15 -170 47 -198
53 -14 2 -49 12 -79 21 -30 9 -62 18 -70 20 -9 2 -79 20 -155 40 -77 20 -151
39 -165 42 -13 2 -29 7 -35 10 -5 4 -26 10 -45 14 -20 4 -72 17 -116 29 -44
11 -88 22 -98 25 -10 2 -27 7 -37 10 -10 3 -27 8 -37 10 -10 2 -70 18 -133 35
-63 18 -125 33 -137 36 -12 2 -34 9 -48 14 -14 5 -25 7 -25 4 0 -4 -7 -1 -15
6 -8 7 -15 10 -15 7 0 -3 -15 -1 -32 4 -18 6 -44 12 -58 15 -14 3 -38 9 -55
14 -36 12 -292 81 -314 85 -9 2 -36 8 -61 15 -25 7 -46 12 -47 12 -2 -1 -33 8
-70 19 -65 19 -81 22 -140 35 -15 3 -31 8 -37 11 -5 4 -26 10 -45 14 -20 4
-61 15 -91 24 -30 9 -66 18 -80 21 -44 8 -55 11 -70 17 -8 3 -28 9 -45 13 -16
4 -34 8 -40 10 -5 2 -19 5 -30 7 -11 3 -47 12 -80 21 -33 9 -112 30 -175 47
-63 16 -124 32 -135 35 -11 4 -28 7 -37 7 -10 1 -18 6 -18 11 0 5 -3 7 -6 3
-3 -3 -16 -2 -29 3 -20 8 -25 5 -34 -18 -5 -15 -17 -38 -25 -52 -8 -14 -25
-47 -37 -75 -12 -27 -59 -128 -105 -224 -46 -95 -84 -175 -84 -177 0 -2 -25
-54 -55 -115 -30 -61 -55 -117 -55 -125 0 -8 -4 -14 -10 -14 -5 0 -10 -4 -10
-9 0 -6 -34 -80 -75 -166 -41 -86 -75 -161 -75 -166 0 -5 -5 -9 -12 -9 -6 0
-9 -3 -6 -6 4 -3 -6 -31 -22 -62 -15 -31 -47 -97 -70 -147 -23 -49 -66 -139
-95 -200 -101 -210 -177 -370 -202 -425 -13 -30 -29 -62 -34 -70 -5 -8 -12
-22 -16 -30 -3 -8 -28 -62 -56 -120 -27 -58 -60 -130 -74 -160 -14 -30 -28
-57 -32 -60 -3 -3 -7 -10 -8 -17 -2 -7 -28 -64 -58 -126 -30 -63 -55 -120 -55
-126 0 -6 -4 -11 -10 -11 -5 0 -10 -9 -10 -20 0 -11 -4 -20 -10 -20 -5 0 -9
-3 -8 -7 1 -5 -19 -53 -45 -107 -26 -54 -47 -102 -47 -105 0 -3 -9 -17 -19
-30 -10 -14 -17 -31 -14 -38 3 -7 0 -13 -6 -13 -6 0 -11 -4 -11 -9 0 -5 -29
-69 -63 -142 -35 -74 -83 -174 -107 -224 -23 -49 -45 -93 -47 -98 -5 -8 11160
-3 11247 6 30 3 98 8 150 12 183 12 215 15 256 19 23 3 75 8 115 11 41 3 88 8
104 11 17 3 53 7 80 10 70 6 115 11 150 17 17 3 50 8 75 12 25 3 63 8 85 12
22 3 49 7 60 8 11 2 49 8 85 15 36 7 76 13 90 15 14 1 39 5 55 9 17 3 41 8 55
11 66 13 127 25 150 30 14 3 39 8 55 11 17 3 48 9 70 15 22 5 51 11 65 14 14
2 81 18 150 35 69 18 134 34 145 37 38 8 50 11 50 13 0 1 8 4 50 14 11 2 32 9
48 15 15 6 27 9 27 6 0 -2 16 3 35 11 19 8 35 12 35 9 0 -3 14 1 30 10 17 9
30 14 30 11 0 -7 466 150 515 173 11 6 81 35 155 65 157 63 266 113 440 200
173 87 399 211 410 226 3 4 16 13 30 20 24 12 280 181 303 200 7 5 60 47 118
92 162 127 212 171 369 329 138 140 162 166 245 269 20 25 44 54 53 66 35 42
62 84 62 94 0 5 4 10 9 10 11 0 155 239 198 330 40 82 139 292 187 392 20 42
36 79 36 83 0 4 9 19 19 33 10 15 19 29 18 32 0 3 10 28 23 55 13 28 22 53 22
58 -1 4 2 7 8 7 5 0 10 4 10 10 0 5 21 53 46 107 111 236 128 271 154 325 16
31 26 59 22 62 -3 3 0 6 6 6 6 0 14 9 17 21 4 12 36 82 72 157 36 76 83 175
105 222 22 47 49 105 60 129 24 50 23 51 -57 77 -27 8 -57 18 -65 21 -8 4 -17
7 -20 8 -21 5 -207 69 -215 74 -5 3 -15 6 -21 7 -17 3 -196 65 -229 79 -16 8
-33 11 -37 9 -4 -3 -8 0 -8 7 0 7 -3 10 -6 7 -3 -4 -48 9 -101 28 -52 19 -99
31 -104 28 -5 -3 -9 -1 -9 3 0 7 -141 60 -180 69 -3 0 -12 3 -20 7 -17 7 -249
87 -265 91 -5 2 -17 6 -25 9 -8 3 -49 17 -90 30 -80 26 -335 114 -360 124 -8
3 -23 8 -33 10 -10 1 -31 10 -47 18 -17 9 -32 15 -35 15 -35 -1 -30 11 7 16
13 2 33 5 46 8 30 8 54 13 142 31 97 20 102 21 187 39 40 9 85 18 100 21 16 3
38 7 51 10 12 3 32 7 45 10 12 3 36 8 52 11 17 3 50 10 75 15 72 17 83 19 120
25 19 3 44 8 55 12 11 3 22 6 25 7 3 0 34 7 70 14 36 6 74 14 85 16 11 2 20 4
20 6 0 1 9 3 20 4 11 2 36 6 55 10 19 4 41 8 48 8 6 0 12 3 12 6 0 3 16 7 36
8 20 1 41 7 48 12 7 6 15 8 18 6 3 -3 25 -1 49 4 24 5 58 12 74 15 17 3 39 8
50 11 62 14 214 47 235 50 14 2 25 4 25 5 0 1 10 3 23 6 12 2 64 13 115 25 51
12 103 22 117 23 14 0 31 5 38 9 6 5 12 6 12 2 0 -3 15 1 34 9 19 8 36 12 39
10 2 -3 56 7 118 20 63 14 125 28 139 30 14 3 36 7 50 10 61 14 95 20 101 19
3 -1 28 44 54 100 26 56 71 152 100 212 89 187 174 367 243 515 9 19 20 38 25
41 5 3 9 10 9 15 1 15 17 55 62 149 24 50 61 128 84 175 22 47 55 117 73 155
18 39 34 72 34 75 1 3 31 66 67 140 36 74 65 138 66 143 1 4 9 22 19 40 9 17
16 35 15 40 -1 4 2 7 8 7 5 0 10 5 10 11 0 5 21 54 46 107 73 152 94 200 94
211 0 6 4 11 9 11 5 0 13 10 16 23 4 12 24 56 43 97 20 41 37 77 37 80 1 3 21
46 45 95 82 171 124 260 125 265 1 3 22 49 48 102 26 54 47 102 47 108 0 5 5
10 10 10 6 0 10 5 10 11 0 12 22 60 124 274 40 83 81 171 92 197 10 27 22 48
27 48 4 0 7 5 7 12 0 11 43 109 61 138 5 8 12 22 15 30 6 15 22 50 112 240 27
58 64 137 82 175 18 39 37 78 42 88 9 18 -153 18 -4856 16 -2676 -1 -4867 -3
-4868 -5z"/>
</g>
</svg>
