<svg width="1920" height="236" viewBox="0 0 1920 236" fill="none" xmlns="http://www.w3.org/2000/svg">
<rect x="-35.6372" y="0.913086" width="1974" height="60" transform="rotate(5.09254 -35.6372 0.913086)" fill="#0178F3"/>
<path d="M499.083 85.0017L499.205 83.6391L500.011 83.711C500.31 83.7377 500.538 83.6857 500.694 83.555C500.863 83.4135 501.045 83.2007 501.239 82.9168L501.794 81.9544L497.336 71.9612L499.111 72.1193L502.676 80.3704L506.964 72.8192L508.667 72.9709L502.407 83.798C502.096 84.3125 501.781 84.6699 501.462 84.8704C501.155 85.0719 500.745 85.1498 500.231 85.104L499.083 85.0017ZM520.25 74.0032L519.116 86.7328L517.502 86.589L518.018 80.7979L511.008 80.1732L510.492 85.9642L508.878 85.8204L510.013 73.0909L511.626 73.2347L511.136 78.7389L518.146 79.3636L518.637 73.8594L520.25 74.0032ZM522.257 87.0127L523.392 74.2832L525.005 74.427L524.071 84.9154L532.374 75.0836L533.88 75.2178L532.746 87.9474L531.132 87.8036L532.049 77.5124L523.853 87.1549L522.257 87.0127ZM535.877 88.2264L537.011 75.4969L538.625 75.6407L538.134 81.1449L539.838 81.2967L544.524 76.1664L546.388 76.3325L541.105 82.0783L545.577 89.0908L543.604 88.9151L539.743 82.77L538.003 82.6151L537.491 88.3702L535.877 88.2264ZM552.562 76.8827L553.925 77.0042L557.99 90.1971L556.269 90.0437L555.095 86.1803L549.752 85.7041L547.932 89.3007L546.211 89.1473L552.562 76.8827ZM554.848 84.8933L553.077 78.8081L550.187 84.4779L554.848 84.8933ZM568.115 91.0994L569.122 79.8042L564.371 79.3808L564.074 81.9024C563.86 83.6302 563.6 85.0588 563.294 86.1881C563.002 87.3066 562.641 88.178 562.212 88.8023C561.796 89.4158 561.307 89.8361 560.744 90.063C560.182 90.29 559.53 90.3705 558.789 90.3044L558.915 88.8881C559.37 88.9285 559.78 88.8507 560.147 88.6545C560.514 88.4583 560.842 88.0899 561.131 87.5494C561.433 86.9981 561.701 86.2208 561.935 85.2176C562.169 84.2144 562.38 82.9261 562.569 81.3526L562.993 77.8123L570.863 78.5137L569.729 91.2432L568.115 91.0994ZM572.785 91.5156L573.92 78.786L575.533 78.9298L575.104 83.7527L578.152 84.0243C579.084 84.1074 579.846 84.344 580.438 84.7341C581.03 85.1122 581.455 85.6139 581.713 86.2392C581.983 86.8537 582.084 87.5553 582.013 88.3442C581.947 89.0853 581.732 89.7467 581.367 90.3286C581.003 90.8986 580.5 91.3297 579.86 91.622C579.219 91.9143 578.451 92.0205 577.554 91.9406L572.785 91.5156ZM574.519 90.3147L577.459 90.5768C578.093 90.6332 578.617 90.5595 579.033 90.3556C579.45 90.1397 579.765 89.8426 579.98 89.4641C580.195 89.0737 580.323 88.6514 580.364 88.1972C580.404 87.743 580.358 87.3112 580.226 86.9019C580.106 86.4936 579.859 86.1523 579.486 85.8781C579.114 85.592 578.587 85.4186 577.906 85.3578L574.984 85.0974L574.519 90.3147ZM595.188 80.6814L594.053 93.4109L592.44 93.2671L592.956 87.4761L585.946 86.8513L585.429 92.6424L583.816 92.4986L584.95 79.769L586.564 79.9128L586.073 85.417L593.084 86.0418L593.574 80.5376L595.188 80.6814ZM602.112 81.2984L603.475 81.4199L607.54 94.6128L605.818 94.4594L604.645 90.596L599.302 90.1198L597.482 93.7164L595.76 93.563L602.112 81.2984ZM604.398 89.309L602.627 83.2238L599.737 88.8936L604.398 89.309ZM608.88 94.7322L612.67 89.7208C611.817 89.416 611.176 88.913 610.744 88.212C610.325 87.5119 610.155 86.7077 610.236 85.7993C610.299 85.0941 610.529 84.4761 610.926 83.9452C611.322 83.4143 611.846 83.0092 612.498 82.73C613.161 82.4517 613.917 82.3504 614.766 82.4261L619.033 82.8063L617.898 95.5359L616.285 95.3921L616.74 90.2823L614.768 90.1066C614.696 90.1002 614.618 90.0933 614.535 90.0858C614.463 90.0794 614.391 90.073 614.32 90.0666L610.745 94.8984L608.88 94.7322ZM614.337 88.6586L616.865 88.8839L617.294 84.061L614.838 83.8421C614.312 83.7952 613.832 83.8488 613.396 84.0027C612.961 84.1567 612.608 84.3964 612.338 84.7217C612.08 85.0481 611.929 85.4563 611.886 85.9463C611.842 86.4364 611.905 86.8757 612.075 87.2644C612.258 87.6541 612.536 87.9741 612.912 88.2244C613.3 88.4638 613.775 88.6085 614.337 88.6586ZM625.487 96.2122L626.621 83.4826L628.235 83.6264L627.744 89.1306L629.447 89.2824L634.133 84.1521L635.998 84.3182L630.715 90.064L635.186 97.0765L633.214 96.9008L629.352 90.7557L627.613 90.6008L627.1 96.3559L625.487 96.2122ZM645.592 98.0038L646.598 86.7086L641.847 86.2852L641.55 88.8068C641.336 90.5346 641.076 91.9632 640.771 93.0925C640.478 94.211 640.117 95.0824 639.688 95.7068C639.272 96.3202 638.783 96.7405 638.221 96.9674C637.658 97.1944 637.006 97.2749 636.265 97.2089L636.392 95.7925C636.846 95.8329 637.256 95.7551 637.623 95.5589C637.99 95.3627 638.318 94.9943 638.607 94.4538C638.909 93.9025 639.177 93.1252 639.411 92.122C639.645 91.1188 639.856 89.8305 640.045 88.257L640.469 84.7167L648.34 85.4181L647.205 98.1476L645.592 98.0038ZM659.881 99.3676C658.818 99.2728 657.895 98.9496 657.113 98.398C656.33 97.8464 655.727 97.118 655.301 96.2126C654.877 95.2954 654.675 94.2533 654.694 93.0864L652.382 92.8803L651.875 98.5638L650.262 98.42L651.396 85.6904L653.01 85.8342L652.509 91.446L654.84 91.6537C655.041 90.4789 655.437 89.4901 656.026 88.6873C656.616 87.8844 657.343 87.2927 658.208 86.912C659.087 86.5204 660.034 86.3699 661.05 86.4604C662.221 86.5648 663.219 86.9308 664.042 87.5583C664.866 88.1859 665.479 89.0116 665.881 90.0354C666.285 91.0472 666.431 92.1866 666.318 93.4536C666.196 94.8162 665.836 95.9527 665.237 96.8631C664.638 97.7735 663.873 98.4463 662.943 98.8815C662.025 99.3057 661.005 99.4678 659.881 99.3676ZM660.029 97.917C660.901 97.9948 661.668 97.8462 662.327 97.4713C662.987 97.0964 663.518 96.5473 663.92 95.8241C664.334 95.102 664.584 94.2569 664.67 93.2887C664.762 92.2608 664.661 91.3603 664.368 90.5873C664.076 89.8143 663.631 89.1963 663.034 88.7335C662.448 88.2717 661.737 88.0035 660.901 87.929C660.052 87.8533 659.298 88.003 658.638 88.3779C657.991 88.7419 657.467 89.2855 657.065 90.0087C656.676 90.721 656.438 91.5672 656.351 92.5473C656.26 93.5633 656.349 94.4627 656.616 95.2456C656.896 96.0295 657.328 96.6523 657.914 97.1141C658.499 97.5759 659.204 97.8435 660.029 97.917ZM667.998 100.001L669.132 87.271L670.746 87.4148L669.739 98.7101L674.508 99.1351L675.515 87.8399L677.129 87.9836L676.122 99.2789L680.891 99.7039L681.898 88.4087L683.511 88.5525L682.377 101.282L667.998 100.001ZM685.419 101.553L686.554 88.8236L688.167 88.9674L687.677 94.4715L689.38 94.6233L694.066 89.493L695.93 89.6592L690.647 95.4049L695.119 102.418L693.146 102.242L689.285 96.0967L687.546 95.9417L687.033 101.697L685.419 101.553ZM702.104 90.2094L703.467 90.3308L707.532 103.524L705.811 103.37L704.637 99.5069L699.294 99.0308L697.474 102.627L695.753 102.474L702.104 90.2094ZM704.39 98.2199L702.62 92.1347L699.729 97.8045L704.39 98.2199ZM712.956 97.5014C713.025 96.7245 713.224 95.9772 713.553 95.2596C713.895 94.5311 714.35 93.8849 714.919 93.3211C715.5 92.7465 716.183 92.3134 716.968 92.0219C717.754 91.7185 718.625 91.6094 719.582 91.6946C720.717 91.7958 721.668 92.1456 722.434 92.7439C723.201 93.3303 723.745 94.0475 724.067 94.8954L722.721 95.6067C722.518 95.0465 722.233 94.5934 721.866 94.2475C721.512 93.8907 721.114 93.6263 720.672 93.4543C720.241 93.2834 719.811 93.1788 719.38 93.1405C718.675 93.0776 718.035 93.1651 717.459 93.403C716.896 93.6419 716.408 93.9839 715.995 94.429C715.581 94.8741 715.253 95.3869 715.008 95.9675C714.777 96.5372 714.634 97.1209 714.581 97.7185C714.522 98.3759 714.574 99.019 714.734 99.6478C714.907 100.278 715.17 100.843 715.523 101.344C715.876 101.846 716.309 102.258 716.822 102.581C717.336 102.904 717.909 103.093 718.543 103.15C718.985 103.189 719.446 103.152 719.926 103.038C720.406 102.924 720.864 102.724 721.299 102.437C721.735 102.139 722.096 101.737 722.382 101.233L723.661 102.088C723.342 102.698 722.887 103.199 722.298 103.593C721.709 103.986 721.063 104.266 720.362 104.432C719.672 104.6 718.999 104.654 718.341 104.595C717.469 104.518 716.685 104.261 715.989 103.826C715.294 103.378 714.705 102.82 714.222 102.15C713.753 101.47 713.403 100.728 713.174 99.9243C712.957 99.1099 712.885 98.3022 712.956 97.5014ZM739.605 94.997L735.212 94.6056L734.206 105.901L732.592 105.757L733.599 94.4618L729.206 94.0703L729.334 92.636L739.733 93.5627L739.605 94.997ZM750.495 104.045C750.437 104.703 750.218 105.262 749.84 105.722C749.461 106.182 748.973 106.524 748.375 106.748C747.789 106.973 747.155 107.055 746.474 106.994L740.432 106.456L741.566 93.7261L747.895 94.2901C748.493 94.3433 748.992 94.5505 749.394 94.9116C749.808 95.2618 750.107 95.698 750.289 96.2202C750.484 96.7316 750.558 97.2562 750.51 97.7941C750.455 98.4156 750.241 98.9869 749.87 99.508C749.511 100.018 749.027 100.379 748.418 100.589C749.128 100.869 749.666 101.321 750.032 101.944C750.411 102.556 750.566 103.257 750.495 104.045ZM748.889 103.613C748.924 103.219 748.867 102.846 748.718 102.496C748.58 102.146 748.371 101.856 748.09 101.626C747.822 101.398 747.496 101.266 747.114 101.232L742.56 100.826L742.17 105.201L746.598 105.596C746.993 105.631 747.354 105.561 747.683 105.385C748.024 105.211 748.298 104.97 748.507 104.663C748.728 104.346 748.855 103.996 748.889 103.613ZM743.055 95.2683L742.676 99.5175L746.728 99.8786C747.111 99.9127 747.454 99.8469 747.758 99.6812C748.074 99.5166 748.33 99.2804 748.526 98.9726C748.734 98.6658 748.855 98.3212 748.889 97.9387C748.925 97.5323 748.873 97.1663 748.734 96.8406C748.607 96.5041 748.409 96.2274 748.139 96.0106C747.881 95.7948 747.573 95.671 747.214 95.639L743.055 95.2683ZM757.616 108.077C756.719 107.997 755.922 107.746 755.225 107.322C754.528 106.899 753.938 106.358 753.454 105.701C752.984 105.032 752.639 104.303 752.42 103.512C752.203 102.71 752.13 101.902 752.203 101.089C752.278 100.241 752.499 99.4472 752.866 98.7088C753.246 97.9596 753.732 97.3101 754.323 96.7604C754.927 96.1999 755.609 95.7787 756.369 95.4971C757.13 95.2035 757.941 95.095 758.802 95.1717C759.698 95.2516 760.495 95.5093 761.191 95.9448C761.887 96.3803 762.47 96.9323 762.941 97.6007C763.411 98.2691 763.756 98.9986 763.974 99.7891C764.193 100.58 764.267 101.375 764.195 102.176C764.12 103.025 763.898 103.824 763.53 104.575C763.163 105.313 762.677 105.962 762.073 106.523C761.482 107.073 760.806 107.488 760.046 107.77C759.286 108.052 758.476 108.154 757.616 108.077ZM753.834 101.235C753.777 101.88 753.822 102.517 753.971 103.144C754.133 103.761 754.384 104.32 754.725 104.82C755.066 105.32 755.493 105.732 756.007 106.055C756.52 106.377 757.106 106.568 757.763 106.627C758.444 106.687 759.067 106.598 759.63 106.359C760.193 106.12 760.682 105.778 761.095 105.333C761.52 104.889 761.855 104.377 762.099 103.796C762.356 103.217 762.511 102.622 762.565 102.013C762.623 101.367 762.571 100.736 762.409 100.119C762.259 99.5037 762.008 98.9452 761.655 98.4439C761.315 97.9317 760.888 97.5201 760.373 97.2092C759.872 96.8875 759.298 96.6978 758.653 96.6403C757.972 96.5796 757.349 96.6687 756.786 96.9076C756.223 97.1346 755.73 97.4701 755.305 97.9141C754.891 98.3592 754.557 98.8715 754.3 99.451C754.045 100.019 753.889 100.613 753.834 101.235ZM765.961 108.731L767.096 96.0012L768.709 96.145L767.775 106.633L776.078 96.8017L777.584 96.9359L776.45 109.665L774.836 109.522L775.753 99.2304L767.557 108.873L765.961 108.731ZM790.589 110.926L791.455 101.208L786.594 108.311L785.608 108.223L782.061 100.371L781.195 110.088L779.581 109.945L780.715 97.2149L782.419 97.3667L786.29 106.043L791.652 98.1896L793.337 98.3398L792.203 111.069L790.589 110.926ZM799.876 111.753L801.01 99.0235L802.624 99.1673L801.689 109.656L809.993 99.824L811.499 99.9582L810.364 112.688L808.751 112.544L809.668 102.253L801.471 111.895L799.876 111.753ZM824.504 113.948L825.37 104.23L820.508 111.333L819.522 111.245L815.975 103.393L815.109 113.111L813.496 112.967L814.63 100.237L816.333 100.389L820.204 109.065L825.567 101.212L827.252 101.362L826.117 114.092L824.504 113.948ZM837.935 113.699L837.808 115.133L829.166 114.363L830.3 101.634L838.781 102.39L838.653 103.824L831.786 103.212L831.419 107.336L837.389 107.868L837.269 109.212L831.299 108.68L830.907 113.073L837.935 113.699ZM851.393 103.513L850.259 116.243L848.645 116.099L849.161 110.308L842.151 109.683L841.635 115.475L840.021 115.331L841.156 102.601L842.769 102.745L842.279 108.249L849.289 108.874L849.779 103.37L851.393 103.513ZM862.08 115.851L861.952 117.285L853.31 116.515L854.445 103.785L862.925 104.541L862.797 105.975L855.931 105.364L855.563 109.487L861.533 110.019L861.414 111.364L855.443 110.832L855.052 115.224L862.08 115.851ZM875.174 118.463L876.04 108.746L871.179 115.848L870.192 115.761L866.645 107.909L865.779 117.626L864.166 117.482L865.3 104.753L867.003 104.905L870.875 113.58L876.237 105.727L877.922 105.878L876.788 118.607L875.174 118.463Z" fill="#F5F5F5"/>
<path d="M1014.92 128.549L1016.21 115.836L1017.83 116L1017.26 121.497L1018.97 121.671L1023.72 116.602L1025.58 116.792L1020.22 122.469L1024.6 129.539L1022.63 129.337L1018.85 123.143L1017.11 122.966L1016.53 128.714L1014.92 128.549ZM1035 130.6L1036.15 119.318L1031.4 118.834L1031.07 121.351C1030.84 123.076 1030.56 124.501 1030.24 125.627C1029.93 126.741 1029.56 127.608 1029.12 128.227C1028.7 128.835 1028.2 129.249 1027.64 129.468C1027.07 129.688 1026.42 129.76 1025.68 129.685L1025.83 128.27C1026.28 128.316 1026.69 128.244 1027.06 128.052C1027.43 127.861 1027.76 127.497 1028.06 126.96C1028.37 126.413 1028.65 125.639 1028.89 124.639C1029.14 123.639 1029.37 122.353 1029.58 120.782L1030.04 117.248L1037.91 118.05L1036.61 130.764L1035 130.6ZM1049.27 132.147C1048.2 132.039 1047.29 131.704 1046.51 131.142C1045.74 130.58 1045.14 129.844 1044.73 128.933C1044.32 128.011 1044.13 126.966 1044.16 125.8L1041.85 125.564L1041.27 131.24L1039.66 131.076L1040.96 118.362L1042.57 118.526L1042 124.131L1044.33 124.369C1044.54 123.197 1044.95 122.213 1045.55 121.418C1046.15 120.623 1046.88 120.041 1047.75 119.671C1048.64 119.291 1049.59 119.152 1050.6 119.256C1051.77 119.375 1052.76 119.754 1053.58 120.392C1054.39 121.03 1055 121.864 1055.39 122.893C1055.78 123.91 1055.91 125.051 1055.78 126.316C1055.64 127.677 1055.27 128.809 1054.65 129.712C1054.04 130.614 1053.27 131.277 1052.33 131.7C1051.41 132.113 1050.39 132.262 1049.27 132.147ZM1049.43 130.698C1050.3 130.787 1051.07 130.649 1051.74 130.282C1052.4 129.916 1052.94 129.374 1053.35 128.656C1053.77 127.939 1054.03 127.097 1054.13 126.13C1054.24 125.104 1054.15 124.202 1053.87 123.425C1053.58 122.648 1053.15 122.025 1052.56 121.554C1051.98 121.085 1051.27 120.808 1050.43 120.723C1049.59 120.636 1048.83 120.776 1048.17 121.142C1047.51 121.498 1046.98 122.035 1046.57 122.753C1046.17 123.46 1045.92 124.303 1045.82 125.282C1045.72 126.297 1045.8 127.197 1046.06 127.983C1046.33 128.771 1046.75 129.399 1047.33 129.868C1047.91 130.338 1048.61 130.614 1049.43 130.698ZM1057.37 132.884L1058.67 120.171L1060.28 120.335L1059.13 131.616L1063.9 132.103L1065.05 120.821L1066.66 120.986L1065.51 132.267L1070.27 132.754L1071.42 121.472L1073.03 121.637L1071.74 134.351L1057.37 132.884ZM1074.77 134.661L1076.07 121.947L1077.68 122.112L1077.12 127.609L1078.82 127.783L1083.58 122.713L1085.44 122.903L1080.08 128.581L1084.46 135.65L1082.49 135.449L1078.71 129.255L1076.97 129.077L1076.39 134.825L1074.77 134.661ZM1086.53 135.861L1087.83 123.147L1089.44 123.312L1088.37 133.787L1096.8 124.063L1098.3 124.217L1097 136.931L1095.39 136.766L1096.44 126.487L1088.12 136.024L1086.53 135.861ZM1103.52 140.056L1103.91 136.188L1104.48 136.247C1104.82 136.281 1105.12 136.179 1105.4 135.942C1105.68 135.693 1105.94 135.286 1106.18 134.719C1106.42 134.14 1106.64 133.361 1106.85 132.381C1107.06 131.401 1107.26 130.186 1107.46 128.734L1107.91 125.198L1115.79 126.002L1114.64 137.283L1116.21 137.444L1115.82 141.312L1114.39 141.166L1114.63 138.731L1105.2 137.767L1104.95 140.202L1103.52 140.056ZM1106.63 136.466L1113.03 137.119L1114.03 127.27L1109.25 126.782L1108.96 129.086C1108.77 130.587 1108.57 131.838 1108.34 132.841C1108.12 133.844 1107.87 134.638 1107.59 135.225C1107.32 135.812 1107 136.226 1106.63 136.466ZM1126.63 139.955L1127.78 128.674L1123.04 128.189L1122.71 130.707C1122.47 132.432 1122.19 133.857 1121.87 134.982C1121.56 136.097 1121.19 136.964 1120.76 137.582C1120.33 138.191 1119.84 138.604 1119.27 138.824C1118.71 139.044 1118.05 139.116 1117.31 139.04L1117.46 137.626C1117.91 137.672 1118.32 137.599 1118.69 137.408C1119.06 137.217 1119.39 136.852 1119.69 136.316C1120 135.768 1120.28 134.995 1120.53 133.994C1120.77 132.994 1121 131.709 1121.21 130.138L1121.68 126.603L1129.54 127.406L1128.24 140.12L1126.63 139.955ZM1130.94 140.395L1134.79 135.433C1133.94 135.117 1133.31 134.606 1132.88 133.899C1132.47 133.194 1132.31 132.387 1132.41 131.48C1132.48 130.776 1132.72 130.161 1133.12 129.635C1133.52 129.109 1134.05 128.711 1134.71 128.44C1135.37 128.171 1136.13 128.079 1136.98 128.165L1141.24 128.601L1139.94 141.315L1138.33 141.15L1138.85 136.047L1136.88 135.845C1136.81 135.838 1136.73 135.83 1136.65 135.822C1136.58 135.814 1136.51 135.807 1136.43 135.8L1132.8 140.585L1130.94 140.395ZM1136.47 134.392L1138.99 134.65L1139.49 129.833L1137.03 129.582C1136.51 129.529 1136.03 129.576 1135.59 129.724C1135.15 129.873 1134.8 130.108 1134.52 130.43C1134.26 130.753 1134.1 131.159 1134.05 131.648C1134 132.138 1134.06 132.578 1134.23 132.969C1134.4 133.361 1134.68 133.684 1135.05 133.939C1135.44 134.184 1135.91 134.335 1136.47 134.392ZM1158.52 143.211L1159.51 133.505L1154.55 140.545L1153.57 140.444L1150.12 132.547L1149.13 142.253L1147.52 142.088L1148.82 129.374L1150.52 129.548L1154.28 138.273L1159.74 130.49L1161.43 130.662L1160.13 143.375L1158.52 143.211ZM1168.34 131.367L1169.7 131.506L1173.59 144.75L1171.88 144.575L1170.75 140.697L1165.42 140.152L1163.55 143.725L1161.83 143.549L1168.34 131.367ZM1170.52 139.407L1168.83 133.299L1165.87 138.931L1170.52 139.407ZM1183.71 145.783L1184.86 134.502L1180.11 134.017L1179.78 136.535C1179.55 138.26 1179.27 139.685 1178.95 140.81C1178.64 141.925 1178.27 142.791 1177.83 143.41C1177.41 144.018 1176.92 144.432 1176.35 144.652C1175.79 144.871 1175.13 144.944 1174.39 144.868L1174.54 143.453C1174.99 143.5 1175.4 143.427 1175.77 143.236C1176.14 143.044 1176.47 142.68 1176.77 142.143C1177.08 141.596 1177.36 140.822 1177.6 139.822C1177.85 138.822 1178.08 137.536 1178.29 135.966L1178.76 132.431L1186.62 133.234L1185.32 145.947L1183.71 145.783ZM1197.15 145.708L1197 147.14L1188.37 146.259L1189.67 133.545L1198.14 134.41L1197.99 135.843L1191.14 135.142L1190.71 139.261L1196.68 139.87L1196.54 141.213L1190.58 140.604L1190.13 144.991L1197.15 145.708ZM1210.74 135.696L1209.44 148.41L1207.83 148.245L1208.42 142.462L1201.42 141.747L1200.83 147.531L1199.21 147.366L1200.51 134.652L1202.12 134.817L1201.56 140.314L1208.56 141.029L1209.13 135.532L1210.74 135.696ZM1212.49 148.721L1213.78 136.007L1215.4 136.172L1214.9 140.989L1217.95 141.3C1218.88 141.395 1219.64 141.641 1220.23 142.039C1220.81 142.424 1221.23 142.932 1221.48 143.56C1221.74 144.178 1221.83 144.881 1221.75 145.669C1221.68 146.409 1221.45 147.068 1221.08 147.645C1220.71 148.21 1220.2 148.635 1219.56 148.919C1218.91 149.203 1218.15 149.299 1217.25 149.208L1212.49 148.721ZM1214.24 147.543L1217.17 147.843C1217.8 147.907 1218.33 147.84 1218.75 147.642C1219.17 147.431 1219.49 147.138 1219.71 146.762C1219.93 146.375 1220.06 145.954 1220.11 145.501C1220.15 145.047 1220.11 144.615 1219.99 144.204C1219.87 143.794 1219.63 143.449 1219.26 143.17C1218.89 142.88 1218.37 142.699 1217.69 142.63L1214.77 142.332L1214.24 147.543ZM1223.5 149.846L1224.8 137.132L1226.41 137.297L1225.85 142.794L1227.55 142.968L1232.3 137.898L1234.17 138.088L1228.81 143.766L1233.19 150.835L1231.22 150.634L1227.44 144.44L1225.7 144.262L1225.12 150.011L1223.5 149.846ZM1235.26 151.046L1236.56 138.332L1238.17 138.497L1237.1 148.972L1245.53 139.248L1247.03 139.402L1245.73 152.116L1244.12 151.951L1245.17 141.672L1236.85 151.209L1235.26 151.046ZM1250.52 139.758L1253.81 145.413L1258.18 140.54L1259.99 140.725L1254.59 146.687L1258.55 153.424L1256.74 153.239L1253.57 147.777L1249.36 152.486L1247.53 152.3L1252.78 146.502L1248.69 139.571L1250.52 139.758ZM1271.77 154.774L1272.32 149.456C1272.08 149.528 1271.8 149.603 1271.48 149.678C1271.16 149.754 1270.79 149.807 1270.38 149.837C1269.98 149.857 1269.54 149.842 1269.06 149.793C1267.65 149.649 1266.64 149.232 1266.02 148.542C1265.41 147.84 1265.17 146.802 1265.31 145.43L1265.73 141.311L1267.29 141.47L1266.89 145.41C1266.79 146.329 1266.94 147.026 1267.34 147.501C1267.75 147.965 1268.47 148.249 1269.48 148.352C1270.01 148.406 1270.54 148.4 1271.09 148.336C1271.65 148.273 1272.11 148.169 1272.46 148.024L1273.07 142.061L1274.65 142.221L1273.35 154.935L1271.77 154.774ZM1285.18 154.696L1285.03 156.128L1276.4 155.247L1277.7 142.533L1286.17 143.398L1286.02 144.83L1279.17 144.13L1278.75 148.249L1284.71 148.858L1284.57 150.201L1278.61 149.592L1278.16 153.979L1285.18 154.696ZM1298.24 157.477L1299.23 147.771L1294.28 154.81L1293.29 154.71L1289.85 146.813L1288.86 156.518L1287.24 156.354L1288.54 143.64L1290.24 143.814L1294 152.539L1299.47 144.755L1301.15 144.927L1299.85 157.641L1298.24 157.477ZM1302.9 157.952L1304.19 145.238L1314.01 146.24L1312.71 158.954L1311.1 158.789L1312.25 147.508L1305.66 146.835L1304.51 158.116L1302.9 157.952ZM1315.84 159.273L1317.14 146.559L1318.75 146.724L1317.68 157.2L1326.11 147.475L1327.61 147.629L1326.31 160.343L1324.7 160.178L1325.75 149.9L1317.43 159.436L1315.84 159.273ZM1334.59 161.278C1333.69 161.187 1332.9 160.925 1332.21 160.492C1331.52 160.06 1330.93 159.512 1330.46 158.848C1330 158.174 1329.66 157.44 1329.45 156.647C1329.25 155.841 1329.18 155.033 1329.27 154.221C1329.35 153.374 1329.58 152.583 1329.96 151.849C1330.35 151.105 1330.84 150.462 1331.44 149.92C1332.05 149.367 1332.74 148.955 1333.5 148.683C1334.27 148.399 1335.08 148.301 1335.94 148.389C1336.84 148.48 1337.63 148.748 1338.32 149.193C1339.01 149.637 1339.59 150.197 1340.05 150.871C1340.51 151.545 1340.85 152.279 1341.05 153.072C1341.26 153.866 1341.33 154.662 1341.24 155.462C1341.16 156.31 1340.93 157.106 1340.55 157.852C1340.17 158.585 1339.68 159.229 1339.07 159.781C1338.47 160.323 1337.79 160.73 1337.02 161.002C1336.26 161.274 1335.45 161.366 1334.59 161.278ZM1330.9 154.388C1330.83 155.032 1330.87 155.669 1331.01 156.299C1331.16 156.918 1331.41 157.479 1331.74 157.984C1332.08 158.489 1332.5 158.906 1333.01 159.235C1333.52 159.564 1334.1 159.763 1334.76 159.83C1335.44 159.899 1336.06 159.818 1336.63 159.586C1337.19 159.355 1337.68 159.019 1338.1 158.579C1338.53 158.141 1338.88 157.633 1339.13 157.055C1339.39 156.479 1339.55 155.887 1339.62 155.278C1339.68 154.633 1339.64 154.001 1339.48 153.383C1339.34 152.765 1339.1 152.203 1338.75 151.698C1338.42 151.181 1338 150.764 1337.49 150.447C1336.99 150.118 1336.42 149.921 1335.77 149.855C1335.09 149.786 1334.47 149.867 1333.9 150.099C1333.34 150.318 1332.84 150.648 1332.41 151.086C1331.99 151.526 1331.65 152.034 1331.39 152.61C1331.12 153.174 1330.96 153.767 1330.9 154.388ZM1354.36 150.36L1353.06 163.074L1351.45 162.909L1352.04 157.125L1345.04 156.41L1344.45 162.194L1342.84 162.03L1344.13 149.316L1345.75 149.48L1345.18 154.978L1352.19 155.693L1352.75 150.195L1354.36 150.36ZM1361.26 164.001C1360.36 163.91 1359.57 163.648 1358.88 163.215C1358.19 162.783 1357.6 162.235 1357.13 161.571C1356.66 160.897 1356.33 160.163 1356.12 159.369C1355.91 158.564 1355.85 157.756 1355.93 156.944C1356.02 156.096 1356.25 155.306 1356.63 154.572C1357.02 153.828 1357.51 153.185 1358.11 152.643C1358.72 152.09 1359.41 151.678 1360.17 151.406C1360.94 151.122 1361.75 151.024 1362.61 151.112C1363.5 151.203 1364.3 151.471 1364.99 151.915C1365.68 152.36 1366.25 152.919 1366.72 153.594C1367.18 154.268 1367.51 155.002 1367.72 155.795C1367.93 156.589 1367.99 157.385 1367.91 158.185C1367.83 159.033 1367.59 159.829 1367.22 160.575C1366.84 161.308 1366.35 161.951 1365.73 162.504C1365.14 163.046 1364.46 163.453 1363.69 163.725C1362.93 163.997 1362.12 164.089 1361.26 164.001ZM1357.56 157.11C1357.5 157.755 1357.54 158.392 1357.68 159.022C1357.83 159.64 1358.07 160.202 1358.41 160.707C1358.74 161.211 1359.17 161.628 1359.67 161.958C1360.18 162.287 1360.77 162.485 1361.42 162.552C1362.1 162.622 1362.73 162.541 1363.29 162.309C1363.86 162.077 1364.35 161.742 1364.77 161.302C1365.2 160.864 1365.54 160.356 1365.8 159.778C1366.06 159.202 1366.22 158.609 1366.28 158.001C1366.35 157.356 1366.31 156.724 1366.15 156.105C1366.01 155.488 1365.77 154.926 1365.42 154.42C1365.09 153.904 1364.66 153.487 1364.15 153.169C1363.66 152.841 1363.09 152.644 1362.44 152.578C1361.76 152.509 1361.14 152.59 1360.57 152.822C1360.01 153.041 1359.51 153.37 1359.08 153.809C1358.66 154.249 1358.32 154.757 1358.05 155.333C1357.79 155.897 1357.63 156.49 1357.56 157.11ZM1379.6 162.472C1379.53 163.129 1379.31 163.685 1378.92 164.14C1378.54 164.595 1378.04 164.931 1377.44 165.147C1376.85 165.364 1376.22 165.438 1375.54 165.369L1369.5 164.753L1370.8 152.039L1377.12 152.684C1377.72 152.745 1378.22 152.959 1378.61 153.325C1379.02 153.68 1379.32 154.12 1379.49 154.645C1379.68 155.159 1379.75 155.684 1379.69 156.221C1379.63 156.842 1379.41 157.411 1379.03 157.927C1378.67 158.432 1378.18 158.787 1377.57 158.99C1378.27 159.279 1378.8 159.737 1379.16 160.365C1379.53 160.982 1379.68 161.684 1379.6 162.472ZM1378 162.019C1378.04 161.625 1377.99 161.252 1377.84 160.899C1377.71 160.548 1377.5 160.256 1377.22 160.022C1376.96 159.79 1376.64 159.655 1376.25 159.616L1371.7 159.151L1371.26 163.52L1375.68 163.972C1376.08 164.012 1376.44 163.947 1376.77 163.775C1377.11 163.605 1377.39 163.368 1377.6 163.064C1377.83 162.75 1377.96 162.401 1378 162.019ZM1372.27 153.6L1371.84 157.844L1375.89 158.257C1376.27 158.296 1376.61 158.235 1376.92 158.073C1377.24 157.912 1377.49 157.68 1377.69 157.374C1377.91 157.07 1378.03 156.727 1378.07 156.345C1378.11 155.939 1378.06 155.573 1377.93 155.245C1377.81 154.907 1377.61 154.628 1377.35 154.408C1377.09 154.189 1376.78 154.061 1376.43 154.024L1372.27 153.6Z" fill="#F5F5F5"/>
<path d="M-2.28631 40.2679L-1.1519 27.5384L0.46171 27.6822L-0.0288041 33.1864L1.67445 33.3381L6.36033 28.2078L8.22494 28.374L2.94207 34.1197L7.41325 41.1323L5.44107 40.9566L1.57929 34.8115L-0.159821 34.6565L-0.672703 40.4117L-2.28631 40.2679ZM17.8186 42.0596L18.8252 30.7644L14.074 30.341L13.777 32.8626C13.5628 34.5904 13.303 36.0189 12.9975 37.1483C12.7051 38.2667 12.3443 39.1381 11.9152 39.7625C11.4991 40.376 11.0099 40.7962 10.4475 41.0232C9.88516 41.2502 9.23344 41.3307 8.49238 41.2646L8.6186 39.8482C9.0728 39.8887 9.48333 39.8108 9.8502 39.6146C10.2171 39.4184 10.5451 39.0501 10.8342 38.5096C11.1363 37.9583 11.4044 37.181 11.6383 36.1778C11.8723 35.1746 12.0835 33.8863 12.2719 32.3128L12.6958 28.7724L20.5666 29.4738L19.4322 42.2034L17.8186 42.0596ZM32.1084 43.4234C31.0446 43.3286 30.1217 43.0054 29.3395 42.4538C28.5574 41.9022 27.9537 41.1737 27.5284 40.2684C27.1041 39.3511 26.9018 38.3091 26.9215 37.1422L24.6087 36.9361L24.1022 42.6196L22.4886 42.4758L23.623 29.7462L25.2366 29.89L24.7365 35.5018L27.0672 35.7095C27.2683 34.5347 27.6636 33.5459 28.2532 32.7431C28.8428 31.9402 29.5702 31.3484 30.4354 30.9677C31.3137 30.5762 32.2608 30.4256 33.2767 30.5162C34.4481 30.6206 35.4455 30.9865 36.2691 31.6141C37.0926 32.2417 37.7058 33.0674 38.1085 34.0912C38.5123 35.103 38.6577 36.2424 38.5448 37.5094C38.4233 38.872 38.063 40.0085 37.4639 40.9189C36.8647 41.8293 36.1 42.5021 35.1697 42.9372C34.2524 43.3615 33.232 43.5235 32.1084 43.4234ZM32.2558 41.9728C33.1283 42.0505 33.8945 41.902 34.5544 41.527C35.2143 41.1521 35.7451 40.6031 36.1469 39.8799C36.5606 39.1578 36.8106 38.3126 36.8969 37.3445C36.9885 36.3165 36.8881 35.4161 36.5955 34.6431C36.303 33.87 35.8581 33.2521 35.2608 32.7893C34.6755 32.3275 33.9645 32.0593 33.1278 31.9847C32.2791 31.9091 31.5249 32.0588 30.865 32.4337C30.2181 32.7977 29.6938 33.3413 29.292 34.0645C28.9033 34.7768 28.6652 35.623 28.5779 36.6031C28.4873 37.6191 28.5759 38.5185 28.8434 39.3013C29.1229 40.0852 29.5554 40.7081 30.1407 41.1699C30.726 41.6316 31.431 41.8993 32.2558 41.9728ZM40.2249 44.0564L41.3593 31.3268L42.9729 31.4706L41.9663 42.7659L46.7354 43.1909L47.742 31.8956L49.3556 32.0394L48.349 43.3347L53.1181 43.7597L54.1247 32.4644L55.7383 32.6082L54.6039 45.3378L40.2249 44.0564ZM57.6461 45.6089L58.7805 32.8793L60.3941 33.0231L59.9036 38.5273L61.6069 38.6791L66.2927 33.5488L68.1574 33.715L62.8745 39.4607L67.3457 46.4733L65.3735 46.2975L61.5117 40.1525L59.7726 39.9975L59.2597 45.7527L57.6461 45.6089ZM69.4141 46.6576L70.5485 33.9281L72.1621 34.0719L71.2274 44.5603L79.5309 34.7285L81.0369 34.8627L79.9025 47.5923L78.2889 47.4485L79.206 37.1573L71.0098 46.7998L69.4141 46.6576ZM86.4548 50.6339L86.7999 46.7613L87.3736 46.8124C87.7083 46.8422 88.0129 46.7368 88.2873 46.4962C88.5628 46.2437 88.8163 45.8326 89.0478 45.2629C89.2803 44.6812 89.4946 43.8992 89.6906 42.9167C89.8866 41.9342 90.0734 40.716 90.2512 39.262L90.6572 35.7201L98.5459 36.4231L97.5394 47.7183L99.1171 47.8589L98.772 51.7316L97.3377 51.6038L97.555 49.1654L88.1064 48.3234L87.8891 50.7617L86.4548 50.6339ZM89.5251 47.0041L95.9257 47.5745L96.8045 37.7136L92.0175 37.287L91.7576 39.595C91.5875 41.0979 91.3975 42.352 91.1874 43.3573C90.9773 44.3626 90.7375 45.1605 90.4681 45.7509C90.1986 46.3413 89.8843 46.759 89.5251 47.0041ZM109.564 50.2357L110.571 38.9404L105.82 38.517L105.523 41.0386C105.309 42.7664 105.049 44.195 104.743 45.3243C104.451 46.4428 104.09 47.3142 103.661 47.9386C103.245 48.5521 102.756 48.9723 102.193 49.1993C101.631 49.4263 100.979 49.5067 100.238 49.4407L100.364 48.0243C100.819 48.0648 101.229 47.9869 101.596 47.7907C101.963 47.5945 102.291 47.2261 102.58 46.6857C102.882 46.1343 103.15 45.357 103.384 44.3539C103.618 43.3507 103.829 42.0623 104.018 40.4888L104.442 36.9485L112.312 37.6499L111.178 50.3795L109.564 50.2357ZM113.876 50.6199L117.666 45.6085C116.813 45.3036 116.171 44.8007 115.74 44.0996C115.32 43.3996 115.151 42.5954 115.232 41.687C115.295 40.9818 115.525 40.3638 115.921 39.8329C116.318 39.302 116.842 38.8969 117.493 38.6176C118.157 38.3394 118.913 38.2381 119.761 38.3137L124.028 38.694L122.894 51.4236L121.28 51.2798L121.736 46.17L119.764 45.9943C119.692 45.9879 119.614 45.9809 119.531 45.9735C119.459 45.9671 119.387 45.9607 119.315 45.9543L115.74 50.786L113.876 50.6199ZM119.332 44.5463L121.86 44.7715L122.29 39.9487L119.834 39.7298C119.308 39.6829 118.827 39.7364 118.392 39.8904C117.957 40.0444 117.604 40.284 117.334 40.6093C117.076 40.9357 116.925 41.3439 116.882 41.834C116.838 42.3241 116.901 42.7634 117.071 43.152C117.253 43.5418 117.532 43.8618 117.907 44.1121C118.296 44.3515 118.771 44.4962 119.332 44.5463ZM141.491 53.0808L142.357 43.3633L137.495 50.4658L136.509 50.378L132.962 42.5261L132.096 52.2436L130.482 52.0998L131.617 39.3703L133.32 39.522L137.191 48.1979L142.554 40.3449L144.239 40.4951L143.104 53.2246L141.491 53.0808ZM151.16 41.1119L152.522 41.2333L156.587 54.4262L154.866 54.2728L153.693 50.4094L148.35 49.9332L146.529 53.5298L144.808 53.3765L151.16 41.1119ZM153.446 49.1224L151.675 43.0372L148.784 48.707L153.446 49.1224ZM166.713 55.3285L167.72 44.0333L162.968 43.6099L162.671 46.1315C162.457 47.8593 162.197 49.2879 161.892 50.4172C161.599 51.5357 161.239 52.4071 160.81 53.0315C160.393 53.6449 159.904 54.0652 159.342 54.2922C158.779 54.5191 158.128 54.5996 157.387 54.5336L157.513 53.1172C157.967 53.1577 158.378 53.0798 158.745 52.8836C159.111 52.6874 159.439 52.319 159.728 51.7786C160.031 51.2272 160.299 50.4499 160.533 49.4467C160.767 48.4435 160.978 47.1552 161.166 45.5817L161.59 42.0414L169.461 42.7428L168.327 55.4723L166.713 55.3285ZM180.152 55.0805L180.025 56.5148L171.383 55.7447L172.517 43.0152L180.998 43.7709L180.87 45.2052L174.003 44.5933L173.636 48.7169L179.606 49.249L179.486 50.5937L173.516 50.0616L173.124 54.4542L180.152 55.0805ZM193.61 44.8949L192.476 57.6244L190.862 57.4806L191.378 51.6896L184.368 51.0649L183.852 56.8559L182.238 56.7121L183.373 43.9826L184.986 44.1263L184.496 49.6305L191.506 50.2553L191.997 44.7511L193.61 44.8949ZM195.527 57.8964L196.662 45.1668L198.275 45.3106L197.846 50.1335L200.894 50.4051C201.826 50.4882 202.588 50.7248 203.18 51.1149C203.772 51.493 204.198 51.9947 204.455 52.62C204.726 53.2345 204.826 53.9361 204.755 54.725C204.689 55.466 204.474 56.1275 204.109 56.7094C203.745 57.2793 203.242 57.7105 202.602 58.0028C201.961 58.2951 201.193 58.4013 200.297 58.3214L195.527 57.8964ZM197.261 56.6955L200.201 56.9575C200.835 57.014 201.359 56.9403 201.775 56.7364C202.192 56.5205 202.507 56.2234 202.722 55.8449C202.937 55.4545 203.065 55.0322 203.106 54.578C203.146 54.1238 203.101 53.692 202.968 53.2827C202.848 52.8744 202.601 52.5331 202.228 52.2589C201.856 51.9728 201.33 51.7993 200.648 51.7386L197.726 51.4782L197.261 56.6955ZM206.558 58.8794L207.692 46.1498L209.306 46.2936L208.815 51.7978L210.519 51.9496L215.205 46.8193L217.069 46.9855L211.786 52.7312L216.257 59.7438L214.285 59.568L210.424 53.423L208.684 53.268L208.172 59.0232L206.558 58.8794ZM218.326 59.9281L219.46 47.1986L221.074 47.3423L220.139 57.8308L228.443 47.999L229.949 48.1332L228.814 60.8628L227.201 60.719L228.118 50.4278L219.922 60.0703L218.326 59.9281ZM233.439 48.4442L236.806 54.0573L241.112 49.1281L242.923 49.2895L237.597 55.3205L241.645 62.0062L239.834 61.8449L236.595 56.4239L232.448 61.1866L230.619 61.0236L235.786 55.1591L231.61 48.2813L233.439 48.4442ZM254.888 63.1864L255.363 57.8615C255.127 57.9369 254.849 58.0145 254.529 58.0944C254.209 58.1743 253.842 58.232 253.429 58.2675C253.029 58.2921 252.591 58.2831 252.112 58.2405C250.702 58.1148 249.684 57.7108 249.058 57.0286C248.433 56.3344 248.182 55.3 248.304 53.9254L248.672 49.8018L250.232 49.9408L249.88 53.8852C249.798 54.8055 249.959 55.5005 250.363 55.9702C250.78 56.4291 251.496 56.7037 252.512 56.7943C253.038 56.8412 253.575 56.8288 254.124 56.7572C254.684 56.6867 255.14 56.5767 255.491 56.4272L256.023 50.4569L257.601 50.5975L256.466 63.327L254.888 63.1864ZM268.291 62.9352L268.164 64.3695L259.522 63.5993L260.656 50.8698L269.137 51.6255L269.009 53.0598L262.142 52.4479L261.775 56.5716L267.745 57.1036L267.625 58.4483L261.655 57.9162L261.263 62.3088L268.291 62.9352ZM281.386 65.5478L282.252 55.8303L277.39 62.9328L276.404 62.8449L272.857 54.993L271.991 64.7105L270.377 64.5667L271.512 51.8372L273.215 51.989L277.086 60.6648L282.448 52.8118L284.134 52.962L282.999 65.6916L281.386 65.5478ZM286.048 65.9632L287.182 53.2337L297.007 54.1092L295.873 66.8388L294.259 66.695L295.266 55.3998L288.668 54.8118L287.661 66.107L286.048 65.9632ZM299.006 67.118L300.141 54.3885L301.754 54.5323L300.819 65.0207L309.123 55.189L310.629 55.3232L309.495 68.0527L307.881 67.9089L308.798 57.6177L300.602 67.2602L299.006 67.118ZM317.781 68.8816C316.885 68.8017 316.088 68.55 315.391 68.1264C314.694 67.7029 314.104 67.1623 313.62 66.5048C313.149 65.8364 312.805 65.1069 312.586 64.3164C312.369 63.5139 312.296 62.7063 312.368 61.8935C312.444 61.0449 312.665 60.2514 313.032 59.513C313.412 58.7638 313.898 58.1144 314.489 57.5647C315.093 57.0041 315.775 56.583 316.535 56.3013C317.296 56.0077 318.107 55.8992 318.968 55.9759C319.864 56.0558 320.66 56.3135 321.356 56.749C322.053 57.1845 322.636 57.7365 323.106 58.4049C323.577 59.0733 323.922 59.8028 324.14 60.5933C324.359 61.3838 324.433 62.1795 324.361 62.9803C324.286 63.829 324.064 64.6284 323.696 65.3787C323.329 66.1171 322.843 66.7665 322.239 67.3271C321.648 67.8768 320.972 68.2925 320.212 68.5741C319.452 68.8558 318.642 68.9583 317.781 68.8816ZM314 62.0389C313.942 62.6843 313.988 63.3209 314.137 63.9486C314.299 64.5654 314.55 65.1239 314.891 65.6242C315.232 66.1244 315.659 66.536 316.173 66.8588C316.686 67.1816 317.271 67.3724 317.929 67.4309C318.61 67.4917 319.232 67.4025 319.796 67.1636C320.359 66.9247 320.848 66.5827 321.261 66.1376C321.686 65.6936 322.021 65.1813 322.265 64.6007C322.522 64.0212 322.677 63.4266 322.731 62.817C322.789 62.1716 322.737 61.5405 322.575 60.9236C322.425 60.3079 322.173 59.7494 321.82 59.2481C321.481 58.7359 321.053 58.3244 320.539 58.0135C320.038 57.6917 319.464 57.502 318.819 57.4445C318.137 57.3838 317.515 57.4729 316.952 57.7118C316.389 57.9388 315.896 58.2743 315.47 58.7183C315.057 59.1634 314.722 59.6757 314.466 60.2552C314.211 60.8228 314.055 61.4174 314 62.0389ZM337.409 57.7098L336.275 70.4393L334.661 70.2955L335.177 64.5045L328.167 63.8797L327.651 69.6708L326.038 69.527L327.172 56.7974L328.786 56.9412L328.295 62.4454L335.305 63.0701L335.796 57.566L337.409 57.7098ZM344.482 71.2611C343.586 71.1812 342.789 70.9295 342.092 70.5059C341.395 70.0824 340.804 69.5418 340.321 68.8843C339.85 68.2159 339.506 67.4864 339.287 66.6959C339.069 65.8934 338.997 65.0858 339.069 64.273C339.145 63.4244 339.366 62.6309 339.733 61.8925C340.113 61.1433 340.599 60.4938 341.19 59.9441C341.794 59.3836 342.476 58.9624 343.236 58.6808C343.997 58.3872 344.808 58.2787 345.668 58.3554C346.565 58.4353 347.361 58.693 348.057 59.1285C348.753 59.564 349.337 60.116 349.807 60.7844C350.278 61.4528 350.622 62.1823 350.841 62.9728C351.06 63.7633 351.133 64.559 351.062 65.3598C350.986 66.2085 350.765 67.0079 350.397 67.7582C350.03 68.4966 349.544 69.146 348.94 69.7066C348.349 70.2563 347.673 70.672 346.913 70.9536C346.153 71.2353 345.343 71.3378 344.482 71.2611ZM340.701 64.4184C340.643 65.0638 340.689 65.7004 340.838 66.3281C341 66.9449 341.251 67.5034 341.592 68.0037C341.933 68.5039 342.36 68.9154 342.873 69.2383C343.387 69.5611 343.972 69.7518 344.63 69.8104C345.311 69.8711 345.933 69.782 346.497 69.5431C347.06 69.3042 347.548 68.9622 347.962 68.5171C348.387 68.0731 348.721 67.5608 348.966 66.9802C349.222 66.4006 349.378 65.8061 349.432 65.1965C349.49 64.5511 349.437 63.9199 349.276 63.3031C349.126 62.6874 348.874 62.1289 348.521 61.6276C348.181 61.1154 347.754 60.7038 347.24 60.3929C346.738 60.0712 346.165 59.8815 345.52 59.824C344.838 59.7633 344.216 59.8524 343.652 60.0913C343.09 60.3183 342.596 60.6538 342.171 61.0978C341.758 61.5429 341.423 62.0552 341.167 62.6347C340.911 63.2023 340.756 63.7969 340.701 64.4184ZM362.802 69.4963C362.743 70.1536 362.525 70.7125 362.147 71.1727C361.768 71.6329 361.28 71.9749 360.682 72.1987C360.096 72.4236 359.462 72.5056 358.78 72.4449L352.738 71.9065L353.873 59.1769L360.202 59.7409C360.799 59.7942 361.299 60.0014 361.7 60.3624C362.115 60.7126 362.413 61.1488 362.596 61.6711C362.791 62.1824 362.865 62.707 362.817 63.2449C362.762 63.8664 362.548 64.4377 362.176 64.9588C361.818 65.469 361.334 65.8294 360.725 66.0402C361.435 66.3203 361.973 66.7719 362.339 67.3948C362.718 68.0069 362.872 68.7074 362.802 69.4963ZM361.196 69.064C361.231 68.6696 361.174 68.297 361.025 67.9464C360.887 67.5968 360.678 67.3071 360.397 67.0772C360.129 66.8485 359.803 66.7171 359.42 66.683L354.866 66.2771L354.477 70.6518L358.905 71.0465C359.3 71.0816 359.661 71.0114 359.99 70.8359C360.331 70.6615 360.605 70.4209 360.813 70.1142C361.034 69.7965 361.162 69.4465 361.196 69.064ZM355.362 60.7192L354.983 64.9683L359.035 65.3294C359.418 65.3635 359.761 65.2977 360.065 65.132C360.38 64.9674 360.636 64.7312 360.833 64.4234C361.041 64.1167 361.162 63.7721 361.196 63.3896C361.232 62.9832 361.18 62.6171 361.041 62.2915C360.914 61.9549 360.716 61.6782 360.446 61.4614C360.188 61.2457 359.88 61.1218 359.521 61.0899L355.362 60.7192Z" fill="#F5F5F5"/>
<path d="M1514.79 178.46L1515.92 165.731L1517.54 165.875L1517.05 171.379L1518.75 171.531L1523.43 166.4L1525.3 166.566L1520.02 172.312L1524.49 179.325L1522.52 179.149L1518.65 173.004L1516.91 172.849L1516.4 178.604L1514.79 178.46ZM1534.89 180.252L1535.9 168.957L1531.15 168.533L1530.85 171.055C1530.64 172.783 1530.38 174.211 1530.07 175.341C1529.78 176.459 1529.42 177.331 1528.99 177.955C1528.57 178.568 1528.08 178.989 1527.52 179.216C1526.96 179.443 1526.31 179.523 1525.57 179.457L1525.69 178.041C1526.15 178.081 1526.56 178.003 1526.92 177.807C1527.29 177.611 1527.62 177.242 1527.91 176.702C1528.21 176.151 1528.48 175.373 1528.71 174.37C1528.95 173.367 1529.16 172.079 1529.35 170.505L1529.77 166.965L1537.64 167.666L1536.51 180.396L1534.89 180.252ZM1549.18 181.616C1548.12 181.521 1547.2 181.198 1546.41 180.646C1545.63 180.095 1545.03 179.366 1544.6 178.461C1544.18 177.544 1543.98 176.501 1544 175.335L1541.68 175.128L1541.18 180.812L1539.56 180.668L1540.7 167.939L1542.31 168.082L1541.81 173.694L1544.14 173.902C1544.34 172.727 1544.74 171.738 1545.33 170.935C1545.92 170.133 1546.64 169.541 1547.51 169.16C1548.39 168.769 1549.34 168.618 1550.35 168.709C1551.52 168.813 1552.52 169.179 1553.34 169.807C1554.17 170.434 1554.78 171.26 1555.18 172.284C1555.59 173.295 1555.73 174.435 1555.62 175.702C1555.5 177.064 1555.14 178.201 1554.54 179.111C1553.94 180.022 1553.17 180.694 1552.24 181.13C1551.33 181.554 1550.31 181.716 1549.18 181.616ZM1549.33 180.165C1550.2 180.243 1550.97 180.094 1551.63 179.719C1552.29 179.345 1552.82 178.795 1553.22 178.072C1553.63 177.35 1553.88 176.505 1553.97 175.537C1554.06 174.509 1553.96 173.608 1553.67 172.835C1553.38 172.062 1552.93 171.444 1552.34 170.982C1551.75 170.52 1551.04 170.252 1550.2 170.177C1549.35 170.102 1548.6 170.251 1547.94 170.626C1547.29 170.99 1546.77 171.534 1546.37 172.257C1545.98 172.969 1545.74 173.815 1545.65 174.795C1545.56 175.811 1545.65 176.711 1545.92 177.494C1546.2 178.278 1546.63 178.9 1547.21 179.362C1547.8 179.824 1548.51 180.092 1549.33 180.165ZM1557.3 182.249L1558.43 169.519L1560.05 169.663L1559.04 180.958L1563.81 181.383L1564.82 170.088L1566.43 170.232L1565.42 181.527L1570.19 181.952L1571.2 170.657L1572.81 170.801L1571.68 183.53L1557.3 182.249ZM1574.72 183.801L1575.85 171.072L1577.47 171.216L1576.98 176.72L1578.68 176.871L1583.37 171.741L1585.23 171.907L1579.95 177.653L1584.42 184.666L1582.45 184.49L1578.59 178.345L1576.85 178.19L1576.33 183.945L1574.72 183.801ZM1586.49 184.85L1587.62 172.12L1589.24 172.264L1588.3 182.753L1596.61 172.921L1598.11 173.055L1596.98 185.785L1595.36 185.641L1596.28 175.35L1588.08 184.992L1586.49 184.85ZM1603.53 188.826L1603.87 184.954L1604.45 185.005C1604.78 185.035 1605.09 184.929 1605.36 184.689C1605.64 184.436 1605.89 184.025 1606.12 183.455C1606.35 182.874 1606.57 182.092 1606.76 181.109C1606.96 180.127 1607.15 178.908 1607.33 177.454L1607.73 173.912L1615.62 174.615L1614.61 185.911L1616.19 186.051L1615.85 189.924L1614.41 189.796L1614.63 187.358L1605.18 186.516L1604.96 188.954L1603.53 188.826ZM1606.6 185.197L1613 185.767L1613.88 175.906L1609.09 175.479L1608.83 177.787C1608.66 179.29 1608.47 180.544 1608.26 181.55C1608.05 182.555 1607.81 183.353 1607.54 183.943C1607.27 184.534 1606.96 184.951 1606.6 185.197ZM1626.64 188.428L1627.65 177.133L1622.89 176.709L1622.6 179.231C1622.38 180.959 1622.12 182.387 1621.82 183.517C1621.53 184.635 1621.16 185.507 1620.74 186.131C1620.32 186.744 1619.83 187.165 1619.27 187.392C1618.71 187.619 1618.05 187.699 1617.31 187.633L1617.44 186.217C1617.89 186.257 1618.3 186.179 1618.67 185.983C1619.04 185.787 1619.37 185.419 1619.65 184.878C1619.96 184.327 1620.22 183.549 1620.46 182.546C1620.69 181.543 1620.9 180.255 1621.09 178.681L1621.52 175.141L1629.39 175.842L1628.25 188.572L1626.64 188.428ZM1630.95 188.812L1634.74 183.801C1633.89 183.496 1633.25 182.993 1632.81 182.292C1632.39 181.592 1632.23 180.788 1632.31 179.879C1632.37 179.174 1632.6 178.556 1633 178.025C1633.39 177.494 1633.92 177.089 1634.57 176.81C1635.23 176.532 1635.99 176.43 1636.84 176.506L1641.1 176.886L1639.97 189.616L1638.35 189.472L1638.81 184.362L1636.84 184.187C1636.77 184.18 1636.69 184.173 1636.6 184.166C1636.53 184.159 1636.46 184.153 1636.39 184.147L1632.81 188.978L1630.95 188.812ZM1636.41 182.739L1638.93 182.964L1639.36 178.141L1636.91 177.922C1636.38 177.875 1635.9 177.929 1635.47 178.083C1635.03 178.237 1634.68 178.476 1634.41 178.802C1634.15 179.128 1634 179.536 1633.96 180.026C1633.91 180.516 1633.98 180.956 1634.15 181.344C1634.33 181.734 1634.61 182.054 1634.98 182.304C1635.37 182.544 1635.84 182.689 1636.41 182.739ZM1658.57 191.273L1659.43 181.556L1654.57 188.658L1653.58 188.57L1650.04 180.718L1649.17 190.436L1647.56 190.292L1648.69 177.563L1650.39 177.714L1654.27 186.39L1659.63 178.537L1661.31 178.687L1660.18 191.417L1658.57 191.273ZM1668.23 179.304L1669.6 179.426L1673.66 192.619L1671.94 192.465L1670.77 188.602L1665.42 188.126L1663.6 191.722L1661.88 191.569L1668.23 179.304ZM1670.52 187.315L1668.75 181.23L1665.86 186.899L1670.52 187.315ZM1683.79 193.521L1684.79 182.226L1680.04 181.802L1679.75 184.324C1679.53 186.052 1679.27 187.48 1678.97 188.61C1678.67 189.728 1678.31 190.599 1677.88 191.224C1677.47 191.837 1676.98 192.258 1676.42 192.485C1675.85 192.712 1675.2 192.792 1674.46 192.726L1674.59 191.31C1675.04 191.35 1675.45 191.272 1675.82 191.076C1676.19 190.88 1676.51 190.511 1676.8 189.971C1677.1 189.42 1677.37 188.642 1677.61 187.639C1677.84 186.636 1678.05 185.348 1678.24 183.774L1678.66 180.234L1686.54 180.935L1685.4 193.665L1683.79 193.521ZM1697.23 193.273L1697.1 194.707L1688.46 193.937L1689.59 181.208L1698.07 181.963L1697.94 183.398L1691.08 182.786L1690.71 186.909L1696.68 187.441L1696.56 188.786L1690.59 188.254L1690.2 192.647L1697.23 193.273ZM1710.68 183.087L1709.55 195.817L1707.94 195.673L1708.45 189.882L1701.44 189.257L1700.93 195.048L1699.31 194.904L1700.45 182.175L1702.06 182.319L1701.57 187.823L1708.58 188.448L1709.07 182.943L1710.68 183.087ZM1712.6 196.089L1713.74 183.359L1715.35 183.503L1714.92 188.326L1717.97 188.598C1718.9 188.681 1719.66 188.917 1720.25 189.307C1720.85 189.685 1721.27 190.187 1721.53 190.812C1721.8 191.427 1721.9 192.128 1721.83 192.917C1721.76 193.658 1721.55 194.32 1721.18 194.902C1720.82 195.472 1720.32 195.903 1719.68 196.195C1719.04 196.487 1718.27 196.594 1717.37 196.514L1712.6 196.089ZM1714.34 194.888L1717.28 195.15C1717.91 195.206 1718.43 195.133 1718.85 194.929C1719.27 194.713 1719.58 194.416 1719.8 194.037C1720.01 193.647 1720.14 193.225 1720.18 192.77C1720.22 192.316 1720.17 191.884 1720.04 191.475C1719.92 191.067 1719.68 190.726 1719.3 190.451C1718.93 190.165 1718.4 189.992 1717.72 189.931L1714.8 189.671L1714.34 194.888ZM1723.63 197.072L1724.77 184.342L1726.38 184.486L1725.89 189.99L1727.59 190.142L1732.28 185.012L1734.14 185.178L1728.86 190.924L1733.33 197.936L1731.36 197.76L1727.5 191.615L1725.76 191.46L1725.25 197.216L1723.63 197.072ZM1735.4 198.12L1736.53 185.391L1738.15 185.535L1737.21 196.023L1745.52 186.191L1747.02 186.326L1745.89 199.055L1744.28 198.911L1745.19 188.62L1737 198.263L1735.4 198.12ZM1750.51 186.637L1753.88 192.25L1758.19 187.32L1760 187.482L1754.67 193.513L1758.72 200.199L1756.91 200.037L1753.67 194.616L1749.52 199.379L1747.69 199.216L1752.86 193.351L1748.68 186.474L1750.51 186.637ZM1771.96 201.379L1772.44 196.054C1772.2 196.129 1771.92 196.207 1771.6 196.287C1771.28 196.367 1770.92 196.424 1770.5 196.46C1770.1 196.484 1769.66 196.475 1769.19 196.433C1767.78 196.307 1766.76 195.903 1766.13 195.221C1765.51 194.527 1765.26 193.492 1765.38 192.118L1765.75 187.994L1767.31 188.133L1766.95 192.078C1766.87 192.998 1767.03 193.693 1767.44 194.163C1767.85 194.621 1768.57 194.896 1769.59 194.987C1770.11 195.034 1770.65 195.021 1771.2 194.95C1771.76 194.879 1772.21 194.769 1772.56 194.62L1773.1 188.649L1774.67 188.79L1773.54 201.519L1771.96 201.379ZM1785.37 201.128L1785.24 202.562L1776.6 201.792L1777.73 189.062L1786.21 189.818L1786.08 191.252L1779.22 190.64L1778.85 194.764L1784.82 195.296L1784.7 196.641L1778.73 196.109L1778.34 200.501L1785.37 201.128ZM1798.46 203.74L1799.33 194.023L1794.46 201.125L1793.48 201.037L1789.93 193.185L1789.07 202.903L1787.45 202.759L1788.59 190.03L1790.29 190.181L1794.16 198.857L1799.52 191.004L1801.21 191.154L1800.07 203.884L1798.46 203.74ZM1803.12 204.156L1804.26 191.426L1814.08 192.302L1812.95 205.031L1811.33 204.887L1812.34 193.592L1805.74 193.004L1804.74 204.299L1803.12 204.156ZM1816.08 205.31L1817.21 192.581L1818.83 192.725L1817.89 203.213L1826.2 193.381L1827.7 193.516L1826.57 206.245L1824.96 206.101L1825.87 195.81L1817.68 205.453L1816.08 205.31ZM1834.86 207.074C1833.96 206.994 1833.16 206.742 1832.47 206.319C1831.77 205.895 1831.18 205.355 1830.69 204.697C1830.22 204.029 1829.88 203.299 1829.66 202.509C1829.44 201.706 1829.37 200.899 1829.44 200.086C1829.52 199.237 1829.74 198.444 1830.11 197.705C1830.49 196.956 1830.97 196.307 1831.56 195.757C1832.17 195.196 1832.85 194.775 1833.61 194.494C1834.37 194.2 1835.18 194.092 1836.04 194.168C1836.94 194.248 1837.73 194.506 1838.43 194.941C1839.13 195.377 1839.71 195.929 1840.18 196.597C1840.65 197.266 1841 197.995 1841.21 198.786C1841.43 199.576 1841.51 200.372 1841.44 201.173C1841.36 202.021 1841.14 202.821 1840.77 203.571C1840.4 204.309 1839.92 204.959 1839.31 205.52C1838.72 206.069 1838.05 206.485 1837.29 206.767C1836.53 207.048 1835.72 207.151 1834.86 207.074ZM1831.07 200.231C1831.02 200.877 1831.06 201.513 1831.21 202.141C1831.37 202.758 1831.62 203.316 1831.97 203.817C1832.31 204.317 1832.73 204.728 1833.25 205.051C1833.76 205.374 1834.35 205.565 1835 205.623C1835.68 205.684 1836.31 205.595 1836.87 205.356C1837.43 205.117 1837.92 204.775 1838.33 204.33C1838.76 203.886 1839.09 203.374 1839.34 202.793C1839.6 202.214 1839.75 201.619 1839.81 201.009C1839.86 200.364 1839.81 199.733 1839.65 199.116C1839.5 198.5 1839.25 197.942 1838.89 197.44C1838.55 196.928 1838.13 196.517 1837.61 196.206C1837.11 195.884 1836.54 195.694 1835.89 195.637C1835.21 195.576 1834.59 195.665 1834.03 195.904C1833.46 196.131 1832.97 196.467 1832.54 196.911C1832.13 197.356 1831.8 197.868 1831.54 198.448C1831.28 199.015 1831.13 199.61 1831.07 200.231ZM1854.48 195.902L1853.35 208.632L1851.74 208.488L1852.25 202.697L1845.24 202.072L1844.73 207.863L1843.11 207.719L1844.25 194.99L1845.86 195.134L1845.37 200.638L1852.38 201.263L1852.87 195.758L1854.48 195.902ZM1861.56 209.453C1860.66 209.374 1859.86 209.122 1859.17 208.698C1858.47 208.275 1857.88 207.734 1857.4 207.077C1856.92 206.408 1856.58 205.679 1856.36 204.888C1856.14 204.086 1856.07 203.278 1856.14 202.465C1856.22 201.617 1856.44 200.823 1856.81 200.085C1857.19 199.336 1857.67 198.686 1858.26 198.137C1858.87 197.576 1859.55 197.155 1860.31 196.873C1861.07 196.58 1861.88 196.471 1862.74 196.548C1863.64 196.628 1864.44 196.885 1865.13 197.321C1865.83 197.756 1866.41 198.308 1866.88 198.977C1867.35 199.645 1867.7 200.375 1867.92 201.165C1868.13 201.956 1868.21 202.751 1868.14 203.552C1868.06 204.401 1867.84 205.2 1867.47 205.951C1867.1 206.689 1866.62 207.338 1866.01 207.899C1865.42 208.449 1864.75 208.864 1863.99 209.146C1863.23 209.428 1862.42 209.53 1861.56 209.453ZM1857.77 202.611C1857.72 203.256 1857.76 203.893 1857.91 204.52C1858.07 205.137 1858.33 205.696 1858.67 206.196C1859.01 206.696 1859.43 207.108 1859.95 207.431C1860.46 207.754 1861.05 207.944 1861.7 208.003C1862.39 208.064 1863.01 207.974 1863.57 207.735C1864.13 207.497 1864.62 207.155 1865.04 206.709C1865.46 206.265 1865.8 205.753 1866.04 205.173C1866.3 204.593 1866.45 203.998 1866.51 203.389C1866.56 202.743 1866.51 202.112 1866.35 201.496C1866.2 200.88 1865.95 200.321 1865.6 199.82C1865.26 199.308 1864.83 198.896 1864.31 198.585C1863.81 198.264 1863.24 198.074 1862.59 198.016C1861.91 197.956 1861.29 198.045 1860.73 198.284C1860.16 198.511 1859.67 198.846 1859.25 199.29C1858.83 199.735 1858.5 200.248 1858.24 200.827C1857.99 201.395 1857.83 201.989 1857.77 202.611ZM1879.88 207.689C1879.82 208.346 1879.6 208.905 1879.22 209.365C1878.84 209.825 1878.35 210.167 1877.76 210.391C1877.17 210.616 1876.54 210.698 1875.85 210.637L1869.81 210.099L1870.95 197.369L1877.28 197.933C1877.87 197.987 1878.37 198.194 1878.77 198.555C1879.19 198.905 1879.49 199.341 1879.67 199.863C1879.87 200.375 1879.94 200.899 1879.89 201.437C1879.84 202.059 1879.62 202.63 1879.25 203.151C1878.89 203.661 1878.41 204.022 1877.8 204.233C1878.51 204.513 1879.05 204.964 1879.41 205.587C1879.79 206.199 1879.95 206.9 1879.88 207.689ZM1878.27 207.256C1878.31 206.862 1878.25 206.489 1878.1 206.139C1877.96 205.789 1877.75 205.499 1877.47 205.27C1877.2 205.041 1876.88 204.909 1876.49 204.875L1871.94 204.47L1871.55 208.844L1875.98 209.239C1876.37 209.274 1876.74 209.204 1877.06 209.028C1877.41 208.854 1877.68 208.613 1877.89 208.307C1878.11 207.989 1878.24 207.639 1878.27 207.256ZM1872.44 198.912L1872.06 203.161L1876.11 203.522C1876.49 203.556 1876.84 203.49 1877.14 203.324C1877.45 203.16 1877.71 202.924 1877.91 202.616C1878.11 202.309 1878.24 201.964 1878.27 201.582C1878.31 201.176 1878.25 200.81 1878.11 200.484C1877.99 200.147 1877.79 199.871 1877.52 199.654C1877.26 199.438 1876.95 199.314 1876.6 199.282L1872.44 198.912Z" fill="#F5F5F5"/>
</svg>
