<svg width="1920" height="147" viewBox="0 0 1920 147" fill="none" xmlns="http://www.w3.org/2000/svg">
<rect x="-24.0806" y="87.087" width="1973" height="59" transform="rotate(-2.51441 -24.0806 87.087)" fill="#F5F5F5" stroke="#333333"/>
<path d="M431.457 100.626C430.558 100.665 429.735 100.521 428.987 100.194C428.24 99.8661 427.584 99.4084 427.017 98.8207C426.462 98.2205 426.024 97.543 425.703 96.7884C425.381 96.0218 425.202 95.2309 425.166 94.4157C425.129 93.5645 425.243 92.7487 425.509 91.9683C425.787 91.1753 426.182 90.4673 426.695 89.8442C427.22 89.2086 427.84 88.7009 428.556 88.3211C429.272 87.9293 430.061 87.7145 430.924 87.6766C431.823 87.6371 432.647 87.7871 433.394 88.1266C434.142 88.4662 434.793 88.9361 435.348 89.5363C435.903 90.1365 436.341 90.814 436.662 91.5686C436.984 92.3232 437.162 93.1021 437.197 93.9054C437.235 94.7565 437.121 95.5783 436.855 96.3707C436.589 97.1512 436.194 97.8592 435.669 98.4948C435.156 99.1179 434.542 99.6194 433.826 99.9992C433.11 100.379 432.32 100.588 431.457 100.626ZM426.803 94.3438C426.831 94.9912 426.961 95.6161 427.191 96.2186C427.433 96.8085 427.757 97.3288 428.161 97.7795C428.565 98.2302 429.043 98.5816 429.594 98.8337C430.146 99.0857 430.751 99.1972 431.411 99.1683C432.094 99.1383 432.699 98.9676 433.226 98.6562C433.753 98.3447 434.192 97.9411 434.542 97.4453C434.905 96.9489 435.169 96.3968 435.334 95.7889C435.512 95.1805 435.587 94.5706 435.56 93.9592C435.532 93.3119 435.397 92.6932 435.154 92.1033C434.924 91.5128 434.601 90.9925 434.185 90.5423C433.78 90.0796 433.302 89.7282 432.751 89.4882C432.212 89.2356 431.618 89.1235 430.971 89.1519C430.288 89.182 429.683 89.3527 429.156 89.6641C428.628 89.9635 428.183 90.3614 427.821 90.8578C427.47 91.3536 427.206 91.9058 427.029 92.5141C426.851 93.1105 426.775 93.7204 426.803 94.3438ZM438.934 102.658L438.763 98.7733L439.339 98.7481C439.675 98.7333 439.962 98.5886 440.203 98.3138C440.442 98.027 440.639 97.5859 440.793 96.9906C440.947 96.3833 441.056 95.5797 441.12 94.5799C441.184 93.5802 441.208 92.3479 441.192 90.8832L441.125 87.3187L449.038 86.9713L449.535 98.3003L451.118 98.2308L451.288 102.115L449.849 102.178L449.742 99.7326L440.265 100.149L440.373 102.594L438.934 102.658ZM441.497 98.6533L447.917 98.3714L447.482 88.4809L442.681 88.6918L442.729 91.0139C442.759 92.526 442.737 93.7942 442.662 94.8185C442.587 95.8428 442.454 96.6654 442.266 97.2863C442.077 97.9072 441.82 98.3628 441.497 98.6533ZM461.94 97.7556L462.003 99.1942L453.336 99.5748L452.775 86.8071L461.281 86.4336L461.344 87.8722L454.457 88.1747L454.638 92.3107L460.626 92.0477L460.686 93.3964L454.697 93.6594L454.891 98.0651L461.94 97.7556ZM463.145 99.1441L467.8 92.3273L462.89 86.363L464.796 86.2793L469.12 91.6207L470.667 91.5528L470.424 86.0321L472.043 85.961L472.285 91.4817L473.814 91.4146L477.671 85.7139L479.56 85.6309L475.191 92.0027L480.444 98.3844L478.556 98.4673L473.915 92.8876L472.35 92.9563L472.604 98.7287L470.985 98.7998L470.732 93.0274L469.149 93.0968L465.015 99.062L463.145 99.1441ZM481.625 100.783L481.455 96.8987L482.03 96.8734C482.366 96.8586 482.654 96.7139 482.894 96.4391C483.134 96.1523 483.33 95.7112 483.484 95.1159C483.638 94.5086 483.747 93.705 483.811 92.7052C483.875 91.7055 483.899 90.4732 483.883 89.0085L483.816 85.444L491.729 85.0966L492.226 96.4256L493.809 96.3561L493.979 100.24L492.541 100.304L492.433 97.8579L482.956 98.2741L483.064 100.72L481.625 100.783ZM484.188 96.7786L490.608 96.4967L490.174 86.6062L485.372 86.8171L485.42 89.1392C485.45 90.6513 485.428 91.9195 485.353 92.9438C485.278 93.9681 485.146 94.7907 484.957 95.4116C484.768 96.0325 484.512 96.4881 484.188 96.7786ZM499.351 84.7619L500.717 84.7018L506.493 97.2405L504.767 97.3163L503.092 93.6423L497.733 93.8776L496.405 97.6835L494.678 97.7594L499.351 84.7619ZM502.677 92.3993L500.116 86.6021L498.001 92.6046L502.677 92.3993Z" fill="#333333"/>
<path d="M1036.96 62.4743L1038.32 62.4143L1044.1 74.953L1042.37 75.0288L1040.7 71.3548L1035.34 71.5901L1034.01 75.396L1032.28 75.4718L1036.96 62.4743ZM1040.28 70.1118L1037.72 64.3145L1035.61 70.3171L1040.28 70.1118ZM1045.8 74.8782L1045.24 62.1105L1046.86 62.0394L1047.1 67.5601L1048.81 67.4851L1052.78 61.7796L1054.65 61.6975L1050.17 68.092L1055.53 74.451L1053.55 74.5378L1048.91 68.9581L1047.17 69.0347L1047.42 74.8071L1045.8 74.8782ZM1055.68 67.958C1055.65 67.1788 1055.75 66.4117 1055.98 65.6568C1056.22 64.8895 1056.59 64.1887 1057.08 63.5547C1057.58 62.9081 1058.2 62.3884 1058.94 61.9956C1059.68 61.5908 1060.52 61.3673 1061.48 61.3252C1062.62 61.2752 1063.61 61.4961 1064.45 61.9878C1065.29 62.4675 1065.92 63.1062 1066.35 63.9041L1065.11 64.7873C1064.84 64.2589 1064.5 63.8475 1064.09 63.5532C1063.69 63.2464 1063.26 63.037 1062.8 62.9251C1062.35 62.8128 1061.91 62.766 1061.48 62.785C1060.77 62.816 1060.15 62.9875 1059.61 63.2995C1059.08 63.6109 1058.64 64.0145 1058.29 64.5104C1057.94 65.0062 1057.68 65.5581 1057.52 66.1659C1057.36 66.7613 1057.3 67.3587 1057.32 67.9581C1057.35 68.6174 1057.49 69.2481 1057.73 69.85C1057.99 70.4514 1058.32 70.9772 1058.74 71.4274C1059.15 71.8776 1059.64 72.2287 1060.19 72.4807C1060.74 72.7328 1061.33 72.8448 1061.97 72.8169C1062.41 72.7975 1062.87 72.6995 1063.33 72.5232C1063.79 72.3468 1064.21 72.0878 1064.61 71.7462C1065 71.3926 1065.31 70.9468 1065.52 70.4088L1066.9 71.0869C1066.67 71.7338 1066.28 72.2912 1065.75 72.759C1065.22 73.2268 1064.62 73.5896 1063.94 73.8474C1063.28 74.1046 1062.62 74.2477 1061.96 74.2767C1061.09 74.3151 1060.28 74.1646 1059.53 73.8251C1058.78 73.4735 1058.12 72.9979 1057.56 72.3982C1057 71.786 1056.56 71.0968 1056.22 70.3307C1055.9 69.5521 1055.72 68.7612 1055.68 67.958ZM1077.66 72.0379L1077.72 73.4765L1069.05 73.8572L1068.49 61.0895L1077 60.716L1077.06 62.1546L1070.18 62.457L1070.36 66.593L1076.34 66.3301L1076.4 67.6788L1070.42 67.9417L1070.61 72.3475L1077.66 72.0379ZM1078.58 66.9524C1078.55 66.1732 1078.65 65.4061 1078.88 64.6512C1079.12 63.8839 1079.49 63.1831 1079.98 62.5491C1080.48 61.9025 1081.1 61.3828 1081.84 60.99C1082.58 60.5852 1083.42 60.3617 1084.38 60.3196C1085.52 60.2696 1086.51 60.4905 1087.35 60.9822C1088.19 61.4619 1088.82 62.1006 1089.25 62.8985L1088.01 63.7817C1087.74 63.2533 1087.39 62.8419 1086.99 62.5476C1086.59 62.2408 1086.16 62.0314 1085.7 61.9196C1085.25 61.8072 1084.81 61.7604 1084.38 61.7794C1083.67 61.8104 1083.05 61.9819 1082.51 62.2939C1081.98 62.6053 1081.54 63.0089 1081.19 63.5048C1080.84 64.0007 1080.58 64.5525 1080.42 65.1603C1080.26 65.7557 1080.2 66.3531 1080.22 66.9525C1080.25 67.6118 1080.39 68.2425 1080.63 68.8444C1080.89 69.4458 1081.22 69.9716 1081.64 70.4218C1082.05 70.872 1082.54 71.2231 1083.09 71.4751C1083.64 71.7272 1084.23 71.8393 1084.87 71.8113C1085.31 71.7919 1085.77 71.6939 1086.23 71.5176C1086.69 71.3412 1087.11 71.0822 1087.51 70.7406C1087.9 70.387 1088.21 69.9412 1088.42 69.4032L1089.8 70.0813C1089.57 70.7282 1089.18 71.2856 1088.65 71.7534C1088.12 72.2212 1087.52 72.584 1086.84 72.8418C1086.18 73.099 1085.52 73.2421 1084.86 73.2711C1083.99 73.3095 1083.18 73.159 1082.43 72.8195C1081.68 72.4679 1081.02 71.9923 1080.46 71.3926C1079.9 70.7804 1079.46 70.0912 1079.12 69.3251C1078.8 68.5465 1078.62 67.7556 1078.58 66.9524ZM1090.7 66.4203C1090.67 65.6411 1090.77 64.874 1091 64.1191C1091.24 63.3518 1091.61 62.651 1092.09 62.017C1092.59 61.3704 1093.21 60.8507 1093.95 60.4579C1094.69 60.0531 1095.54 59.8296 1096.5 59.7875C1097.64 59.7375 1098.63 59.9584 1099.47 60.4501C1100.3 60.9298 1100.94 61.5685 1101.37 62.3664L1100.13 63.2496C1099.85 62.7212 1099.51 62.3098 1099.1 62.0155C1098.71 61.7087 1098.28 61.4993 1097.81 61.3874C1097.36 61.2751 1096.92 61.2283 1096.49 61.2473C1095.79 61.2783 1095.16 61.4498 1094.62 61.7618C1094.1 62.0732 1093.66 62.4768 1093.31 62.9727C1092.96 63.4685 1092.7 64.0204 1092.53 64.6282C1092.38 65.2236 1092.32 65.821 1092.34 66.4204C1092.37 67.0797 1092.51 67.7104 1092.75 68.3123C1093 68.9137 1093.34 69.4395 1093.76 69.8897C1094.17 70.3399 1094.66 70.691 1095.21 70.943C1095.76 71.1951 1096.35 71.3071 1096.99 71.2792C1097.43 71.2598 1097.88 71.1618 1098.34 70.9855C1098.8 70.8091 1099.23 70.5501 1099.62 70.2085C1100.02 69.8549 1100.32 69.4091 1100.54 68.8711L1101.92 69.5492C1101.68 70.1961 1101.3 70.7535 1100.77 71.2213C1100.24 71.6891 1099.63 72.0519 1098.96 72.3097C1098.3 72.5669 1097.64 72.71 1096.98 72.739C1096.1 72.7774 1095.29 72.6269 1094.55 72.2874C1093.8 71.9358 1093.14 71.4602 1092.57 70.8605C1092.02 70.2483 1091.57 69.5591 1091.24 68.793C1090.92 68.0144 1090.74 67.2235 1090.7 66.4203ZM1105.44 72.3134L1105.38 70.9467L1106.19 70.9112C1106.49 70.898 1106.71 70.8164 1106.85 70.6662C1106.99 70.5035 1107.15 70.2686 1107.3 69.9615L1107.72 68.934L1101.98 59.6189L1103.76 59.5407L1108.39 67.2472L1111.64 59.1948L1113.35 59.1198L1108.58 70.6803C1108.34 71.2313 1108.07 71.6273 1107.78 71.8683C1107.5 72.1087 1107.11 72.2402 1106.59 72.2629L1105.44 72.3134ZM1118.58 58.89L1119.95 58.83L1125.72 71.3686L1124 71.4445L1122.32 67.7704L1116.96 68.0057L1115.64 71.8117L1113.91 71.8875L1118.58 58.89ZM1121.91 66.5274L1119.35 60.7302L1117.23 66.7327L1121.91 66.5274ZM1127.43 71.2938L1126.87 58.5261L1132.19 58.2924C1132.75 58.2676 1133.27 58.3649 1133.75 58.5841C1134.23 58.7914 1134.65 59.0852 1135.02 59.4655C1135.38 59.8339 1135.67 60.2596 1135.88 60.7427C1136.1 61.2138 1136.21 61.7012 1136.24 62.2047C1136.27 62.9 1136.14 63.5722 1135.86 64.2213C1135.57 64.8584 1135.16 65.3871 1134.61 65.8075C1134.06 66.2158 1133.41 66.4366 1132.66 66.4698L1128.84 66.6372L1129.05 71.2228L1127.43 71.2938ZM1128.78 65.1986L1132.5 65.0351C1132.95 65.0156 1133.33 64.8789 1133.64 64.6249C1133.96 64.3704 1134.21 64.0354 1134.37 63.6199C1134.54 63.2039 1134.62 62.7561 1134.6 62.2765C1134.58 61.773 1134.45 61.3282 1134.22 60.942C1133.98 60.5439 1133.69 60.2386 1133.33 60.0261C1132.97 59.8136 1132.58 59.7165 1132.16 59.7349L1128.55 59.8937L1128.78 65.1986ZM1138.63 70.8018L1138.07 58.0341L1139.69 57.9631L1139.9 62.8004L1142.96 62.6661C1143.89 62.6251 1144.68 62.7587 1145.32 63.067C1145.96 63.3633 1146.44 63.8043 1146.78 64.3901C1147.13 64.9633 1147.32 65.6455 1147.36 66.4368C1147.39 67.18 1147.27 67.8642 1146.98 68.4893C1146.69 69.1024 1146.25 69.5963 1145.66 69.9708C1145.06 70.3453 1144.31 70.5523 1143.42 70.5918L1138.63 70.8018ZM1140.19 69.382L1143.14 69.2525C1143.78 69.2246 1144.29 69.0821 1144.67 68.825C1145.06 68.5558 1145.33 68.2195 1145.49 67.816C1145.65 67.4005 1145.72 66.965 1145.7 66.5094C1145.68 66.0539 1145.58 65.6319 1145.4 65.2437C1145.22 64.8549 1144.93 64.5493 1144.53 64.3269C1144.12 64.0926 1143.58 63.9904 1142.89 64.0204L1139.96 64.1491L1140.19 69.382ZM1149.66 70.3178L1149.1 57.568L1150.71 57.497L1151.27 70.2467L1149.66 70.3178Z" fill="#333333"/>
<path d="M154.274 114.689L153.713 101.921L155.332 101.85L155.574 107.371L157.282 107.296L161.248 101.59L163.118 101.508L158.642 107.903L164.002 114.262L162.024 114.349L157.383 108.769L155.639 108.845L155.892 114.618L154.274 114.689ZM174.439 113.803L173.942 102.474L169.176 102.684L169.216 105.222C169.232 106.963 169.163 108.414 169.01 109.574C168.868 110.721 168.626 111.632 168.283 112.308C167.952 112.971 167.523 113.453 166.996 113.752C166.468 114.051 165.833 114.217 165.09 114.25L165.027 112.829C165.483 112.809 165.879 112.678 166.217 112.435C166.555 112.192 166.831 111.783 167.046 111.209C167.273 110.623 167.435 109.817 167.534 108.792C167.634 107.766 167.672 106.461 167.651 104.877L167.602 101.311L175.497 100.965L176.057 113.732L174.439 113.803ZM188.784 113.264C187.717 113.31 186.759 113.112 185.911 112.669C185.062 112.226 184.368 111.584 183.826 110.743C183.284 109.89 182.946 108.884 182.811 107.724L180.491 107.826L180.741 113.527L179.123 113.598L178.562 100.83L180.181 100.759L180.428 106.388L182.766 106.285C182.809 105.094 183.07 104.061 183.549 103.188C184.027 102.314 184.669 101.631 185.476 101.139C186.295 100.635 187.214 100.36 188.233 100.315C189.408 100.264 190.445 100.494 191.344 101.007C192.244 101.521 192.961 102.258 193.495 103.219C194.03 104.169 194.325 105.279 194.38 106.55C194.44 107.916 194.234 109.091 193.76 110.072C193.287 111.054 192.618 111.822 191.754 112.376C190.9 112.918 189.91 113.214 188.784 113.264ZM188.738 111.806C189.613 111.768 190.353 111.519 190.957 111.06C191.561 110.601 192.015 109.987 192.317 109.217C192.632 108.446 192.768 107.575 192.725 106.604C192.68 105.573 192.461 104.694 192.069 103.967C191.677 103.239 191.154 102.685 190.501 102.306C189.859 101.926 189.119 101.754 188.28 101.791C187.429 101.828 186.701 102.076 186.096 102.535C185.503 102.982 185.056 103.59 184.753 104.36C184.462 105.117 184.338 105.988 184.381 106.971C184.426 107.99 184.633 108.87 185.002 109.61C185.382 110.35 185.894 110.91 186.535 111.29C187.176 111.671 187.91 111.843 188.738 111.806ZM196.912 112.817L196.352 100.049L197.97 99.9778L198.468 111.307L203.251 111.097L202.754 99.7678L204.372 99.6967L204.87 111.026L209.653 110.816L209.155 99.4866L210.774 99.4156L211.335 112.183L196.912 112.817ZM214.386 112.049L213.825 99.2816L215.444 99.2105L215.686 104.731L217.394 104.656L221.36 98.9507L223.23 98.8686L218.754 105.263L224.114 111.622L222.136 111.709L217.495 106.129L215.751 106.206L216.004 111.978L214.386 112.049ZM226.189 111.531L225.628 98.7633L227.247 98.6922L227.709 109.212L234.638 98.3676L236.148 98.3013L236.709 111.069L235.09 111.14L234.637 100.818L227.79 111.461L226.189 111.531Z" fill="#333333"/>
<path d="M1337.46 61.9675C1336.56 62.007 1335.73 61.8629 1334.99 61.5354C1334.24 61.2079 1333.58 60.7502 1333.02 60.1625C1332.46 59.5623 1332.02 58.8848 1331.7 58.1302C1331.38 57.3636 1331.2 56.5727 1331.17 55.7575C1331.13 54.9063 1331.24 54.0905 1331.51 53.3101C1331.79 52.5171 1332.18 51.8091 1332.7 51.186C1333.22 50.5504 1333.84 50.0427 1334.56 49.6629C1335.27 49.2711 1336.06 49.0563 1336.92 49.0184C1337.82 48.9789 1338.65 49.1289 1339.39 49.4684C1340.14 49.808 1340.79 50.2779 1341.35 50.8781C1341.9 51.4783 1342.34 52.1558 1342.66 52.9104C1342.98 53.665 1343.16 54.4439 1343.2 55.2472C1343.23 56.0983 1343.12 56.9201 1342.86 57.7125C1342.59 58.493 1342.19 59.201 1341.67 59.8366C1341.16 60.4597 1340.54 60.9612 1339.83 61.341C1339.11 61.7207 1338.32 61.9296 1337.46 61.9675ZM1332.8 55.6856C1332.83 56.333 1332.96 56.9579 1333.19 57.5604C1333.43 58.1503 1333.76 58.6706 1334.16 59.1213C1334.56 59.572 1335.04 59.9234 1335.59 60.1755C1336.15 60.4275 1336.75 60.539 1337.41 60.5101C1338.09 60.4801 1338.7 60.3094 1339.23 59.998C1339.75 59.6865 1340.19 59.2829 1340.54 58.7871C1340.9 58.2907 1341.17 57.7386 1341.33 57.1307C1341.51 56.5223 1341.59 55.9124 1341.56 55.301C1341.53 54.6537 1341.4 54.035 1341.15 53.4451C1340.92 52.8546 1340.6 52.3343 1340.19 51.8841C1339.78 51.4214 1339.3 51.07 1338.75 50.83C1338.21 50.5774 1337.62 50.4653 1336.97 50.4937C1336.29 50.5237 1335.68 50.6945 1335.16 51.0059C1334.63 51.3053 1334.18 51.7032 1333.82 52.1996C1333.47 52.6954 1333.21 53.2476 1333.03 53.8559C1332.85 54.4523 1332.78 55.0622 1332.8 55.6856ZM1344.93 63.9994L1344.76 60.1151L1345.34 60.0899C1345.67 60.0751 1345.96 59.9304 1346.2 59.6556C1346.44 59.3688 1346.64 58.9277 1346.79 58.3324C1346.95 57.7251 1347.06 56.9215 1347.12 55.9217C1347.18 54.922 1347.21 53.6897 1347.19 52.225L1347.13 48.6605L1355.04 48.3131L1355.54 59.6421L1357.12 59.5726L1357.29 63.4569L1355.85 63.5201L1355.74 61.0744L1346.27 61.4906L1346.37 63.9362L1344.93 63.9994ZM1347.5 59.9951L1353.92 59.7132L1353.48 49.8227L1348.68 50.0336L1348.73 52.3557C1348.76 53.8678 1348.74 55.136 1348.66 56.1603C1348.59 57.1846 1348.45 58.0072 1348.27 58.6281C1348.08 59.249 1347.82 59.7046 1347.5 59.9951ZM1367.94 59.0974L1368 60.536L1359.34 60.9166L1358.77 48.1489L1367.28 47.7754L1367.34 49.214L1360.46 49.5165L1360.64 53.6525L1366.63 53.3895L1366.69 54.7382L1360.7 55.0012L1360.89 59.4069L1367.94 59.0974ZM1369.14 60.4859L1373.8 53.6691L1368.89 47.7048L1370.8 47.6211L1375.12 52.9625L1376.67 52.8946L1376.42 47.3739L1378.04 47.3028L1378.29 52.8235L1379.81 52.7564L1383.67 47.0557L1385.56 46.9727L1381.19 53.3445L1386.44 59.7262L1384.56 59.8091L1379.91 54.2294L1378.35 54.2981L1378.6 60.0705L1376.99 60.1416L1376.73 54.3692L1375.15 54.4386L1371.01 60.4038L1369.14 60.4859ZM1387.63 62.1247L1387.45 58.2404L1388.03 58.2152C1388.37 58.2004 1388.65 58.0557 1388.89 57.7809C1389.13 57.4941 1389.33 57.053 1389.48 56.4577C1389.64 55.8504 1389.75 55.0468 1389.81 54.047C1389.88 53.0473 1389.9 51.815 1389.88 50.3503L1389.82 46.7858L1397.73 46.4384L1398.23 57.7674L1399.81 57.6979L1399.98 61.5822L1398.54 61.6454L1398.43 59.1997L1388.96 59.6159L1389.06 62.0615L1387.63 62.1247ZM1390.19 58.1204L1396.61 57.8385L1396.17 47.948L1391.37 48.1589L1391.42 50.481C1391.45 51.9931 1391.43 53.2613 1391.35 54.2856C1391.28 55.3099 1391.15 56.1325 1390.96 56.7534C1390.77 57.3743 1390.51 57.8299 1390.19 58.1204ZM1405.35 46.1037L1406.72 46.0436L1412.49 58.5823L1410.77 58.6581L1409.09 54.9841L1403.73 55.2194L1402.4 59.0253L1400.68 59.1012L1405.35 46.1037ZM1408.68 53.7411L1406.12 47.9439L1404 53.9464L1408.68 53.7411Z" fill="#333333"/>
<path d="M1637.27 49.5581L1636.71 36.7904L1638.33 36.7193L1638.57 42.24L1640.28 42.165L1644.25 36.4595L1646.12 36.3774L1641.64 42.7719L1647 49.1309L1645.02 49.2178L1640.38 43.638L1638.64 43.7146L1638.89 49.487L1637.27 49.5581ZM1657.44 48.6726L1656.94 37.3435L1652.18 37.5528L1652.22 40.0915C1652.23 41.8325 1652.16 43.2829 1652.01 44.4427C1651.87 45.59 1651.63 46.5015 1651.28 47.1772C1650.95 47.8404 1650.52 48.3217 1650 48.6211C1649.47 48.9205 1648.83 49.0866 1648.09 49.1192L1648.03 47.6986C1648.48 47.6786 1648.88 47.547 1649.22 47.304C1649.55 47.0609 1649.83 46.6524 1650.05 46.0784C1650.27 45.4919 1650.44 44.686 1650.53 43.6607C1650.63 42.6353 1650.67 41.3304 1650.65 39.7458L1650.6 36.1805L1658.5 35.8338L1659.06 48.6015L1657.44 48.6726ZM1671.78 48.1328C1670.72 48.1796 1669.76 47.9815 1668.91 47.5382C1668.06 47.095 1667.37 46.4529 1666.83 45.6118C1666.28 44.7588 1665.95 43.7527 1665.81 42.5935L1663.49 42.6953L1663.74 48.3958L1662.12 48.4669L1661.56 35.6992L1663.18 35.6281L1663.43 41.2567L1665.77 41.1541C1665.81 39.963 1666.07 38.9306 1666.55 38.0567C1667.03 37.1829 1667.67 36.5001 1668.48 36.0082C1669.3 35.5038 1670.21 35.2292 1671.23 35.1845C1672.41 35.1329 1673.44 35.3636 1674.34 35.8766C1675.24 36.3897 1675.96 37.1269 1676.5 38.0884C1677.03 39.0379 1677.32 40.148 1677.38 41.4188C1677.44 42.7855 1677.23 43.9597 1676.76 44.9414C1676.29 45.9231 1675.62 46.6912 1674.75 47.2456C1673.9 47.7876 1672.91 48.0833 1671.78 48.1328ZM1671.74 46.6754C1672.61 46.637 1673.35 46.3883 1673.96 45.9293C1674.56 45.4703 1675.01 44.8559 1675.32 44.0858C1675.63 43.3153 1675.77 42.4445 1675.73 41.4734C1675.68 40.4424 1675.46 39.5632 1675.07 38.8357C1674.68 38.1082 1674.15 37.5546 1673.5 37.1749C1672.86 36.7947 1672.12 36.623 1671.28 36.6598C1670.43 36.6972 1669.7 36.9454 1669.1 37.4043C1668.5 37.8508 1668.06 38.459 1667.75 39.229C1667.46 39.9865 1667.34 40.8568 1667.38 41.8398C1667.43 42.8589 1667.63 43.7386 1668 44.4792C1668.38 45.2192 1668.89 45.7793 1669.53 46.1595C1670.18 46.5398 1670.91 46.7117 1671.74 46.6754ZM1679.91 47.6857L1679.35 34.918L1680.97 34.847L1681.47 46.176L1686.25 45.966L1685.75 34.6369L1687.37 34.5658L1687.87 45.8949L1692.65 45.6849L1692.16 34.3558L1693.77 34.2847L1694.33 47.0524L1679.91 47.6857ZM1697.39 46.9184L1696.83 34.1507L1698.44 34.0797L1698.69 39.6003L1700.39 39.5253L1704.36 33.8199L1706.23 33.7377L1701.75 40.1322L1707.11 46.4912L1705.14 46.5781L1700.5 40.9983L1698.75 41.0749L1699 46.8474L1697.39 46.9184ZM1709.19 46.4001L1708.63 33.6324L1710.25 33.5613L1710.71 44.0812L1717.64 33.2368L1719.15 33.1705L1719.71 45.9381L1718.09 46.0092L1717.64 35.6872L1710.79 46.3298L1709.19 46.4001Z" fill="#333333"/>
</svg>
