<svg width="743" height="369" viewBox="0 0 743 369" fill="none" xmlns="http://www.w3.org/2000/svg">
<g filter="url(#filter0_f_59_271)">
<circle cx="445.5" cy="116.5" r="52.5" fill="url(#paint0_radial_59_271)"/>
</g>
<g filter="url(#filter1_f_59_271)">
<circle cx="109" cy="222" r="45" fill="url(#paint1_radial_59_271)"/>
</g>
<path d="M87.84 147H86.84V148H87.84V147ZM87.84 83.1V82.1H86.84V83.1H87.84ZM139.59 83.1H140.59V82.1H139.59V83.1ZM139.59 147V148H140.59V147H139.59ZM127.26 147H126.26V148H127.26V147ZM127.26 93.99H128.26V92.99H127.26V93.99ZM100.17 93.99V92.99H99.17V93.99H100.17ZM100.17 147V148H101.17V147H100.17ZM88.84 147V83.1H86.84V147H88.84ZM87.84 84.1H139.59V82.1H87.84V84.1ZM138.59 83.1V147H140.59V83.1H138.59ZM139.59 146H127.26V148H139.59V146ZM128.26 147V93.99H126.26V147H128.26ZM127.26 92.99H100.17V94.99H127.26V92.99ZM99.17 93.99V147H101.17V93.99H99.17ZM100.17 146H87.84V148H100.17V146ZM163.311 146.01L162.915 146.928L162.922 146.932L162.93 146.935L163.311 146.01ZM155.481 140.61L154.745 141.288L154.755 141.298L155.481 140.61ZM150.621 132.78L151.553 132.418L150.621 132.78ZM150.621 114.15L151.553 114.512L150.621 114.15ZM155.481 106.32L154.755 105.632L154.745 105.643L155.481 106.32ZM163.311 101.01L163.691 101.935L163.699 101.932L163.707 101.928L163.311 101.01ZM183.921 101.01L183.518 101.925L183.529 101.93L183.54 101.935L183.921 101.01ZM191.751 106.32L191.025 107.008L191.751 106.32ZM196.611 114.15L195.672 114.495L195.675 114.503L195.678 114.512L196.611 114.15ZM196.611 132.78L195.678 132.418L195.675 132.427L195.672 132.435L196.611 132.78ZM191.751 140.61L191.025 139.922L191.015 139.933L191.751 140.61ZM184.011 146.01L184.391 146.935L184.399 146.932L184.407 146.928L184.011 146.01ZM162.951 130.89L162.056 131.337L162.061 131.347L162.951 130.89ZM167.361 135.84L167.903 135L167.361 135.84ZM179.871 135.84L180.413 136.68L180.422 136.674L180.431 136.668L179.871 135.84ZM184.281 130.8L183.396 130.333L183.391 130.343L184.281 130.8ZM184.281 116.13L183.386 116.577L183.391 116.587L183.396 116.597L184.281 116.13ZM179.871 111.09L179.328 111.93L179.871 111.09ZM167.361 111.18L167.903 112.02L167.912 112.014L167.921 112.008L167.361 111.18ZM162.951 116.22L163.84 116.677L163.845 116.667L162.951 116.22ZM173.661 146.9C169.931 146.9 166.613 146.288 163.691 145.085L162.93 146.935C166.128 148.252 169.711 148.9 173.661 148.9V146.9ZM163.707 145.092C160.763 143.822 158.268 142.098 156.207 139.922L154.755 141.298C157.013 143.682 159.738 145.558 162.915 146.928L163.707 145.092ZM156.216 139.933C154.202 137.746 152.649 135.244 151.553 132.418L149.688 133.142C150.873 136.196 152.559 138.914 154.745 141.287L156.216 139.933ZM151.553 132.418C150.459 129.597 149.911 126.63 149.911 123.51H147.911C147.911 126.87 148.502 130.083 149.688 133.142L151.553 132.418ZM149.911 123.51C149.911 120.328 150.46 117.331 151.553 114.512L149.688 113.788C148.501 116.849 147.911 120.092 147.911 123.51H149.911ZM151.553 114.512C152.649 111.686 154.202 109.184 156.216 106.997L154.745 105.643C152.559 108.016 150.873 110.734 149.688 113.788L151.553 114.512ZM156.207 107.008C158.264 104.836 160.755 103.144 163.691 101.935L162.93 100.085C159.747 101.396 157.017 103.244 154.755 105.632L156.207 107.008ZM163.707 101.928C166.624 100.67 169.936 100.03 173.661 100.03V98.03C169.705 98.03 166.117 98.7102 162.915 100.092L163.707 101.928ZM173.661 100.03C177.385 100.03 180.665 100.67 183.518 101.925L184.323 100.095C181.177 98.7101 177.616 98.03 173.661 98.03V100.03ZM183.54 101.935C186.477 103.144 188.967 104.836 191.025 107.008L192.477 105.632C190.214 103.244 187.485 101.396 184.301 100.085L183.54 101.935ZM191.025 107.008C193.091 109.189 194.639 111.683 195.672 114.495L197.549 113.805C196.422 110.737 194.73 108.011 192.477 105.632L191.025 107.008ZM195.678 114.512C196.771 117.331 197.321 120.328 197.321 123.51H199.321C199.321 120.092 198.73 116.849 197.543 113.788L195.678 114.512ZM197.321 123.51C197.321 126.63 196.772 129.597 195.678 132.418L197.543 133.142C198.729 130.083 199.321 126.87 199.321 123.51H197.321ZM195.672 132.435C194.639 135.247 193.091 137.741 191.025 139.922L192.477 141.298C194.73 138.919 196.422 136.193 197.549 133.125L195.672 132.435ZM191.015 139.933C189.017 142.102 186.556 143.823 183.615 145.092L184.407 146.928C187.586 145.557 190.284 143.678 192.486 141.287L191.015 139.933ZM183.63 145.085C180.708 146.288 177.391 146.9 173.661 146.9V148.9C177.611 148.9 181.193 148.252 184.391 146.935L183.63 145.085ZM160.331 123.51C160.331 126.403 160.897 129.02 162.056 131.337L163.845 130.443C162.844 128.44 162.331 126.137 162.331 123.51H160.331ZM162.061 131.347C163.216 133.592 164.801 135.379 166.818 136.68L167.903 135C166.2 133.901 164.845 132.388 163.84 130.433L162.061 131.347ZM166.818 136.68C168.85 137.991 171.14 138.64 173.661 138.64V136.64C171.501 136.64 169.592 136.089 167.903 135L166.818 136.68ZM173.661 138.64C176.127 138.64 178.386 137.988 180.413 136.68L179.328 135C177.635 136.092 175.754 136.64 173.661 136.64V138.64ZM180.431 136.668C182.437 135.309 184.017 133.499 185.17 131.257L183.391 130.343C182.384 132.301 181.024 133.851 179.31 135.012L180.431 136.668ZM185.165 131.267C186.39 128.945 186.991 126.321 186.991 123.42H184.991C184.991 126.039 184.451 128.335 183.396 130.333L185.165 131.267ZM186.991 123.42C186.991 120.575 186.389 117.982 185.165 115.663L183.396 116.597C184.453 118.598 184.991 120.865 184.991 123.42H186.991ZM185.175 115.683C184.022 113.378 182.437 111.556 180.413 110.25L179.328 111.93C181.024 113.024 182.379 114.562 183.386 116.577L185.175 115.683ZM180.413 110.25C178.386 108.942 176.127 108.29 173.661 108.29V110.29C175.754 110.29 177.635 110.838 179.328 111.93L180.413 110.25ZM173.661 108.29C171.129 108.29 168.832 108.975 166.8 110.352L167.921 112.008C169.609 110.865 171.512 110.29 173.661 110.29V108.29ZM166.818 110.34C164.794 111.646 163.209 113.468 162.056 115.773L163.845 116.667C164.852 114.652 166.207 113.114 167.903 112.02L166.818 110.34ZM162.061 115.763C160.897 118.026 160.331 120.618 160.331 123.51H162.331C162.331 120.882 162.844 118.614 163.84 116.677L162.061 115.763ZM203.041 147.63H202.041V148.648L203.058 148.63L203.041 147.63ZM203.041 136.92L202.999 135.921L202.041 135.961V136.92H203.041ZM206.911 135.84L206.41 134.975L206.911 135.84ZM209.881 132.51L209.006 132.024L209 132.036L209.881 132.51ZM211.951 125.76L210.968 125.576L210.966 125.586L210.964 125.596L211.951 125.76ZM213.031 114.69L212.032 114.648L212.032 114.65L213.031 114.69ZM213.661 99.84V98.84H212.702L212.662 99.7976L213.661 99.84ZM249.031 99.84H250.031V98.84H249.031V99.84ZM249.031 147V148H250.031V147H249.031ZM236.971 147H235.971V148H236.971V147ZM236.971 110.37H237.971V109.37H236.971V110.37ZM224.281 110.37V109.37H223.313L223.281 110.337L224.281 110.37ZM224.101 115.86L225.1 115.899L225.1 115.893L224.101 115.86ZM218.251 140.97L217.441 140.383L217.438 140.387L218.251 140.97ZM211.951 146.01L212.326 146.937L211.951 146.01ZM204.041 147.63V136.92H202.041V147.63H204.041ZM203.082 137.919C204.668 137.853 206.119 137.454 207.412 136.705L206.41 134.975C205.423 135.546 204.293 135.867 202.999 135.921L203.082 137.919ZM207.412 136.705C208.758 135.926 209.863 134.653 210.761 132.984L209 132.036C208.219 133.487 207.343 134.434 206.41 134.975L207.412 136.705ZM210.755 132.996C211.733 131.235 212.448 128.86 212.937 125.924L210.964 125.596C210.494 128.42 209.829 130.545 209.007 132.024L210.755 132.996ZM212.934 125.944C213.486 122.999 213.849 119.256 214.03 114.73L212.032 114.65C211.853 119.124 211.495 122.761 210.968 125.576L212.934 125.944ZM214.03 114.732L214.66 99.8824L212.662 99.7976L212.032 114.648L214.03 114.732ZM213.661 100.84H249.031V98.84H213.661V100.84ZM248.031 99.84V147H250.031V99.84H248.031ZM249.031 146H236.971V148H249.031V146ZM237.971 147V110.37H235.971V147H237.971ZM236.971 109.37H224.281V111.37H236.971V109.37ZM223.281 110.337L223.101 115.827L225.1 115.893L225.28 110.403L223.281 110.337ZM223.101 115.821C222.863 121.964 222.267 127.025 221.327 131.021L223.274 131.479C224.254 127.315 224.859 122.116 225.1 115.899L223.101 115.821ZM221.327 131.021C220.386 135.021 219.078 138.125 217.441 140.383L219.06 141.557C220.903 139.015 222.295 135.639 223.274 131.479L221.327 131.021ZM217.438 140.387C215.862 142.583 213.91 144.138 211.576 145.083L212.326 146.937C215.032 145.842 217.28 144.037 219.063 141.553L217.438 140.387ZM211.576 145.083C209.194 146.047 206.351 146.572 203.023 146.63L203.058 148.63C206.571 148.568 209.667 148.013 212.326 146.937L211.576 145.083ZM262.96 166.89L262.729 167.863L262.739 167.865L262.96 166.89ZM258.55 165.54L257.579 165.302L257.364 166.178L258.214 166.482L258.55 165.54ZM260.89 156L261.313 155.094L260.209 154.579L259.919 155.762L260.89 156ZM263.41 156.9L263.185 157.874L263.193 157.876L263.201 157.878L263.41 156.9ZM269.62 155.55L268.951 154.807L268.942 154.815L268.933 154.824L269.62 155.55ZM272.5 150.6L271.563 150.251L271.556 150.271L271.549 150.291L272.5 150.6ZM273.94 146.73L274.878 147.079L275.013 146.714L274.867 146.353L273.94 146.73ZM254.86 99.84V98.84H253.374L253.934 100.217L254.86 99.84ZM267.37 99.84L268.31 99.4977L268.07 98.84H267.37V99.84ZM280.06 134.67L279.121 135.012L280.121 137.758L281.013 134.975L280.06 134.67ZM291.22 99.84V98.84H290.491L290.268 99.5349L291.22 99.84ZM302.74 99.84L303.682 100.176L304.159 98.84H302.74V99.84ZM283.48 153.75L282.539 153.414L282.538 153.416L283.48 153.75ZM279.43 161.04L278.668 160.393L278.663 160.399L278.658 160.404L279.43 161.04ZM273.67 165.72L273.223 164.826L273.67 165.72ZM266.83 166.34C265.65 166.34 264.435 166.2 263.182 165.915L262.739 167.865C264.126 168.18 265.49 168.34 266.83 168.34V166.34ZM263.192 165.917C261.978 165.628 260.544 165.19 258.887 164.598L258.214 166.482C259.917 167.09 261.423 167.552 262.729 167.863L263.192 165.917ZM259.522 165.778L261.862 156.238L259.919 155.762L257.579 165.302L259.522 165.778ZM260.467 156.906C261.416 157.349 262.323 157.675 263.185 157.874L263.635 155.926C262.937 155.765 262.164 155.491 261.313 155.094L260.467 156.906ZM263.201 157.878C264.09 158.068 264.912 158.17 265.66 158.17V156.17C265.088 156.17 264.41 156.092 263.62 155.922L263.201 157.878ZM265.66 158.17C267.429 158.17 268.992 157.523 270.308 156.276L268.933 154.824C267.969 155.737 266.891 156.17 265.66 156.17V158.17ZM270.289 156.293C271.665 155.055 272.7 153.226 273.452 150.909L271.549 150.291C270.861 152.414 269.975 153.885 268.951 154.807L270.289 156.293ZM273.438 150.949L274.878 147.079L273.003 146.381L271.563 150.251L273.438 150.949ZM274.867 146.353L255.787 99.4631L253.934 100.217L273.014 147.107L274.867 146.353ZM254.86 100.84H267.37V98.84H254.86V100.84ZM266.431 100.182L279.121 135.012L281 134.328L268.31 99.4977L266.431 100.182ZM281.013 134.975L292.173 100.145L290.268 99.5349L279.108 134.365L281.013 134.975ZM291.22 100.84H302.74V98.84H291.22V100.84ZM301.799 99.5036L282.539 153.414L284.422 154.086L303.682 100.176L301.799 99.5036ZM282.538 153.416C281.551 156.202 280.257 158.52 278.668 160.393L280.193 161.687C281.964 159.6 283.369 157.058 284.423 154.084L282.538 153.416ZM278.658 160.404C277.059 162.347 275.247 163.814 273.223 164.826L274.118 166.614C276.414 165.466 278.442 163.813 280.202 161.676L278.658 160.404ZM273.223 164.826C271.201 165.837 269.074 166.34 266.83 166.34V168.34C269.387 168.34 271.82 167.763 274.118 166.614L273.223 164.826ZM335.573 147H334.573V148H335.573V147ZM335.573 130.08H336.573V128.557L335.175 129.162L335.573 130.08ZM330.083 131.79L329.893 130.808L329.887 130.809L330.083 131.79ZM312.173 128.37L311.481 129.092L311.489 129.1L312.173 128.37ZM307.943 99.84V98.84H306.943V99.84H307.943ZM320.003 99.84H321.003V98.84H320.003V99.84ZM321.803 121.17L321.063 121.843L321.071 121.852L321.079 121.86L321.803 121.17ZM331.883 122.7L331.679 121.721L331.883 122.7ZM335.573 121.44L336.041 122.324L336.573 122.042V121.44H335.573ZM335.573 99.84V98.84H334.573V99.84H335.573ZM347.723 99.84H348.723V98.84H347.723V99.84ZM347.723 147V148H348.723V147H347.723ZM336.573 147V130.08H334.573V147H336.573ZM335.175 129.162C333.439 129.915 331.679 130.463 329.893 130.808L330.273 132.772C332.207 132.397 334.106 131.805 335.97 130.998L335.175 129.162ZM329.887 130.809C328.166 131.154 326.164 131.33 323.873 131.33V133.33C326.262 133.33 328.4 133.146 330.279 132.771L329.887 130.809ZM323.873 131.33C319.071 131.33 315.442 130.061 312.856 127.64L311.489 129.1C314.543 131.959 318.715 133.33 323.873 133.33V131.33ZM312.864 127.648C310.299 125.191 308.943 121.559 308.943 116.58H306.943C306.943 121.921 308.407 126.149 311.481 129.092L312.864 127.648ZM308.943 116.58V99.84H306.943V116.58H308.943ZM307.943 100.84H320.003V98.84H307.943V100.84ZM319.003 99.84V114.96H321.003V99.84H319.003ZM319.003 114.96C319.003 117.891 319.621 120.257 321.063 121.843L322.543 120.497C321.584 119.443 321.003 117.669 321.003 114.96H319.003ZM321.079 121.86C322.595 123.448 324.825 124.15 327.563 124.15V122.15C325.141 122.15 323.53 121.532 322.526 120.48L321.079 121.86ZM327.563 124.15C329.073 124.15 330.581 123.993 332.087 123.679L331.679 121.721C330.304 122.007 328.933 122.15 327.563 122.15V124.15ZM332.087 123.679C333.595 123.365 334.918 122.918 336.041 122.324L335.105 120.556C334.187 121.042 333.051 121.435 331.679 121.721L332.087 123.679ZM336.573 121.44V99.84H334.573V121.44H336.573ZM335.573 100.84H347.723V98.84H335.573V100.84ZM346.723 99.84V147H348.723V99.84H346.723ZM347.723 146H335.573V148H347.723V146ZM358.687 147H357.687V148H358.687V147ZM358.687 99.93V98.93H357.687V99.93H358.687ZM370.747 99.93H371.747V98.93H370.747V99.93ZM370.747 130.89H369.747V134.134L371.574 131.453L370.747 130.89ZM391.897 99.84V98.84H391.368L391.071 99.277L391.897 99.84ZM402.877 99.84H403.877V98.84H402.877V99.84ZM402.877 147V148H403.877V147H402.877ZM390.817 147H389.817V148H390.817V147ZM390.817 116.76H391.817V113.552L389.994 116.192L390.817 116.76ZM369.937 147V148H370.462L370.76 147.568L369.937 147ZM359.687 147V99.93H357.687V147H359.687ZM358.687 100.93H370.747V98.93H358.687V100.93ZM369.747 99.93V130.89H371.747V99.93H369.747ZM371.574 131.453L392.724 100.403L391.071 99.277L369.921 130.327L371.574 131.453ZM391.897 100.84H402.877V98.84H391.897V100.84ZM401.877 99.84V147H403.877V99.84H401.877ZM402.877 146H390.817V148H402.877V146ZM391.817 147V116.76H389.817V147H391.817ZM389.994 116.192L369.114 146.432L370.76 147.568L391.64 117.328L389.994 116.192ZM369.937 146H358.687V148H369.937V146Z" fill="#BCBCBC"/>
<path d="M174.1 247.01L173.704 247.928L173.712 247.932L173.719 247.935L174.1 247.01ZM166.27 241.61L165.535 242.288L165.544 242.298L166.27 241.61ZM161.23 233.69L160.298 234.052L160.301 234.06L160.304 234.068L161.23 233.69ZM162.49 212.27L161.613 211.789L161.61 211.794L162.49 212.27ZM171.13 203.36L171.642 204.219L171.13 203.36ZM197.5 203.36L196.981 204.215L197.5 203.36ZM205.69 212.09L205.982 213.046L207.113 212.701L206.584 211.643L205.69 212.09ZM193.9 215.69L193.037 216.196L193.437 216.877L194.192 216.646L193.9 215.69ZM189.85 211.73L189.354 212.598L189.366 212.605L189.378 212.611L189.85 211.73ZM177.97 212.09L178.493 212.943L178.5 212.938L177.97 212.09ZM173.56 217.04L174.449 217.497L174.454 217.487L173.56 217.04ZM173.56 231.8L172.666 232.247L172.673 232.262L172.681 232.277L173.56 231.8ZM178.06 236.84L177.499 237.668L177.508 237.674L177.518 237.68L178.06 236.84ZM188.32 237.92L187.978 236.98L187.971 236.983L187.964 236.986L188.32 237.92ZM191.83 235.94L192.466 236.712L191.83 235.94ZM194.08 233.06L194.372 232.104L193.526 231.845L193.166 232.654L194.08 233.06ZM205.87 236.66L206.778 237.079L207.258 236.038L206.162 235.704L205.87 236.66ZM201.1 242.96L200.437 242.211L200.432 242.216L200.426 242.221L201.1 242.96ZM193.81 247.37L194.157 248.308L194.168 248.304L193.81 247.37ZM184.45 247.9C180.72 247.9 177.402 247.288 174.481 246.085L173.719 247.935C176.918 249.252 180.5 249.9 184.45 249.9V247.9ZM174.496 246.092C171.553 244.822 169.057 243.098 166.996 240.922L165.544 242.298C167.803 244.682 170.527 246.558 173.704 247.928L174.496 246.092ZM167.005 240.932C164.926 238.679 163.311 236.141 162.156 233.312L160.304 234.068C161.549 237.119 163.294 239.861 165.535 242.288L167.005 240.932ZM162.162 233.328C161.068 230.507 160.52 227.54 160.52 224.42H158.52C158.52 227.78 159.112 230.993 160.298 234.052L162.162 233.328ZM160.52 224.42C160.52 220.135 161.474 216.25 163.37 212.746L161.61 211.794C159.546 215.61 158.52 219.825 158.52 224.42H160.52ZM163.367 212.751C165.319 209.19 168.072 206.349 171.642 204.219L170.618 202.501C166.748 204.811 163.741 207.91 161.613 211.789L163.367 212.751ZM171.642 204.219C175.182 202.106 179.408 201.03 184.36 201.03V199.03C179.112 199.03 174.518 200.174 170.618 202.501L171.642 204.219ZM184.36 201.03C189.312 201.03 193.505 202.107 196.981 204.215L198.019 202.505C194.175 200.173 189.608 199.03 184.36 199.03V201.03ZM196.981 204.215C200.491 206.344 203.085 209.117 204.796 212.537L206.584 211.643C204.695 207.863 201.829 204.816 198.019 202.505L196.981 204.215ZM205.398 211.134L193.608 214.734L194.192 216.646L205.982 213.046L205.398 211.134ZM194.763 215.184C193.655 213.295 192.174 211.841 190.322 210.849L189.378 212.611C190.886 213.419 192.105 214.605 193.037 216.196L194.763 215.184ZM190.346 210.862C188.507 209.811 186.474 209.29 184.27 209.29V211.29C186.146 211.29 187.833 211.729 189.354 212.598L190.346 210.862ZM184.27 209.29C181.804 209.29 179.52 209.942 177.44 211.242L178.5 212.938C180.26 211.838 182.176 211.29 184.27 211.29V209.29ZM177.447 211.237C175.411 212.485 173.82 214.284 172.666 216.593L174.454 217.487C175.46 215.476 176.809 213.975 178.493 212.943L177.447 211.237ZM172.671 216.583C171.505 218.849 170.94 221.472 170.94 224.42H172.94C172.94 221.728 173.455 219.431 174.449 217.497L172.671 216.583ZM170.94 224.42C170.94 227.313 171.507 229.93 172.666 232.247L174.454 231.353C173.453 229.35 172.94 227.047 172.94 224.42H170.94ZM172.681 232.277C173.893 234.509 175.498 236.312 177.499 237.668L178.621 236.012C176.902 234.848 175.507 233.291 174.439 231.323L172.681 232.277ZM177.518 237.68C179.545 238.988 181.804 239.64 184.27 239.64V237.64C182.176 237.64 180.295 237.092 178.602 236L177.518 237.68ZM184.27 239.64C185.823 239.64 187.295 239.381 188.676 238.854L187.964 236.986C186.825 237.419 185.597 237.64 184.27 237.64V239.64ZM188.662 238.86C190.082 238.343 191.353 237.629 192.466 236.712L191.194 235.168C190.267 235.931 189.198 236.537 187.978 236.98L188.662 238.86ZM192.466 236.712C193.591 235.785 194.444 234.704 194.994 233.466L193.166 232.654C192.756 233.576 192.109 234.415 191.194 235.168L192.466 236.712ZM193.788 234.016L205.578 237.616L206.162 235.704L194.372 232.104L193.788 234.016ZM204.962 236.241C203.945 238.445 202.443 240.435 200.437 242.211L201.763 243.709C203.957 241.765 205.635 239.555 206.778 237.079L204.962 236.241ZM200.426 242.221C198.487 243.989 196.167 245.397 193.452 246.436L194.168 248.304C197.093 247.183 199.633 245.651 201.774 243.699L200.426 242.221ZM193.463 246.432C190.833 247.404 187.833 247.9 184.45 247.9V249.9C188.027 249.9 191.267 249.376 194.157 248.308L193.463 246.432ZM213.291 248H212.291V249H213.291V248ZM213.291 200.84V199.84H212.291V200.84H213.291ZM225.351 200.84H226.351V199.84H225.351V200.84ZM225.351 218.66H224.351V219.66H225.351V218.66ZM229.401 218.66V219.66H229.914L230.213 219.243L229.401 218.66ZM242.181 200.84V199.84H241.667L241.368 200.257L242.181 200.84ZM255.321 200.84L256.126 201.432L257.297 199.84H255.321V200.84ZM238.581 223.61L237.775 223.018L237.332 223.62L237.785 224.215L238.581 223.61ZM257.121 248V249H259.137L257.917 247.395L257.121 248ZM243.351 248L242.553 248.602L242.853 249H243.351V248ZM229.221 229.28L230.019 228.678L229.719 228.28H229.221V229.28ZM225.351 229.28V228.28H224.351V229.28H225.351ZM225.351 248V249H226.351V248H225.351ZM214.291 248V200.84H212.291V248H214.291ZM213.291 201.84H225.351V199.84H213.291V201.84ZM224.351 200.84V218.66H226.351V200.84H224.351ZM225.351 219.66H229.401V217.66H225.351V219.66ZM230.213 219.243L242.993 201.423L241.368 200.257L228.588 218.077L230.213 219.243ZM242.181 201.84H255.321V199.84H242.181V201.84ZM254.515 200.248L237.775 223.018L239.386 224.202L256.126 201.432L254.515 200.248ZM237.785 224.215L256.325 248.605L257.917 247.395L239.377 223.005L237.785 224.215ZM257.121 247H243.351V249H257.121V247ZM244.149 247.398L230.019 228.678L228.423 229.882L242.553 248.602L244.149 247.398ZM229.221 228.28H225.351V230.28H229.221V228.28ZM224.351 229.28V248H226.351V229.28H224.351ZM225.351 247H213.291V249H225.351V247ZM264.619 248H263.619V249H264.619V248ZM264.619 200.93V199.93H263.619V200.93H264.619ZM276.679 200.93H277.679V199.93H276.679V200.93ZM276.679 231.89H275.679V235.134L277.505 232.453L276.679 231.89ZM297.829 200.84V199.84H297.3L297.002 200.277L297.829 200.84ZM308.809 200.84H309.809V199.84H308.809V200.84ZM308.809 248V249H309.809V248H308.809ZM296.749 248H295.749V249H296.749V248ZM296.749 217.76H297.749V214.552L295.926 217.192L296.749 217.76ZM275.869 248V249H276.394L276.692 248.568L275.869 248ZM265.619 248V200.93H263.619V248H265.619ZM264.619 201.93H276.679V199.93H264.619V201.93ZM275.679 200.93V231.89H277.679V200.93H275.679ZM277.505 232.453L298.655 201.403L297.002 200.277L275.852 231.327L277.505 232.453ZM297.829 201.84H308.809V199.84H297.829V201.84ZM307.809 200.84V248H309.809V200.84H307.809ZM308.809 247H296.749V249H308.809V247ZM297.749 248V217.76H295.749V248H297.749ZM295.926 217.192L275.046 247.432L276.692 248.568L297.572 218.328L295.926 217.192ZM275.869 247H264.619V249H275.869V247ZM315.944 259.43H314.944V260.43H315.944V259.43ZM315.944 237.47V236.47H314.944V237.47H315.944ZM320.534 236.48L320.013 235.627L320.002 235.633L319.991 235.64L320.534 236.48ZM323.324 233.15L322.436 232.69L322.433 232.696L322.43 232.703L323.324 233.15ZM325.304 226.49L324.322 226.302L324.32 226.312L324.318 226.322L325.304 226.49ZM326.384 215.69L327.383 215.731L327.384 215.726L326.384 215.69ZM326.924 200.84V199.84H325.96L325.925 200.804L326.924 200.84ZM362.294 200.84H363.294V199.84H362.294V200.84ZM362.294 237.47H361.294V238.47H362.294V237.47ZM368.864 237.47H369.864V236.47H368.864V237.47ZM368.864 259.43V260.43H369.864V259.43H368.864ZM358.334 259.43H357.334V260.43H358.334V259.43ZM358.334 248H359.334V247H358.334V248ZM326.564 248V247H325.564V248H326.564ZM326.564 259.43V260.43H327.564V259.43H326.564ZM332.414 237.47L331.73 236.74L329.885 238.47H332.414V237.47ZM350.234 237.47V238.47H351.234V237.47H350.234ZM350.234 211.01H351.234V210.01H350.234V211.01ZM337.454 211.01V210.01H336.499L336.455 210.964L337.454 211.01ZM337.184 216.86L336.185 216.814L336.185 216.815L337.184 216.86ZM336.284 226.94L335.296 226.79L335.294 226.799L335.293 226.808L336.284 226.94ZM334.754 233.6L333.819 233.245L333.816 233.254L333.812 233.264L334.754 233.6ZM316.944 259.43V237.47H314.944V259.43H316.944ZM315.944 238.47H317.204V236.47H315.944V238.47ZM317.204 238.47C318.6 238.47 319.898 238.083 321.077 237.32L319.991 235.64C319.131 236.197 318.209 236.47 317.204 236.47V238.47ZM321.056 237.333C322.345 236.545 323.385 235.264 324.219 233.597L322.43 232.703C321.703 234.156 320.883 235.095 320.013 235.627L321.056 237.333ZM324.212 233.61C325.119 231.862 325.801 229.529 326.29 226.658L324.318 226.322C323.847 229.091 323.21 231.198 322.436 232.69L324.212 233.61ZM326.286 226.678C326.839 223.791 327.202 220.138 327.383 215.731L325.385 215.649C325.206 220.002 324.849 223.549 324.322 226.302L326.286 226.678ZM327.384 215.726L327.924 200.876L325.925 200.804L325.385 215.654L327.384 215.726ZM326.924 201.84H362.294V199.84H326.924V201.84ZM361.294 200.84V237.47H363.294V200.84H361.294ZM362.294 238.47H368.864V236.47H362.294V238.47ZM367.864 237.47V259.43H369.864V237.47H367.864ZM368.864 258.43H358.334V260.43H368.864V258.43ZM359.334 259.43V248H357.334V259.43H359.334ZM358.334 247H326.564V249H358.334V247ZM325.564 248V259.43H327.564V248H325.564ZM326.564 258.43H315.944V260.43H326.564V258.43ZM332.414 238.47H350.234V236.47H332.414V238.47ZM351.234 237.47V211.01H349.234V237.47H351.234ZM350.234 210.01H337.454V212.01H350.234V210.01ZM336.455 210.964L336.185 216.814L338.183 216.906L338.453 211.056L336.455 210.964ZM336.185 216.815C336.006 220.753 335.709 224.075 335.296 226.79L337.273 227.09C337.7 224.285 338.002 220.887 338.183 216.905L336.185 216.815ZM335.293 226.808C334.939 229.463 334.443 231.602 333.819 233.245L335.689 233.955C336.386 232.118 336.91 229.817 337.275 227.072L335.293 226.808ZM333.812 233.264C333.248 234.845 332.541 235.981 331.73 236.74L333.098 238.2C334.208 237.159 335.061 235.715 335.696 233.936L333.812 233.264ZM376.679 248H375.679V249H376.679V248ZM376.679 200.84V199.84H375.679V200.84H376.679ZM388.739 200.84H389.739V199.84H388.739V200.84ZM388.739 218.66H387.739V219.66H388.739V218.66ZM392.789 218.66V219.66H393.303L393.602 219.243L392.789 218.66ZM405.569 200.84V199.84H405.056L404.757 200.257L405.569 200.84ZM418.709 200.84L419.515 201.432L420.686 199.84H418.709V200.84ZM401.969 223.61L401.164 223.018L400.721 223.62L401.173 224.215L401.969 223.61ZM420.509 248V249H422.526L421.306 247.395L420.509 248ZM406.739 248L405.941 248.602L406.241 249H406.739V248ZM392.609 229.28L393.408 228.678L393.108 228.28H392.609V229.28ZM388.739 229.28V228.28H387.739V229.28H388.739ZM388.739 248V249H389.739V248H388.739ZM377.679 248V200.84H375.679V248H377.679ZM376.679 201.84H388.739V199.84H376.679V201.84ZM387.739 200.84V218.66H389.739V200.84H387.739ZM388.739 219.66H392.789V217.66H388.739V219.66ZM393.602 219.243L406.382 201.423L404.757 200.257L391.977 218.077L393.602 219.243ZM405.569 201.84H418.709V199.84H405.569V201.84ZM417.904 200.248L401.164 223.018L402.775 224.202L419.515 201.432L417.904 200.248ZM401.173 224.215L419.713 248.605L421.306 247.395L402.766 223.005L401.173 224.215ZM420.509 247H406.739V249H420.509V247ZM407.538 247.398L393.408 228.678L391.811 229.882L405.941 248.602L407.538 247.398ZM392.609 228.28H388.739V230.28H392.609V228.28ZM387.739 229.28V248H389.739V229.28H387.739ZM388.739 247H376.679V249H388.739V247ZM431.158 267.89L430.926 268.863L430.936 268.865L431.158 267.89ZM426.748 266.54L425.776 266.302L425.561 267.178L426.411 267.482L426.748 266.54ZM429.088 257L429.51 256.094L428.407 255.579L428.116 256.762L429.088 257ZM431.608 257.9L431.383 258.874L431.39 258.876L431.398 258.878L431.608 257.9ZM437.818 256.55L437.149 255.807L437.139 255.815L437.13 255.824L437.818 256.55ZM440.698 251.6L439.76 251.251L439.753 251.271L439.746 251.291L440.698 251.6ZM442.138 247.73L443.075 248.079L443.211 247.714L443.064 247.353L442.138 247.73ZM423.058 200.84V199.84H421.571L422.131 201.217L423.058 200.84ZM435.568 200.84L436.507 200.498L436.268 199.84H435.568V200.84ZM448.258 235.67L447.318 236.012L448.318 238.758L449.21 235.975L448.258 235.67ZM459.418 200.84V199.84H458.688L458.465 200.535L459.418 200.84ZM470.938 200.84L471.879 201.176L472.357 199.84H470.938V200.84ZM451.678 254.75L450.736 254.414L450.735 254.416L451.678 254.75ZM447.628 262.04L446.865 261.393L446.86 261.399L446.856 261.404L447.628 262.04ZM441.868 266.72L441.42 265.826L441.868 266.72ZM435.028 267.34C433.847 267.34 432.632 267.2 431.379 266.915L430.936 268.865C432.323 269.18 433.688 269.34 435.028 269.34V267.34ZM431.389 266.917C430.175 266.628 428.741 266.19 427.084 265.598L426.411 267.482C428.114 268.09 429.62 268.552 430.926 268.863L431.389 266.917ZM427.719 266.778L430.059 257.238L428.116 256.762L425.776 266.302L427.719 266.778ZM428.665 257.906C429.614 258.349 430.521 258.675 431.383 258.874L431.832 256.926C431.135 256.765 430.362 256.491 429.51 256.094L428.665 257.906ZM431.398 258.878C432.288 259.068 433.11 259.17 433.858 259.17V257.17C433.285 257.17 432.608 257.092 431.817 256.922L431.398 258.878ZM433.858 259.17C435.626 259.17 437.189 258.523 438.505 257.276L437.13 255.824C436.166 256.737 435.089 257.17 433.858 257.17V259.17ZM438.487 257.293C439.863 256.055 440.897 254.226 441.649 251.909L439.746 251.291C439.058 253.414 438.172 254.885 437.149 255.807L438.487 257.293ZM441.635 251.949L443.075 248.079L441.2 247.381L439.76 251.251L441.635 251.949ZM443.064 247.353L423.984 200.463L422.131 201.217L441.211 248.107L443.064 247.353ZM423.058 201.84H435.568V199.84H423.058V201.84ZM434.628 201.182L447.318 236.012L449.197 235.328L436.507 200.498L434.628 201.182ZM449.21 235.975L460.37 201.145L458.465 200.535L447.305 235.365L449.21 235.975ZM459.418 201.84H470.938V199.84H459.418V201.84ZM469.996 200.504L450.736 254.414L452.619 255.086L471.879 201.176L469.996 200.504ZM450.735 254.416C449.748 257.202 448.454 259.52 446.865 261.393L448.39 262.687C450.161 260.6 451.567 258.058 452.62 255.084L450.735 254.416ZM446.856 261.404C445.256 263.347 443.444 264.814 441.42 265.826L442.315 267.614C444.611 266.466 446.639 264.813 448.4 262.676L446.856 261.404ZM441.42 265.826C439.398 266.837 437.271 267.34 435.028 267.34V269.34C437.584 269.34 440.017 268.763 442.315 267.614L441.42 265.826Z" fill="#BCBCBC"/>
<path d="M515.21 248.9C510.59 248.9 506.42 247.91 502.7 245.93C499.04 243.89 496.22 241.16 494.24 237.74L501.17 230.54C502.91 232.88 505.01 234.74 507.47 236.12C509.99 237.5 512.6 238.19 515.3 238.19C517.46 238.19 519.38 237.74 521.06 236.84C522.74 235.94 524.03 234.68 524.93 233.06C525.89 231.44 526.37 229.58 526.37 227.48C526.37 225.44 525.92 223.64 525.02 222.08C524.12 220.46 522.89 219.23 521.33 218.39C519.77 217.49 518 217.04 516.02 217.04C514.1 217.04 512.27 217.49 510.53 218.39C508.79 219.23 507.41 220.46 506.39 222.08H495.86L503.24 184.1H534.74V195.08H511.97L509.45 209.39C510.17 208.61 511.22 207.98 512.6 207.5C513.98 206.96 515.69 206.69 517.73 206.69C521.75 206.69 525.35 207.59 528.53 209.39C531.71 211.13 534.2 213.53 536 216.59C537.86 219.65 538.79 223.19 538.79 227.21C538.79 231.47 537.74 235.25 535.64 238.55C533.6 241.79 530.81 244.34 527.27 246.2C523.79 248 519.77 248.9 515.21 248.9ZM573.74 248.9C569.24 248.84 565.25 247.82 561.77 245.84C558.29 243.86 555.38 241.25 553.04 238.01C550.7 234.77 548.93 231.29 547.73 227.57C546.59 223.79 546.02 220.1 546.02 216.5C546.02 212.66 546.65 208.82 547.91 204.98C549.17 201.14 551 197.66 553.4 194.54C555.86 191.36 558.8 188.84 562.22 186.98C565.64 185.06 569.48 184.1 573.74 184.1C578.36 184.1 582.38 185.12 585.8 187.16C589.28 189.2 592.19 191.84 594.53 195.08C596.87 198.32 598.61 201.83 599.75 205.61C600.95 209.39 601.55 213.02 601.55 216.5C601.55 220.4 600.92 224.27 599.66 228.11C598.4 231.89 596.54 235.34 594.08 238.46C591.68 241.58 588.77 244.1 585.35 246.02C581.93 247.88 578.06 248.84 573.74 248.9ZM558.53 216.5C558.59 219.02 558.92 221.54 559.52 224.06C560.18 226.52 561.11 228.8 562.31 230.9C563.57 233 565.16 234.71 567.08 236.03C569 237.29 571.22 237.92 573.74 237.92C576.44 237.92 578.75 237.23 580.67 235.85C582.59 234.47 584.15 232.7 585.35 230.54C586.61 228.38 587.54 226.07 588.14 223.61C588.74 221.15 589.04 218.78 589.04 216.5C589.04 213.98 588.71 211.49 588.05 209.03C587.45 206.51 586.49 204.2 585.17 202.1C583.91 200 582.32 198.32 580.4 197.06C578.54 195.74 576.32 195.08 573.74 195.08C571.1 195.08 568.82 195.77 566.9 197.15C564.98 198.53 563.39 200.3 562.13 202.46C560.93 204.62 560.03 206.93 559.43 209.39C558.83 211.85 558.53 214.22 558.53 216.5ZM636.846 248.9C632.346 248.84 628.356 247.82 624.876 245.84C621.396 243.86 618.486 241.25 616.146 238.01C613.806 234.77 612.036 231.29 610.836 227.57C609.696 223.79 609.126 220.1 609.126 216.5C609.126 212.66 609.756 208.82 611.016 204.98C612.276 201.14 614.106 197.66 616.506 194.54C618.966 191.36 621.906 188.84 625.326 186.98C628.746 185.06 632.586 184.1 636.846 184.1C641.466 184.1 645.486 185.12 648.906 187.16C652.386 189.2 655.296 191.84 657.636 195.08C659.976 198.32 661.716 201.83 662.856 205.61C664.056 209.39 664.656 213.02 664.656 216.5C664.656 220.4 664.026 224.27 662.766 228.11C661.506 231.89 659.646 235.34 657.186 238.46C654.786 241.58 651.876 244.1 648.456 246.02C645.036 247.88 641.166 248.84 636.846 248.9ZM621.636 216.5C621.696 219.02 622.026 221.54 622.626 224.06C623.286 226.52 624.216 228.8 625.416 230.9C626.676 233 628.266 234.71 630.186 236.03C632.106 237.29 634.326 237.92 636.846 237.92C639.546 237.92 641.856 237.23 643.776 235.85C645.696 234.47 647.256 232.7 648.456 230.54C649.716 228.38 650.646 226.07 651.246 223.61C651.846 221.15 652.146 218.78 652.146 216.5C652.146 213.98 651.816 211.49 651.156 209.03C650.556 206.51 649.596 204.2 648.276 202.1C647.016 200 645.426 198.32 643.506 197.06C641.646 195.74 639.426 195.08 636.846 195.08C634.206 195.08 631.926 195.77 630.006 197.15C628.086 198.53 626.496 200.3 625.236 202.46C624.036 204.62 623.136 206.93 622.536 209.39C621.936 211.85 621.636 214.22 621.636 216.5ZM690.072 226.58V215.69H716.082V226.58H690.072ZM690.072 238.1V232.16H720.942V238.1H690.072ZM696.732 248V184.1H720.042C723.162 184.1 725.952 184.7 728.412 185.9C730.932 187.1 733.062 188.72 734.802 190.76C736.602 192.8 737.982 195.08 738.942 197.6C739.902 200.12 740.382 202.7 740.382 205.34C740.382 208.94 739.572 212.36 737.952 215.6C736.392 218.84 734.142 221.48 731.202 223.52C728.262 225.56 724.722 226.58 720.582 226.58H709.062V248H696.732ZM709.062 215.69H719.772C721.632 215.69 723.162 215.27 724.362 214.43C725.562 213.59 726.432 212.39 726.972 210.83C727.572 209.21 727.872 207.38 727.872 205.34C727.872 203.12 727.512 201.23 726.792 199.67C726.132 198.11 725.142 196.94 723.822 196.16C722.562 195.38 721.032 194.99 719.232 194.99H709.062V215.69Z" fill="#F5F5F5"/>
<path d="M90.72 346.02L91.1922 345.139L90.72 346.02ZM82.8 338.55L82.3868 337.639L81.3626 338.104L81.9439 339.067L82.8 338.55ZM92.52 334.14L93.357 333.593L92.8877 332.875L92.1068 333.229L92.52 334.14ZM96.48 337.83L95.9944 338.704L96.0134 338.715L96.0328 338.724L96.48 337.83ZM109.17 337.47L109.754 338.282L109.76 338.277L109.17 337.47ZM99.18 327.48H98.18V328.48H99.18V327.48ZM99.18 320.01V319.01H98.18V320.01H99.18ZM107.01 319.38L107.484 320.26L107.495 320.254L107.506 320.248L107.01 319.38ZM108.9 317.49L108.048 316.966L108.033 316.99L108.02 317.016L108.9 317.49ZM107.82 311.1L107.176 311.865L107.185 311.873L107.195 311.881L107.82 311.1ZM97.11 310.83L96.6179 309.959L96.6096 309.964L96.6013 309.969L97.11 310.83ZM93.78 314.34L93.3085 315.222L94.1623 315.678L94.6462 314.84L93.78 314.34ZM84.69 309.48L83.8218 308.984L83.3114 309.877L84.2185 310.362L84.69 309.48ZM91.89 302.55L91.4229 301.666L91.4159 301.67L91.89 302.55ZM111.78 301.56L111.412 302.49L111.42 302.493L111.78 301.56ZM117.99 305.97L117.202 306.586L117.99 305.97ZM118.71 319.11L117.827 318.641L117.821 318.652L117.816 318.663L118.71 319.11ZM113.94 323.34L113.564 322.413L110.898 323.494L113.66 324.3L113.94 323.34ZM120.42 327.66L119.603 328.237L119.609 328.245L119.614 328.252L120.42 327.66ZM120.15 342.51L120.922 343.146L120.926 343.14L120.931 343.135L120.15 342.51ZM113.31 347.19L113.644 348.133L113.653 348.13L113.661 348.126L113.31 347.19ZM103.32 347.72C98.3936 347.72 94.3677 346.84 91.1922 345.139L90.2478 346.901C93.7923 348.8 98.1664 349.72 103.32 349.72V347.72ZM91.1922 345.139C87.9863 343.421 85.4807 341.055 83.6561 338.033L81.9439 339.067C83.9593 342.405 86.7337 345.019 90.2478 346.901L91.1922 345.139ZM83.2132 339.461L92.9332 335.051L92.1068 333.229L82.3868 337.639L83.2132 339.461ZM91.683 334.687C92.7913 336.382 94.2316 337.725 95.9944 338.704L96.9656 336.956C95.4884 336.135 94.2887 335.018 93.357 333.593L91.683 334.687ZM96.0328 338.724C97.8878 339.652 100.121 340.09 102.69 340.09V338.09C100.339 338.09 98.4322 337.688 96.9272 336.936L96.0328 338.724ZM102.69 340.09C105.616 340.09 108.016 339.533 109.754 338.282L108.586 336.658C107.324 337.567 105.404 338.09 102.69 338.09V340.09ZM109.76 338.277C111.556 336.965 112.51 335.206 112.51 333.06H110.51C110.51 334.514 109.904 335.695 108.58 336.663L109.76 338.277ZM112.51 333.06C112.51 331.091 111.753 329.45 110.249 328.233L108.991 329.787C110.007 330.61 110.51 331.669 110.51 333.06H112.51ZM110.249 328.233C108.74 327.011 106.616 326.48 104.04 326.48V328.48C106.384 328.48 107.98 328.969 108.991 329.787L110.249 328.233ZM104.04 326.48H99.18V328.48H104.04V326.48ZM100.18 327.48V320.01H98.18V327.48H100.18ZM99.18 321.01H104.13V319.01H99.18V321.01ZM104.13 321.01C105.389 321.01 106.523 320.778 107.484 320.26L106.536 318.5C105.937 318.822 105.151 319.01 104.13 319.01V321.01ZM107.506 320.248C108.493 319.684 109.264 318.924 109.78 317.964L108.02 317.016C107.696 317.616 107.207 318.116 106.514 318.512L107.506 320.248ZM109.752 318.014C110.339 317.059 110.62 315.973 110.62 314.79H108.62C108.62 315.647 108.421 316.361 108.048 316.966L109.752 318.014ZM110.62 314.79C110.62 312.978 109.875 311.463 108.445 310.319L107.195 311.881C108.165 312.657 108.62 313.602 108.62 314.79H110.62ZM108.464 310.335C107.056 309.149 104.936 308.66 102.33 308.66V310.66C104.764 310.66 106.304 311.131 107.176 311.865L108.464 310.335ZM102.33 308.66C100.112 308.66 98.1891 309.071 96.6179 309.959L97.6021 311.701C98.7909 311.029 100.348 310.66 102.33 310.66V308.66ZM96.6013 309.969C95.109 310.851 93.8848 312.157 92.9138 313.84L94.6462 314.84C95.4752 313.403 96.471 312.369 97.6187 311.691L96.6013 309.969ZM94.2515 313.458L85.1615 308.598L84.2185 310.362L93.3085 315.222L94.2515 313.458ZM85.5582 309.976C87.141 307.206 89.4008 305.026 92.3641 303.43L91.4159 301.67C88.1392 303.434 85.599 305.874 83.8218 308.984L85.5582 309.976ZM92.3571 303.434C95.3708 301.842 98.8954 301.03 102.96 301.03V299.03C98.6246 299.03 94.7692 299.898 91.4229 301.666L92.3571 303.434ZM102.96 301.03C106.157 301.03 108.969 301.524 111.412 302.49L112.148 300.63C109.431 299.556 106.363 299.03 102.96 299.03V301.03ZM111.42 302.493C113.919 303.458 115.83 304.83 117.202 306.586L118.778 305.354C117.15 303.27 114.921 301.702 112.14 300.627L111.42 302.493ZM117.202 306.586C118.541 308.299 119.24 310.471 119.24 313.17H121.24C121.24 310.109 120.439 307.481 118.778 305.354L117.202 306.586ZM119.24 313.17C119.24 315.036 118.775 316.856 117.827 318.641L119.593 319.579C120.685 317.524 121.24 315.384 121.24 313.17H119.24ZM117.816 318.663C116.977 320.34 115.587 321.593 113.564 322.413L114.316 324.267C116.733 323.287 118.523 321.72 119.604 319.557L117.816 318.663ZM113.66 324.3C116.368 325.09 118.318 326.417 119.603 328.237L121.237 327.083C119.642 324.823 117.272 323.27 114.22 322.38L113.66 324.3ZM119.614 328.252C120.977 330.105 121.67 332.293 121.67 334.86H123.67C123.67 331.907 122.863 329.295 121.226 327.068L119.614 328.252ZM121.67 334.86C121.67 337.661 120.891 339.983 119.369 341.885L120.931 343.135C122.769 340.837 123.67 338.059 123.67 334.86H121.67ZM119.378 341.874C117.827 343.758 115.702 345.225 112.959 346.254L113.661 348.126C116.678 346.995 119.113 345.342 120.922 343.146L119.378 341.874ZM112.976 346.247C110.225 347.222 107.012 347.72 103.32 347.72V349.72C107.188 349.72 110.635 349.198 113.644 348.133L112.976 346.247ZM130.418 326.04L129.616 325.443L129.613 325.447L130.418 326.04ZM137.618 320.64L137.238 319.715L137.618 320.64ZM154.178 319.2L154.033 320.189L154.178 319.2ZM159.488 320.64L159.086 321.555L160.488 322.173V320.64H159.488ZM156.788 311.19L156.107 311.922L156.113 311.928L156.119 311.933L156.788 311.19ZM141.578 310.11L141.219 309.177L141.578 310.11ZM134.198 314.07L133.3 314.509L133.805 315.542L134.758 314.899L134.198 314.07ZM130.328 306.15L129.781 305.313L129.042 305.796L129.43 306.589L130.328 306.15ZM139.868 301.56L139.573 300.605L139.568 300.606L139.868 301.56ZM165.878 305.07L165.208 305.812L165.214 305.817L165.878 305.07ZM172.178 337.2L171.389 337.814L171.409 337.84L171.431 337.864L172.178 337.2ZM174.428 338.19H175.428V337.301L174.545 337.197L174.428 338.19ZM174.428 348L174.593 348.986L175.428 348.847V348H174.428ZM171.458 348.45L171.326 347.459L171.317 347.46L171.458 348.45ZM163.808 347.01L163.139 347.753L163.148 347.761L163.158 347.769L163.808 347.01ZM161.558 343.05L160.565 343.16L160.569 343.2L160.576 343.239L161.558 343.05ZM161.288 340.62L162.282 340.51L162.009 338.052L160.497 340.009L161.288 340.62ZM153.638 346.74L154.064 347.645L153.638 346.74ZM135.818 347.01L135.346 347.891L135.358 347.898L135.371 347.904L135.818 347.01ZM129.968 341.7L129.113 342.218L129.121 342.231L129.129 342.244L129.968 341.7ZM157.238 336.48L157.925 337.207L157.951 337.182L157.976 337.156L157.238 336.48ZM158.858 334.32L157.995 333.816L158.858 334.32ZM159.488 327.57H160.488V326.903L159.873 326.647L159.488 327.57ZM154.808 326.22L154.599 327.198L154.616 327.201L154.633 327.204L154.808 326.22ZM142.298 327.75L142.853 328.582L142.859 328.578L142.298 327.75ZM140.318 336.48L139.465 337.001L140.318 336.48ZM153.008 339.09L153.363 340.025L153.377 340.02L153.391 340.014L153.008 339.09ZM128.898 334.05C128.898 331.185 129.681 328.727 131.223 326.633L129.613 325.447C127.796 327.913 126.898 330.795 126.898 334.05H128.898ZM131.221 326.637C132.839 324.461 135.084 322.765 137.999 321.565L137.238 319.715C134.033 321.035 131.478 322.939 129.616 325.443L131.221 326.637ZM137.999 321.565C140.917 320.363 144.294 319.75 148.148 319.75V317.75C144.083 317.75 140.44 318.397 137.238 319.715L137.999 321.565ZM148.148 319.75C150.078 319.75 152.039 319.896 154.033 320.189L154.324 318.211C152.238 317.904 150.179 317.75 148.148 317.75V319.75ZM154.033 320.189C156.006 320.48 157.686 320.939 159.086 321.555L159.891 319.725C158.291 319.021 156.431 318.52 154.324 318.211L154.033 320.189ZM160.488 320.64V318.12H158.488V320.64H160.488ZM160.488 318.12C160.488 314.909 159.517 312.3 157.457 310.447L156.119 311.933C157.66 313.32 158.488 315.331 158.488 318.12H160.488ZM157.47 310.458C155.475 308.6 152.576 307.76 148.958 307.76V309.76C152.301 309.76 154.622 310.54 156.107 311.922L157.47 310.458ZM148.958 307.76C146.259 307.76 143.677 308.231 141.219 309.177L141.937 311.043C144.16 310.189 146.498 309.76 148.958 309.76V307.76ZM141.219 309.177C138.795 310.109 136.268 311.468 133.639 313.241L134.758 314.899C137.289 313.192 139.682 311.911 141.937 311.043L141.219 309.177ZM135.097 313.631L131.227 305.711L129.43 306.589L133.3 314.509L135.097 313.631ZM130.876 306.987C133.926 304.992 137.024 303.504 140.169 302.514L139.568 300.606C136.233 301.656 132.97 303.228 129.781 305.313L130.876 306.987ZM140.164 302.515C143.364 301.526 146.714 301.03 150.218 301.03V299.03C146.523 299.03 142.973 299.554 139.573 300.605L140.164 302.515ZM150.218 301.03C156.776 301.03 161.727 302.668 165.208 305.812L166.549 304.328C162.59 300.752 157.1 299.03 150.218 299.03V301.03ZM165.214 305.817C168.732 308.944 170.548 313.443 170.548 319.47H172.548C172.548 313.017 170.585 307.916 166.543 304.323L165.214 305.817ZM170.548 319.47V334.5H172.548V319.47H170.548ZM170.548 334.5C170.548 335.819 170.758 337.003 171.389 337.814L172.968 336.586C172.759 336.317 172.548 335.701 172.548 334.5H170.548ZM171.431 337.864C172.131 338.652 173.15 339.046 174.312 339.183L174.545 337.197C173.667 337.094 173.186 336.828 172.926 336.536L171.431 337.864ZM173.428 338.19V348H175.428V338.19H173.428ZM174.264 347.014C173.193 347.192 172.214 347.34 171.326 347.459L171.591 349.441C172.503 349.32 173.504 349.168 174.593 348.986L174.264 347.014ZM171.317 347.46C170.506 347.576 169.836 347.63 169.298 347.63V349.63C169.961 349.63 170.731 349.564 171.6 349.44L171.317 347.46ZM169.298 347.63C167.033 347.63 165.472 347.119 164.459 346.251L163.158 347.769C164.665 349.061 166.764 349.63 169.298 349.63V347.63ZM164.477 346.267C163.437 345.33 162.799 344.203 162.54 342.861L160.576 343.239C160.918 345.017 161.78 346.53 163.139 347.753L164.477 346.267ZM162.552 342.94L162.282 340.51L160.295 340.73L160.565 343.16L162.552 342.94ZM160.497 340.009C158.555 342.521 156.131 344.462 153.213 345.835L154.064 347.645C157.266 346.138 159.941 343.999 162.08 341.231L160.497 340.009ZM153.213 345.835C150.277 347.217 147.302 347.9 144.278 347.9V349.9C147.615 349.9 150.88 349.143 154.064 347.645L153.213 345.835ZM144.278 347.9C141.297 347.9 138.632 347.299 136.266 346.116L135.371 347.904C138.044 349.241 141.02 349.9 144.278 349.9V347.9ZM136.291 346.129C133.971 344.884 132.151 343.227 130.807 341.156L129.129 342.244C130.666 344.613 132.746 346.496 135.346 347.891L136.291 346.129ZM130.824 341.182C129.544 339.068 128.898 336.699 128.898 334.05H126.898C126.898 337.041 127.633 339.772 129.113 342.218L130.824 341.182ZM157.976 337.156C158.676 336.392 159.261 335.615 159.722 334.824L157.995 333.816C157.616 334.465 157.121 335.128 156.501 335.804L157.976 337.156ZM159.722 334.824C160.198 334.008 160.488 333.173 160.488 332.34H158.488C158.488 332.707 158.359 333.192 157.995 333.816L159.722 334.824ZM160.488 332.34V327.57H158.488V332.34H160.488ZM159.873 326.647C158.36 326.016 156.729 325.547 154.984 325.236L154.633 327.204C156.248 327.493 157.737 327.924 159.104 328.493L159.873 326.647ZM155.018 325.242C153.279 324.87 151.618 324.68 150.038 324.68V326.68C151.459 326.68 152.978 326.85 154.599 327.198L155.018 325.242ZM150.038 324.68C146.772 324.68 143.983 325.403 141.738 326.922L142.859 328.578C144.694 327.337 147.065 326.68 150.038 326.68V324.68ZM141.744 326.918C139.509 328.408 138.328 330.478 138.328 333.06H140.328C140.328 331.202 141.128 329.732 142.853 328.582L141.744 326.918ZM138.328 333.06C138.328 334.454 138.715 335.773 139.465 337.001L141.172 335.959C140.602 335.027 140.328 334.066 140.328 333.06H138.328ZM139.465 337.001C140.231 338.254 141.334 339.242 142.734 339.976L143.662 338.204C142.542 337.618 141.726 336.866 141.172 335.959L139.465 337.001ZM142.734 339.976C144.166 340.726 145.832 341.08 147.698 341.08V339.08C146.084 339.08 144.751 338.774 143.662 338.204L142.734 339.976ZM147.698 341.08C149.624 341.08 151.514 340.726 153.363 340.025L152.654 338.155C151.023 338.774 149.373 339.08 147.698 339.08V341.08ZM153.391 340.014C155.215 339.259 156.736 338.33 157.925 337.207L156.552 335.753C155.581 336.67 154.282 337.481 152.626 338.166L153.391 340.014ZM204.439 348H203.439V349H204.439V348ZM204.439 300.84V299.84H203.439V300.84H204.439ZM246.739 300.84H247.739V299.84H246.739V300.84ZM246.739 348V349H247.739V348H246.739ZM234.679 348H233.679V349H234.679V348ZM234.679 311.37H235.679V310.37H234.679V311.37ZM216.499 311.37V310.37H215.499V311.37H216.499ZM216.499 348V349H217.499V348H216.499ZM205.439 348V300.84H203.439V348H205.439ZM204.439 301.84H246.739V299.84H204.439V301.84ZM245.739 300.84V348H247.739V300.84H245.739ZM246.739 347H234.679V349H246.739V347ZM235.679 348V311.37H233.679V348H235.679ZM234.679 310.37H216.499V312.37H234.679V310.37ZM215.499 311.37V348H217.499V311.37H215.499ZM216.499 347H204.439V349H216.499V347ZM269.131 347.01L268.735 347.928L268.742 347.932L268.75 347.935L269.131 347.01ZM261.301 341.61L260.565 342.288L260.575 342.298L261.301 341.61ZM256.441 333.78L257.373 333.418L256.441 333.78ZM256.441 315.15L257.373 315.512L256.441 315.15ZM261.301 307.32L260.575 306.632L260.565 306.643L261.301 307.32ZM269.131 302.01L269.512 302.935L269.519 302.932L269.527 302.928L269.131 302.01ZM289.741 302.01L289.338 302.925L289.349 302.93L289.36 302.935L289.741 302.01ZM297.571 307.32L296.845 308.008L297.571 307.32ZM302.431 315.15L301.492 315.495L301.495 315.503L301.499 315.512L302.431 315.15ZM302.431 333.78L301.499 333.418L301.495 333.427L301.492 333.435L302.431 333.78ZM297.571 341.61L296.845 340.922L296.835 340.933L297.571 341.61ZM289.831 347.01L290.212 347.935L290.219 347.932L290.227 347.928L289.831 347.01ZM268.771 331.89L267.876 332.337L267.882 332.347L268.771 331.89ZM273.181 336.84L273.723 336L273.181 336.84ZM285.691 336.84L286.233 337.68L286.242 337.674L286.252 337.668L285.691 336.84ZM290.101 331.8L289.217 331.333L289.212 331.343L290.101 331.8ZM290.101 317.13L289.207 317.577L289.211 317.587L289.217 317.597L290.101 317.13ZM285.691 312.09L285.149 312.93H285.149L285.691 312.09ZM273.181 312.18L273.723 313.02L273.732 313.014L273.742 313.008L273.181 312.18ZM268.771 317.22L269.66 317.677L269.665 317.667L268.771 317.22ZM279.481 347.9C275.751 347.9 272.433 347.288 269.512 346.085L268.75 347.935C271.949 349.252 275.531 349.9 279.481 349.9V347.9ZM269.527 346.092C266.584 344.822 264.088 343.098 262.027 340.922L260.575 342.298C262.834 344.682 265.558 346.558 268.735 347.928L269.527 346.092ZM262.036 340.933C260.023 338.746 258.469 336.244 257.373 333.418L255.509 334.142C256.693 337.196 258.379 339.914 260.565 342.287L262.036 340.933ZM257.373 333.418C256.279 330.597 255.731 327.63 255.731 324.51H253.731C253.731 327.87 254.323 331.083 255.509 334.142L257.373 333.418ZM255.731 324.51C255.731 321.328 256.28 318.331 257.373 315.512L255.509 314.788C254.322 317.849 253.731 321.092 253.731 324.51H255.731ZM257.373 315.512C258.469 312.686 260.023 310.184 262.036 307.997L260.565 306.643C258.379 309.016 256.693 311.734 255.509 314.788L257.373 315.512ZM262.027 308.008C264.085 305.836 266.575 304.144 269.512 302.935L268.75 301.085C265.567 302.396 262.837 304.244 260.575 306.632L262.027 308.008ZM269.527 302.928C272.444 301.67 275.757 301.03 279.481 301.03V299.03C275.525 299.03 271.938 299.71 268.735 301.092L269.527 302.928ZM279.481 301.03C283.206 301.03 286.485 301.67 289.338 302.925L290.144 301.095C286.997 299.71 283.436 299.03 279.481 299.03V301.03ZM289.36 302.935C292.297 304.144 294.787 305.836 296.845 308.008L298.297 306.632C296.035 304.244 293.305 302.396 290.122 301.085L289.36 302.935ZM296.845 308.008C298.912 310.189 300.459 312.683 301.492 315.495L303.37 314.805C302.243 311.737 300.55 309.011 298.297 306.632L296.845 308.008ZM301.499 315.512C302.592 318.331 303.141 321.328 303.141 324.51H305.141C305.141 321.092 304.55 317.849 303.363 314.788L301.499 315.512ZM303.141 324.51C303.141 327.63 302.593 330.597 301.499 333.418L303.363 334.142C304.549 331.083 305.141 327.87 305.141 324.51H303.141ZM301.492 333.435C300.459 336.247 298.912 338.741 296.845 340.922L298.297 342.298C300.55 339.919 302.243 337.193 303.37 334.125L301.492 333.435ZM296.835 340.933C294.837 343.102 292.376 344.823 289.435 346.092L290.227 347.928C293.406 346.557 296.104 344.678 298.306 342.287L296.835 340.933ZM289.45 346.085C286.529 347.288 283.211 347.9 279.481 347.9V349.9C283.431 349.9 287.013 349.252 290.212 347.935L289.45 346.085ZM266.151 324.51C266.151 327.403 266.718 330.02 267.877 332.337L269.665 331.443C268.664 329.44 268.151 327.137 268.151 324.51H266.151ZM267.882 332.347C269.036 334.592 270.622 336.379 272.639 337.68L273.723 336C272.02 334.901 270.666 333.388 269.66 331.433L267.882 332.347ZM272.639 337.68C274.67 338.991 276.96 339.64 279.481 339.64V337.64C277.322 337.64 275.412 337.089 273.723 336L272.639 337.68ZM279.481 339.64C281.947 339.64 284.206 338.988 286.233 337.68L285.149 336C283.455 337.092 281.575 337.64 279.481 337.64V339.64ZM286.252 337.668C288.258 336.309 289.838 334.499 290.99 332.257L289.212 331.343C288.204 333.301 286.844 334.851 285.13 336.012L286.252 337.668ZM290.985 332.267C292.211 329.945 292.811 327.321 292.811 324.42H290.811C290.811 327.039 290.271 329.335 289.217 331.333L290.985 332.267ZM292.811 324.42C292.811 321.575 292.209 318.982 290.985 316.663L289.217 317.597C290.273 319.598 290.811 321.865 290.811 324.42H292.811ZM290.995 316.683C289.843 314.378 288.257 312.556 286.233 311.25L285.149 312.93C286.845 314.024 288.199 315.562 289.207 317.577L290.995 316.683ZM286.233 311.25C284.206 309.942 281.947 309.29 279.481 309.29V311.29C281.575 311.29 283.455 311.838 285.149 312.93L286.233 311.25ZM279.481 309.29C276.95 309.29 274.653 309.975 272.62 311.352L273.742 313.008C275.429 311.865 277.332 311.29 279.481 311.29V309.29ZM272.639 311.34C270.615 312.646 269.029 314.468 267.877 316.773L269.665 317.667C270.673 315.652 272.027 314.114 273.723 313.02L272.639 311.34ZM267.882 316.763C266.718 319.026 266.151 321.618 266.151 324.51H268.151C268.151 321.882 268.664 319.614 269.66 317.677L267.882 316.763ZM308.411 359.43H307.411V360.43H308.411V359.43ZM308.411 337.47V336.47H307.411V337.47H308.411ZM313.001 336.48L312.48 335.627L312.469 335.633L312.458 335.64L313.001 336.48ZM315.791 333.15L314.903 332.69L314.9 332.696L314.897 332.703L315.791 333.15ZM317.771 326.49L316.789 326.302L316.787 326.312L316.785 326.322L317.771 326.49ZM318.851 315.69L319.85 315.731L319.85 315.726L318.851 315.69ZM319.391 300.84V299.84H318.427L318.392 300.804L319.391 300.84ZM354.761 300.84H355.761V299.84H354.761V300.84ZM354.761 337.47H353.761V338.47H354.761V337.47ZM361.331 337.47H362.331V336.47H361.331V337.47ZM361.331 359.43V360.43H362.331V359.43H361.331ZM350.801 359.43H349.801V360.43H350.801V359.43ZM350.801 348H351.801V347H350.801V348ZM319.031 348V347H318.031V348H319.031ZM319.031 359.43V360.43H320.031V359.43H319.031ZM324.881 337.47L324.197 336.74L322.352 338.47H324.881V337.47ZM342.701 337.47V338.47H343.701V337.47H342.701ZM342.701 311.01H343.701V310.01H342.701V311.01ZM329.921 311.01V310.01H328.966L328.922 310.964L329.921 311.01ZM329.651 316.86L328.652 316.814L328.652 316.815L329.651 316.86ZM328.751 326.94L327.762 326.79L327.761 326.799L327.76 326.808L328.751 326.94ZM327.221 333.6L326.286 333.245L326.283 333.254L326.279 333.264L327.221 333.6ZM309.411 359.43V337.47H307.411V359.43H309.411ZM308.411 338.47H309.671V336.47H308.411V338.47ZM309.671 338.47C311.066 338.47 312.365 338.083 313.544 337.32L312.458 335.64C311.597 336.197 310.676 336.47 309.671 336.47V338.47ZM313.522 337.333C314.812 336.545 315.852 335.264 316.685 333.597L314.897 332.703C314.17 334.156 313.35 335.095 312.48 335.627L313.522 337.333ZM316.679 333.61C317.585 331.862 318.268 329.529 318.757 326.658L316.785 326.322C316.314 329.091 315.677 331.198 314.903 332.69L316.679 333.61ZM318.753 326.678C319.306 323.791 319.669 320.138 319.85 315.731L317.852 315.649C317.673 320.002 317.316 323.549 316.789 326.302L318.753 326.678ZM319.85 315.726L320.39 300.876L318.392 300.804L317.852 315.654L319.85 315.726ZM319.391 301.84H354.761V299.84H319.391V301.84ZM353.761 300.84V337.47H355.761V300.84H353.761ZM354.761 338.47H361.331V336.47H354.761V338.47ZM360.331 337.47V359.43H362.331V337.47H360.331ZM361.331 358.43H350.801V360.43H361.331V358.43ZM351.801 359.43V348H349.801V359.43H351.801ZM350.801 347H319.031V349H350.801V347ZM318.031 348V359.43H320.031V348H318.031ZM319.031 358.43H308.411V360.43H319.031V358.43ZM324.881 338.47H342.701V336.47H324.881V338.47ZM343.701 337.47V311.01H341.701V337.47H343.701ZM342.701 310.01H329.921V312.01H342.701V310.01ZM328.922 310.964L328.652 316.814L330.65 316.906L330.92 311.056L328.922 310.964ZM328.652 316.815C328.473 320.753 328.175 324.075 327.762 326.79L329.74 327.09C330.167 324.285 330.469 320.887 330.65 316.905L328.652 316.815ZM327.76 326.808C327.406 329.463 326.909 331.602 326.286 333.245L328.156 333.955C328.853 332.118 329.376 329.817 329.742 327.072L327.76 326.808ZM326.279 333.264C325.715 334.845 325.007 335.981 324.197 336.74L325.565 338.2C326.675 337.159 327.527 335.715 328.163 333.936L326.279 333.264ZM369.146 348H368.146V349H369.146V348ZM369.146 300.84V299.84H368.146V300.84H369.146ZM411.446 300.84H412.446V299.84H411.446V300.84ZM411.446 348V349H412.446V348H411.446ZM399.386 348H398.386V349H399.386V348ZM399.386 311.37H400.386V310.37H399.386V311.37ZM381.206 311.37V310.37H380.206V311.37H381.206ZM381.206 348V349H382.206V348H381.206ZM370.146 348V300.84H368.146V348H370.146ZM369.146 301.84H411.446V299.84H369.146V301.84ZM410.446 300.84V348H412.446V300.84H410.446ZM411.446 347H399.386V349H411.446V347ZM400.386 348V311.37H398.386V348H400.386ZM399.386 310.37H381.206V312.37H399.386V310.37ZM380.206 311.37V348H382.206V311.37H380.206ZM381.206 347H369.146V349H381.206V347ZM422.408 348H421.408V349H422.408V348ZM422.408 300.93V299.93H421.408V300.93H422.408ZM434.468 300.93H435.468V299.93H434.468V300.93ZM434.468 331.89H433.468V335.134L435.294 332.453L434.468 331.89ZM455.618 300.84V299.84H455.089L454.792 300.277L455.618 300.84ZM466.598 300.84H467.598V299.84H466.598V300.84ZM466.598 348V349H467.598V348H466.598ZM454.538 348H453.538V349H454.538V348ZM454.538 317.76H455.538V314.552L453.715 317.192L454.538 317.76ZM433.658 348V349H434.183L434.481 348.568L433.658 348ZM423.408 348V300.93H421.408V348H423.408ZM422.408 301.93H434.468V299.93H422.408V301.93ZM433.468 300.93V331.89H435.468V300.93H433.468ZM435.294 332.453L456.444 301.403L454.792 300.277L433.641 331.327L435.294 332.453ZM455.618 301.84H466.598V299.84H455.618V301.84ZM465.598 300.84V348H467.598V300.84H465.598ZM466.598 347H454.538V349H466.598V347ZM455.538 348V317.76H453.538V348H455.538ZM453.715 317.192L432.835 347.432L434.481 348.568L455.361 318.328L453.715 317.192ZM433.658 347H422.408V349H433.658V347ZM489.213 347.01L488.817 347.928L488.825 347.932L488.833 347.935L489.213 347.01ZM481.383 341.61L480.648 342.288L480.657 342.298L481.383 341.61ZM476.343 333.69L475.411 334.052L475.414 334.06L475.417 334.068L476.343 333.69ZM477.603 312.27L476.726 311.789L476.724 311.794L477.603 312.27ZM486.243 303.36L486.756 304.219L486.243 303.36ZM512.613 303.36L512.095 304.215L512.613 303.36ZM520.803 312.09L521.095 313.046L522.227 312.701L521.698 311.643L520.803 312.09ZM509.013 315.69L508.151 316.196L508.55 316.877L509.305 316.646L509.013 315.69ZM504.963 311.73L504.467 312.598L504.479 312.605L504.491 312.611L504.963 311.73ZM493.083 312.09L493.606 312.943L493.613 312.938L493.083 312.09ZM488.673 317.04L489.563 317.497L489.568 317.487L488.673 317.04ZM488.673 331.8L487.779 332.247L487.786 332.262L487.794 332.277L488.673 331.8ZM493.173 336.84L492.612 337.668L492.622 337.674L492.631 337.68L493.173 336.84ZM503.433 337.92L503.092 336.98L503.084 336.983L503.077 336.986L503.433 337.92ZM506.943 335.94L507.579 336.712L506.943 335.94ZM509.193 333.06L509.485 332.104L508.639 331.845L508.279 332.654L509.193 333.06ZM520.983 336.66L521.891 337.079L522.372 336.038L521.275 335.704L520.983 336.66ZM516.213 342.96L515.55 342.211L515.545 342.216L515.54 342.221L516.213 342.96ZM508.923 347.37L509.27 348.308L509.281 348.304L508.923 347.37ZM499.563 347.9C495.833 347.9 492.515 347.288 489.594 346.085L488.833 347.935C492.031 349.252 495.613 349.9 499.563 349.9V347.9ZM489.609 346.092C486.666 344.822 484.17 343.098 482.109 340.922L480.657 342.298C482.916 344.682 485.64 346.558 488.817 347.928L489.609 346.092ZM482.118 340.932C480.039 338.679 478.424 336.141 477.269 333.312L475.417 334.068C476.663 337.119 478.408 339.861 480.648 342.288L482.118 340.932ZM477.276 333.328C476.182 330.507 475.633 327.54 475.633 324.42H473.633C473.633 327.78 474.225 330.993 475.411 334.052L477.276 333.328ZM475.633 324.42C475.633 320.135 476.587 316.25 478.483 312.746L476.724 311.794C474.659 315.61 473.633 319.825 473.633 324.42H475.633ZM478.48 312.751C480.433 309.19 483.185 306.349 486.756 304.219L485.731 302.501C481.861 304.811 478.854 307.91 476.726 311.789L478.48 312.751ZM486.756 304.219C490.295 302.106 494.521 301.03 499.473 301.03V299.03C494.225 299.03 489.631 300.174 485.731 302.501L486.756 304.219ZM499.473 301.03C504.426 301.03 508.619 302.107 512.095 304.215L513.132 302.505C509.288 300.173 504.721 299.03 499.473 299.03V301.03ZM512.095 304.215C515.604 306.344 518.199 309.117 519.909 312.537L521.698 311.643C519.808 307.863 516.942 304.816 513.132 302.505L512.095 304.215ZM520.511 311.134L508.721 314.734L509.305 316.646L521.095 313.046L520.511 311.134ZM509.876 315.184C508.769 313.295 507.287 311.841 505.436 310.849L504.491 312.611C505.999 313.419 507.218 314.605 508.151 316.196L509.876 315.184ZM505.459 310.862C503.62 309.811 501.587 309.29 499.383 309.29V311.29C501.259 311.29 502.947 311.729 504.467 312.598L505.459 310.862ZM499.383 309.29C496.917 309.29 494.633 309.942 492.553 311.242L493.613 312.938C495.373 311.838 497.289 311.29 499.383 311.29V309.29ZM492.561 311.237C490.525 312.485 488.933 314.284 487.779 316.593L489.568 317.487C490.573 315.476 491.922 313.975 493.606 312.943L492.561 311.237ZM487.784 316.583C486.618 318.849 486.053 321.472 486.053 324.42H488.053C488.053 321.728 488.568 319.431 489.563 317.497L487.784 316.583ZM486.053 324.42C486.053 327.313 486.62 329.93 487.779 332.247L489.568 331.353C488.566 329.35 488.053 327.047 488.053 324.42H486.053ZM487.794 332.277C489.006 334.509 490.611 336.312 492.612 337.668L493.734 336.012C492.015 334.848 490.621 333.291 489.552 331.323L487.794 332.277ZM492.631 337.68C494.658 338.988 496.917 339.64 499.383 339.64V337.64C497.289 337.64 495.409 337.092 493.715 336L492.631 337.68ZM499.383 339.64C500.937 339.64 502.408 339.381 503.789 338.854L503.077 336.986C501.939 337.419 500.71 337.64 499.383 337.64V339.64ZM503.775 338.86C505.195 338.343 506.466 337.629 507.579 336.712L506.308 335.168C505.381 335.931 504.311 336.537 503.092 336.98L503.775 338.86ZM507.579 336.712C508.705 335.785 509.557 334.704 510.107 333.466L508.279 332.654C507.87 333.576 507.222 334.415 506.308 335.168L507.579 336.712ZM508.901 334.016L520.691 337.616L521.275 335.704L509.485 332.104L508.901 334.016ZM520.075 336.241C519.058 338.445 517.556 340.435 515.55 342.211L516.876 343.709C519.071 341.765 520.748 339.555 521.891 337.079L520.075 336.241ZM515.54 342.221C513.6 343.989 511.28 345.397 508.566 346.436L509.281 348.304C512.207 347.183 514.746 345.651 516.887 343.699L515.54 342.221ZM508.577 346.432C505.946 347.404 502.946 347.9 499.563 347.9V349.9C503.14 349.9 506.381 349.376 509.27 348.308L508.577 346.432ZM528.404 348H527.404V349H528.404V348ZM528.404 300.84V299.84H527.404V300.84H528.404ZM540.464 300.84H541.464V299.84H540.464V300.84ZM540.464 318.66H539.464V319.66H540.464V318.66ZM544.514 318.66V319.66H545.027L545.327 319.243L544.514 318.66ZM557.294 300.84V299.84H556.781L556.481 300.257L557.294 300.84ZM570.434 300.84L571.24 301.432L572.41 299.84H570.434V300.84ZM553.694 323.61L552.888 323.018L552.446 323.62L552.898 324.215L553.694 323.61ZM572.234 348V349H574.25L573.03 347.395L572.234 348ZM558.464 348L557.666 348.602L557.966 349H558.464V348ZM544.334 329.28L545.132 328.678L544.832 328.28H544.334V329.28ZM540.464 329.28V328.28H539.464V329.28H540.464ZM540.464 348V349H541.464V348H540.464ZM529.404 348V300.84H527.404V348H529.404ZM528.404 301.84H540.464V299.84H528.404V301.84ZM539.464 300.84V318.66H541.464V300.84H539.464ZM540.464 319.66H544.514V317.66H540.464V319.66ZM545.327 319.243L558.107 301.423L556.481 300.257L543.701 318.077L545.327 319.243ZM557.294 301.84H570.434V299.84H557.294V301.84ZM569.628 300.248L552.888 323.018L554.5 324.202L571.24 301.432L569.628 300.248ZM552.898 324.215L571.438 348.605L573.03 347.395L554.49 323.005L552.898 324.215ZM572.234 347H558.464V349H572.234V347ZM559.262 347.398L545.132 328.678L543.536 329.882L557.666 348.602L559.262 347.398ZM544.334 328.28H540.464V330.28H544.334V328.28ZM539.464 329.28V348H541.464V329.28H539.464ZM540.464 347H528.404V349H540.464V347ZM582.882 367.89L582.651 368.863L582.661 368.865L582.882 367.89ZM578.472 366.54L577.501 366.302L577.286 367.178L578.136 367.482L578.472 366.54ZM580.812 357L581.235 356.094L580.131 355.579L579.841 356.762L580.812 357ZM583.332 357.9L583.107 358.874L583.115 358.876L583.123 358.878L583.332 357.9ZM589.542 356.55L588.873 355.807L588.864 355.815L588.854 355.824L589.542 356.55ZM592.422 351.6L591.485 351.251L591.478 351.271L591.471 351.291L592.422 351.6ZM593.862 347.73L594.799 348.079L594.935 347.714L594.788 347.353L593.862 347.73ZM574.782 300.84V299.84H573.296L573.856 301.217L574.782 300.84ZM587.292 300.84L588.232 300.498L587.992 299.84H587.292V300.84ZM599.982 335.67L599.043 336.012L600.043 338.758L600.935 335.975L599.982 335.67ZM611.142 300.84V299.84H610.413L610.19 300.535L611.142 300.84ZM622.662 300.84L623.604 301.176L624.081 299.84H622.662V300.84ZM603.402 354.75L602.46 354.414L602.46 354.416L603.402 354.75ZM599.352 362.04L598.59 361.393L598.585 361.399L598.58 361.404L599.352 362.04ZM593.592 366.72L593.145 365.826L593.592 366.72ZM586.752 367.34C585.572 367.34 584.356 367.2 583.104 366.915L582.661 368.865C584.048 369.18 585.412 369.34 586.752 369.34V367.34ZM583.114 366.917C581.9 366.628 580.466 366.19 578.809 365.598L578.136 367.482C579.838 368.09 581.345 368.552 582.651 368.863L583.114 366.917ZM579.443 366.778L581.783 357.238L579.841 356.762L577.501 366.302L579.443 366.778ZM580.389 357.906C581.338 358.349 582.245 358.675 583.107 358.874L583.557 356.926C582.859 356.765 582.086 356.491 581.235 356.094L580.389 357.906ZM583.123 358.878C584.012 359.068 584.834 359.17 585.582 359.17V357.17C585.01 357.17 584.332 357.092 583.542 356.922L583.123 358.878ZM585.582 359.17C587.351 359.17 588.914 358.523 590.23 357.276L588.854 355.824C587.891 356.737 586.813 357.17 585.582 357.17V359.17ZM590.211 357.293C591.587 356.055 592.622 354.226 593.373 351.909L591.471 351.291C590.783 353.414 589.897 354.885 588.873 355.807L590.211 357.293ZM593.359 351.949L594.799 348.079L592.925 347.381L591.485 351.251L593.359 351.949ZM594.788 347.353L575.708 300.463L573.856 301.217L592.936 348.107L594.788 347.353ZM574.782 301.84H587.292V299.84H574.782V301.84ZM586.353 301.182L599.043 336.012L600.922 335.328L588.232 300.498L586.353 301.182ZM600.935 335.975L612.094 301.145L610.19 300.535L599.03 335.365L600.935 335.975ZM611.142 301.84H622.662V299.84H611.142V301.84ZM621.72 300.504L602.461 354.414L604.344 355.086L623.604 301.176L621.72 300.504ZM602.46 354.416C601.473 357.202 600.179 359.52 598.59 361.393L600.115 362.687C601.886 360.6 603.291 358.058 604.345 355.084L602.46 354.416ZM598.58 361.404C596.981 363.347 595.168 364.814 593.145 365.826L594.039 367.614C596.336 366.466 598.364 364.813 600.124 362.676L598.58 361.404ZM593.145 365.826C591.123 366.837 588.996 367.34 586.752 367.34V369.34C589.308 369.34 591.741 368.763 594.039 367.614L593.145 365.826Z" fill="#BCBCBC"/>
<g clip-path="url(#clip0_59_271)">
<path d="M459.27 87.3261C458.926 87.1459 458.533 87.1348 458.147 87.1348C457.737 87.1348 457.358 87.3915 457.073 87.6932L425.482 121.161C425.236 121.421 425.009 121.748 425.009 122.101C425.009 122.454 424.989 122.818 425.132 123.147C425.274 123.476 425.51 123.756 425.81 123.953C426.111 124.149 426.462 124.254 426.822 124.254H440.122L440.125 124.258L432.96 147.473C432.96 147.869 432.853 148.295 433.005 148.681C433.156 149.067 433.434 149.391 433.793 149.6C434.153 149.808 434.572 149.829 434.984 149.829C435.395 149.829 435.774 149.573 436.059 149.271L467.651 115.803C467.897 115.543 468.124 115.216 468.124 114.863C468.124 114.51 468.144 114.146 468.001 113.817C467.859 113.488 467.623 113.208 467.322 113.011C467.022 112.814 466.67 112.71 466.311 112.71H453.011L453.008 112.706L460.172 89.4954C460.172 89.0987 460.279 88.6721 460.128 88.2855C459.976 87.8989 459.63 87.5343 459.27 87.3261Z" stroke="#0178F3" stroke-linecap="round" stroke-linejoin="round"/>
</g>
<path d="M104.864 198.657C107.265 195.727 111.735 195.727 114.136 198.657L117.198 202.392C118.49 203.968 120.407 204.895 122.442 204.926L127.261 204.998C131.04 205.055 133.83 208.562 133.043 212.275L132.042 217.006C131.619 219.001 132.092 221.082 133.336 222.696L136.284 226.522C138.598 229.524 137.602 233.899 134.221 235.596L129.91 237.76C128.091 238.673 126.764 240.342 126.282 242.324L125.139 247.022C124.242 250.709 120.213 252.653 116.784 251.06L112.41 249.027C110.564 248.169 108.436 248.169 106.59 249.027L102.216 251.06C98.7867 252.653 94.7583 250.709 93.8612 247.022L92.718 242.324C92.2359 240.342 90.9095 238.673 89.0903 237.76L84.7793 235.596C81.3979 233.899 80.4017 229.524 82.7156 226.522L85.664 222.696C86.9078 221.082 87.381 219.001 86.9585 217.006L85.9566 212.275C85.1702 208.562 87.9599 205.055 91.7388 204.998L96.5585 204.926C98.5927 204.895 100.51 203.968 101.802 202.392L104.864 198.657Z" stroke="#F64F00" stroke-width="0.919355"/>
<path d="M100.741 222.423L100.748 222.427L100.754 222.43C101.605 222.869 102.541 223.086 103.553 223.086C104.566 223.086 105.494 222.869 106.327 222.428L106.327 222.428L106.33 222.426C107.172 221.97 107.847 221.366 108.344 220.612L108.344 220.612L108.347 220.607C108.847 219.827 109.098 218.965 109.098 218.032C109.098 217.098 108.847 216.244 108.344 215.482C107.847 214.728 107.171 214.134 106.328 213.697C105.496 213.235 104.567 213.008 103.553 213.008C102.538 213.008 101.599 213.236 100.748 213.697C99.9238 214.135 99.2591 214.73 98.763 215.482L99.1344 215.727L98.763 215.482C98.2599 216.244 98.0091 217.098 98.0091 218.032C98.0091 218.965 98.2598 219.827 98.7597 220.607L98.7597 220.607L98.763 220.612C99.2581 221.363 99.9206 221.966 100.741 222.423ZM99.8786 233.508L99.5788 233.852L99.9211 234.154L101.77 235.786L102.135 236.108L102.435 235.726L110.688 225.246L119.125 215.461L119.424 215.114L119.078 214.813L117.198 213.181L116.831 212.863L116.534 213.247L108.529 223.573L99.8786 233.508ZM112.667 235.329L112.667 235.33L112.675 235.334C113.508 235.775 114.436 235.992 115.449 235.992C116.461 235.992 117.389 235.775 118.222 235.334L118.222 235.334L118.225 235.332C119.067 234.876 119.742 234.272 120.239 233.519C120.742 232.756 120.993 231.902 120.993 230.968C120.993 230.036 120.743 229.183 120.241 228.421C119.744 227.647 119.069 227.041 118.224 226.604C117.391 226.141 116.462 225.914 115.449 225.914C114.434 225.914 113.505 226.142 112.671 226.605C111.847 227.043 111.174 227.647 110.66 228.415L110.658 228.418C110.155 229.181 109.904 230.035 109.904 230.968C109.904 231.902 110.155 232.756 110.658 233.519L110.658 233.519L110.663 233.526C111.178 234.272 111.848 234.874 112.667 235.329ZM116.64 232.453L116.64 232.452L116.633 232.461C116.304 232.864 115.918 233.048 115.449 233.048C115.003 233.048 114.612 232.867 114.257 232.453C113.899 232.035 113.72 231.548 113.72 230.968C113.72 230.389 113.899 229.901 114.257 229.484L114.257 229.484L114.263 229.477C114.62 229.043 115.01 228.859 115.449 228.859C115.894 228.859 116.285 229.039 116.64 229.454C116.996 229.869 117.177 230.365 117.177 230.968C117.177 231.548 116.998 232.035 116.64 232.453ZM104.742 219.55C104.388 219.962 103.998 220.141 103.553 220.141C103.108 220.141 102.717 219.961 102.362 219.546C102.006 219.131 101.825 218.635 101.825 218.032C101.825 217.452 102.004 216.965 102.362 216.548C102.717 216.133 103.108 215.953 103.553 215.953C103.999 215.953 104.39 216.133 104.745 216.548C105.103 216.965 105.282 217.452 105.282 218.032C105.282 218.61 105.103 219.11 104.742 219.55Z" stroke="#F64F00" stroke-width="0.919355"/>
<defs>
<filter id="filter0_f_59_271" x="329" y="0" width="233" height="233" filterUnits="userSpaceOnUse" color-interpolation-filters="sRGB">
<feFlood flood-opacity="0" result="BackgroundImageFix"/>
<feBlend mode="normal" in="SourceGraphic" in2="BackgroundImageFix" result="shape"/>
<feGaussianBlur stdDeviation="32" result="effect1_foregroundBlur_59_271"/>
</filter>
<filter id="filter1_f_59_271" x="0" y="113" width="218" height="218" filterUnits="userSpaceOnUse" color-interpolation-filters="sRGB">
<feFlood flood-opacity="0" result="BackgroundImageFix"/>
<feBlend mode="normal" in="SourceGraphic" in2="BackgroundImageFix" result="shape"/>
<feGaussianBlur stdDeviation="32" result="effect1_foregroundBlur_59_271"/>
</filter>
<radialGradient id="paint0_radial_59_271" cx="0" cy="0" r="1" gradientUnits="userSpaceOnUse" gradientTransform="translate(445.5 116.5) rotate(90) scale(52.5)">
<stop stop-color="#0178F3"/>
<stop offset="1" stop-color="#0178F3" stop-opacity="0"/>
</radialGradient>
<radialGradient id="paint1_radial_59_271" cx="0" cy="0" r="1" gradientUnits="userSpaceOnUse" gradientTransform="translate(109 222) rotate(90) scale(45)">
<stop stop-color="#F64F00"/>
<stop offset="1" stop-color="#F64F00" stop-opacity="0"/>
</radialGradient>
<clipPath id="clip0_59_271">
<rect width="64" height="63" fill="white" transform="translate(415 87)"/>
</clipPath>
</defs>
</svg>
