<svg xmlns="http://www.w3.org/2000/svg" xmlns:xlink="http://www.w3.org/1999/xlink"><symbol id="icon-cart" viewBox="0 0 54 54"><g fill="none">
<rect x="2.5" y="2.5" width="49" height="49" rx="24.5" stroke="#F5F5F5"/>
<path fill-rule="evenodd" clip-rule="evenodd" d="M23 37C24.1046 37 25 36.1046 25 35C25 33.8954 24.1046 33 23 33C21.8954 33 21 33.8954 21 35C21 36.1046 21.8954 37 23 37Z" stroke="#F5F5F5" stroke-linecap="round" stroke-linejoin="round"/>
<path fill-rule="evenodd" clip-rule="evenodd" d="M33 37C34.1046 37 35 36.1046 35 35C35 33.8954 34.1046 33 33 33C31.8954 33 31 33.8954 31 35C31 36.1046 31.8954 37 33 37Z" stroke="#F5F5F5" stroke-linecap="round" stroke-linejoin="round"/>
<path d="M20.2455 21.3332H36L34.4727 28.6044C34.3011 29.4279 33.5351 30.0158 32.6545 29.9997H23.0455C22.1268 30.0071 21.3467 29.3601 21.2273 28.4917L19.8455 18.508C19.7269 17.6462 18.9572 17.0013 18.0455 17H16" stroke="#F5F5F5" stroke-linecap="round" stroke-linejoin="round"/>
</g></symbol><symbol id="icon-chart" viewBox="0 0 26 26"><g fill="none">
<path d="M4.5 21.5V8.5H8.5V21.5H4.5Z" stroke="#BCBCBC"/>
<path d="M11.5 21.5V12.5H15.5V21.5H11.5Z" stroke="#BCBCBC"/>
<path d="M18.5 21.5V4.5H22.5V21.5H18.5Z" stroke="#BCBCBC"/>
</g></symbol><symbol id="icon-close" viewBox="0 0 20 20"><g fill="none"><path d="M.293 18.291a1 1 0 101.414 1.414L10 11.413l8.292 8.292a1 1 0 101.414-1.414l-8.292-8.292 8.292-8.292A1 1 0 1018.291.293L9.999 8.585 1.707.293A1 1 0 10.293 1.707L8.585 10 .293 18.291z"/></g></symbol><symbol id="icon-phone" viewBox="0 0 26 26"><g fill="none">
<path d="M19.5502 22.0729L19.5501 22.0728L19.5443 22.0788C19.2537 22.3769 18.8537 22.4981 18.404 22.5C16.1785 22.4308 14.0368 21.3343 12.2142 20.151C9.23051 17.9787 6.52306 15.307 4.82935 12.1049C4.15299 10.7044 3.43672 9.05575 3.5044 7.66105L3.50485 7.65181L3.50495 7.64257C3.51083 7.13138 3.64922 6.72318 3.915 6.47994L3.92311 6.47251L3.93088 6.46474L6.7353 3.66174C6.93611 3.49578 7.06815 3.49093 7.13965 3.5055C7.22476 3.52285 7.35482 3.59487 7.49248 3.80127L9.74376 8.07028C9.87825 8.36724 9.80521 8.68773 9.58209 8.91708L8.54542 9.95322L8.51795 9.98068L8.49505 10.0121C8.38437 10.1637 8.29515 10.3628 8.29291 10.5988L8.29228 10.6648L8.30878 10.7286C8.74401 12.4134 10.039 13.9159 11.1262 14.9134C11.2883 15.0622 11.4609 15.2277 11.6412 15.4007C12.0155 15.7598 12.4232 16.151 12.8405 16.4905C13.4695 17.0023 14.1962 17.4653 15.0457 17.6481C15.1662 17.6804 15.3176 17.7073 15.4766 17.7001C15.6413 17.6926 15.862 17.6453 16.0449 17.4752L16.0531 17.4676L16.061 17.4596L17.242 16.2585C17.57 16.0226 17.9319 15.9885 18.1248 16.1005L18.2412 16.1681H18.2605L22.2283 18.5106C22.5613 18.7227 22.5639 19.0729 22.3661 19.2795L19.5502 22.0729Z" stroke="#BCBCBC"/>
</g></symbol><symbol id="icon-search" viewBox="0 0 26 26"><g fill="none">
<path fill-rule="evenodd" clip-rule="evenodd" d="M11.9167 20.5833C16.7031 20.5833 20.5833 16.7031 20.5833 11.9167C20.5833 7.1302 16.7031 3.25 11.9167 3.25C7.1302 3.25 3.25 7.1302 3.25 11.9167C3.25 16.7031 7.1302 20.5833 11.9167 20.5833Z" stroke="#BCBCBC" stroke-linecap="round" stroke-linejoin="round"/>
<path d="M22.7516 22.7501L18.0391 18.0376" stroke="#BCBCBC" stroke-linecap="round" stroke-linejoin="round"/>
</g></symbol><symbol id="icon-user" viewBox="0 0 26 26"><g fill="none">
<path d="M21.6693 22.75V20.5833C21.6693 18.1901 19.7292 16.25 17.3359 16.25H8.66927C6.27604 16.25 4.33594 18.1901 4.33594 20.5833V22.75" stroke="#BCBCBC" stroke-linecap="round" stroke-linejoin="round"/>
<path fill-rule="evenodd" clip-rule="evenodd" d="M12.9974 11.9167C15.3906 11.9167 17.3307 9.97657 17.3307 7.58333C17.3307 5.1901 15.3906 3.25 12.9974 3.25C10.6042 3.25 8.66406 5.1901 8.66406 7.58333C8.66406 9.97657 10.6042 11.9167 12.9974 11.9167Z" stroke="#BCBCBC" stroke-linecap="round" stroke-linejoin="round"/>
</g></symbol><symbol id="slider-btn" viewBox="0 0 79 58"><g fill="none">
<path d="M36.002 35L42.002 29L36.002 23" stroke="#BCBCBC" stroke-linecap="round" stroke-linejoin="round"/>
<path d="M0.501953 0.5L49.002 0.5C64.7421 0.5 77.502 13.2599 77.502 29C77.502 44.7401 64.7421 57.5 49.002 57.5L0.501953 57.5L0.501953 0.5Z" stroke="#7D7D7D" stroke-opacity="0.8"/>
</g></symbol></svg>